<svg xmlns="http://www.w3.org/2000/svg" xmlns:xlink="http://www.w3.org/1999/xlink" width="526.376" height="382.604" viewBox="0 0 526.376 382.604">
  <defs>
    <linearGradient id="linear-gradient" x1="0.5" y1="1" x2="0.5" gradientUnits="objectBoundingBox">
      <stop offset="0" stop-color="gray" stop-opacity="0.251"/>
      <stop offset="0.54" stop-color="gray" stop-opacity="0.122"/>
      <stop offset="1" stop-color="gray" stop-opacity="0.102"/>
    </linearGradient>
    <linearGradient id="linear-gradient-4" x1="0.5" y1="1.001" x2="0.5" y2="0" xlink:href="#linear-gradient"/>
    <linearGradient id="linear-gradient-5" x1="0" y1="0.5" x2="1" y2="0.5" xlink:href="#linear-gradient"/>
    <linearGradient id="linear-gradient-6" x1="1.414" y1="1" x2="1.414" y2="0" xlink:href="#linear-gradient"/>
    <linearGradient id="linear-gradient-8" x1="0.501" y1="1.001" x2="0.501" y2="0" xlink:href="#linear-gradient"/>
  </defs>
  <g id="Group_93" data-name="Group 93" transform="translate(-0.012 0.009)">
    <path id="Path_546" data-name="Path 546" d="M131.922,98.7a36.173,36.173,0,0,0-11.569,1.124A19.267,19.267,0,0,0,107.2,121.565c1.536,8.657,7.853,16.2,14.408,23.094s13.657,13.71,17.251,21.95c1.792,4.113,2.631,8.72.809,12.828-2.81,6.332-11.283,9.868-19.417,10.6s-16.3-.7-24.465-1.177a30.753,30.753,0,0,0-10.173.7,26.922,26.922,0,0,0-9.2,5.213c-10.6,8.41-19.092,19.9-17.707,31.945,1.55,13.676,15.376,24.484,30.52,30.283,5.014,1.938,10.319,3.478,14.732,6.22,11.627,7.233,14.238,20.8,13.08,32.768s-5.1,23.956-2.907,35.82c2.582,13.8,14.01,26.272,29.425,32.095,13.734,5.188,30.922,4.844,43.116-2.476,5.944-3.575,10.44-8.541,14.349-13.676a110.328,110.328,0,0,0,14.267-24.707c1.7-4.113,3.3-8.536,7.267-11.394a24.971,24.971,0,0,1,8.667-3.507c9.36-2.306,19.218-2.936,28.665-4.99s18.927-5.886,24.063-12.731c7.267-9.689,3.876-22.1,3.91-33.495.058-26,18.947-49.264,25.918-74.605,2.277-8.279,3.125-17.44-1.962-24.828-3.454-5.014-9.282-8.633-15.405-11.428-13.473-6.148-28.786-8.885-43.848-11.549-20.933-3.7-46.352-4.181-62.576-16.156C174.437,106.9,153.136,98.7,131.922,98.7Z" transform="translate(-57.596 -77.361)" fill="#6c63ff" opacity="0.2"/>
    <g id="Group_89" data-name="Group 89" transform="translate(12.017 155.882)" opacity="0.5">
      <path id="Path_547" data-name="Path 547" d="M82.617,390.027a5.883,5.883,0,0,0-.533,6.346c2.664,5.087,9.253,4.04,12.455,8.909a8.9,8.9,0,0,1,1.381,4.5c.121,2.757-.732,4.927-1.172,7.354a12.431,12.431,0,0,0,1.269,8.4,14.834,14.834,0,0,0,6.782,6.051,36.081,36.081,0,0,0,7.218,1.909,44.431,44.431,0,0,1,8.56,2.907,16.161,16.161,0,0,1,3.653,2.132,26.606,26.606,0,0,1,3.7,3.982l10.3,12.722a36.42,36.42,0,0,0,4.36,4.767,26.265,26.265,0,0,0,5.678,3.493c4.113,2.049,8.415,4.147,11.985,3.91s6.051-3.682,4.36-8.5c-1.6-4.583-6.1-8.444-8.148-13.017-3.222-7.209,1-12.6-1.7-19.814-2.587-6.937-9.839-11.588-14.471-17.925-3.323-4.505-5.174-9.747-8.168-14.48a39.635,39.635,0,0,0-16.956-14.6,32.909,32.909,0,0,0-17.033-2.359c-2.209.242-4.384.654-5.954,1.977-1.667,1.4-1.453,4.031-2.539,5.9C86.4,386.738,84.027,387.954,82.617,390.027Z" transform="translate(-81.383 -376.455)" fill="#6c63ff"/>
      <path id="Path_548" data-name="Path 548" d="M97.28,384.33s51.584,48.227,72.386,85.777" transform="translate(-89.579 -380.515)" fill="none" stroke="#535461" stroke-miterlimit="10" stroke-width="2"/>
      <path id="Path_549" data-name="Path 549" d="M83.24,417.708s20.613-4.006,34.88,12.063" transform="translate(-82.34 -397.495)" fill="none" stroke="#535461" stroke-miterlimit="10" stroke-width="2"/>
      <path id="Path_550" data-name="Path 550" d="M113.48,470.52s22.769-15.924,30.646-6.661" transform="translate(-97.931 -420.023)" fill="none" stroke="#535461" stroke-miterlimit="10" stroke-width="2"/>
      <path id="Path_551" data-name="Path 551" d="M146.474,381.63s-2.4,12.189,6.23,32.1" transform="translate(-114.783 -379.123)" fill="none" stroke="#535461" stroke-miterlimit="10" stroke-width="2"/>
      <path id="Path_552" data-name="Path 552" d="M209.3,479.28s-2.015,7.993-18.215,2.117" transform="translate(-137.937 -429.467)" fill="none" stroke="#535461" stroke-miterlimit="10" stroke-width="2"/>
      <path id="Path_553" data-name="Path 553" d="M194.73,518.868s9.888-11.428,5.392-17.038" transform="translate(-139.819 -441.092)" fill="none" stroke="#535461" stroke-miterlimit="10" stroke-width="2"/>
    </g>
    <path id="Path_554" data-name="Path 554" d="M60.147,258.259c-2.422,2.863-4.689,6.826-2.907,10.735,3.43,7.674,16.127,3.919,20.657,11.065a10.552,10.552,0,0,1,1.226,7.078c-.61,4.559-2.868,8.429-4.428,12.6s-2.369,9.2-.17,13.6c2.117,4.258,6.579,6.947,10.9,8.018s8.652.828,12.969.969a71.8,71.8,0,0,1,15.187,2.238,20.98,20.98,0,0,1,6.191,2.49,27.538,27.538,0,0,1,5.731,5.513l15.5,18.065a36.945,36.945,0,0,0,6.714,6.622,33.154,33.154,0,0,0,9.6,4.094c7.1,2.17,14.533,4.36,21.316,2.873s12.475-7.969,10.779-15.473c-1.613-7.146-8.89-12.213-11.341-19.213-3.876-11.031,5.692-21.262,2.82-32.487-2.752-10.764-14.95-16.316-21.732-25.429-4.844-6.53-6.753-14.7-10.987-21.645-6.114-10.028-16.772-16.67-27.381-19.194s-21.282-1.347-31.233,1.177c-4.215,1.071-8.429,2.422-11.772,5.1-3.551,2.844-3.958,7.16-6.545,10.59C68.242,251.627,63.412,254.383,60.147,258.259Z" transform="translate(-56.59 -144.744)" fill="#6c63ff"/>
    <path id="Path_555" data-name="Path 555" d="M95.07,251.4s82.2,64.674,109.854,120.919" transform="translate(-76.422 -156.101)" fill="none" stroke="#535461" stroke-miterlimit="10" stroke-width="2"/>
    <path id="Path_556" data-name="Path 556" d="M58.46,308.066s39.9-12.911,61.787,9.524" transform="translate(-57.548 -183.409)" fill="none" stroke="#535461" stroke-miterlimit="10" stroke-width="2"/>
    <path id="Path_557" data-name="Path 557" d="M96.26,382.089S143.789,348.662,155.8,361.7" transform="translate(-77.036 -211.41)" fill="none" stroke="#535461" stroke-miterlimit="10" stroke-width="2"/>
    <path id="Path_558" data-name="Path 558" d="M185.521,231.88s-8.192,21.02,1.938,51.575" transform="translate(-121.442 -146.037)" fill="none" stroke="#535461" stroke-miterlimit="10" stroke-width="2"/>
    <path id="Path_559" data-name="Path 559" d="M275.832,369.69s-6.206,13.918-34.832,9.05" transform="translate(-151.656 -217.085)" fill="none" stroke="#535461" stroke-miterlimit="10" stroke-width="2"/>
    <path id="Path_560" data-name="Path 560" d="M231.69,444.136S253.718,422.1,246.984,414.1" transform="translate(-146.857 -239.981)" fill="none" stroke="#535461" stroke-miterlimit="10" stroke-width="2"/>
    <ellipse id="Ellipse_129" data-name="Ellipse 129" cx="225.269" cy="60.324" rx="225.269" ry="60.324" transform="translate(74.112 253.404)" fill="#6c63ff" opacity="0.1"/>
    <path id="Path_561" data-name="Path 561" d="M1010.818,55.53a41.447,41.447,0,0,0-7.557,43.116c9.8,25.758-16.8,68.593-16.8,68.593s.286-.044.814-.136c35.651-6.3,53.367-47.069,33.543-77.362C1013.449,78.483,1007.4,65.277,1010.818,55.53Z" transform="translate(-535.978 -55.12)" fill="#6c63ff"/>
    <path id="Path_562" data-name="Path 562" d="M1010.818,55.53s-9.8,21.277,0,38.635,1.681,66.074-24.358,73.074" transform="translate(-535.978 -55.12)" fill="none" stroke="#535461" stroke-miterlimit="10" stroke-width="2"/>
    <path id="Path_563" data-name="Path 563" d="M1037.029,200.229s-19.809-3.154-21.611,14.6-38.087,20.211-38.087,20.211l.678.451c29.958,19.664,58.618,12.528,54.258-13.565C1030.682,212.2,1030.813,202.429,1037.029,200.229Z" transform="translate(-531.271 -129.608)" fill="#6c63ff"/>
    <path id="Path_564" data-name="Path 564" d="M1037.029,200.229s-19.809-3.154-21.611,14.6-38.087,20.211-38.087,20.211l.678.451c29.958,19.664,58.618,12.528,54.258-13.565C1030.682,212.2,1030.813,202.429,1037.029,200.229Z" transform="translate(-531.271 -129.608)" fill="#f5f5f5" opacity="0.2"/>
    <path id="Path_565" data-name="Path 565" d="M1037.029,200.46s-15.376,3.391-14.112,17.353-22.832,30.738-45.587,17.44" transform="translate(-531.271 -129.839)" fill="none" stroke="#535461" stroke-miterlimit="10" stroke-width="2"/>
    <path id="Path_566" data-name="Path 566" d="M300.6,260.851s-6.424-21.8,1.206-37.855a34.44,34.44,0,0,0,2.786-21.606,57.927,57.927,0,0,0-3.057-10.14" transform="translate(-181.079 -125.09)" fill="none" stroke="#535461" stroke-miterlimit="10" stroke-width="2"/>
    <path id="Path_567" data-name="Path 567" d="M304.689,165.145c0,2.674-4.845,10.421-4.845,10.421S295,167.814,295,165.145a4.844,4.844,0,1,1,9.689,0Z" transform="translate(-179.496 -109.134)" fill="#6c63ff"/>
    <path id="Path_568" data-name="Path 568" d="M321.168,192.708c-1.453,2.243-9.728,6.119-9.728,6.119s.15-9.137,1.6-11.38a4.844,4.844,0,1,1,8.124,5.261Z" transform="translate(-187.972 -121.893)" fill="#6c63ff"/>
    <path id="Path_569" data-name="Path 569" d="M318.576,243.231c-2.388,1.2-11.486.373-11.486.373s4.743-7.809,7.126-9.011a4.844,4.844,0,1,1,4.36,8.643Z" transform="translate(-185.729 -147.118)" fill="#6c63ff"/>
    <path id="Path_570" data-name="Path 570" d="M309.379,283.016c-2.151,1.589-11.259,2.306-11.259,2.306s3.352-8.5,5.5-10.086a4.845,4.845,0,1,1,5.755,7.78Z" transform="translate(-181.105 -167.825)" fill="#6c63ff"/>
    <path id="Path_571" data-name="Path 571" d="M288.729,205.547c1.938,1.86,10.847,3.793,10.847,3.793s-2.185-8.87-4.1-10.731a4.845,4.845,0,1,0-6.744,6.942Z" transform="translate(-175.419 -128.095)" fill="#6c63ff"/>
    <path id="Path_572" data-name="Path 572" d="M277.361,251.109c2.388,1.2,11.486.373,11.486.373s-4.743-7.809-7.126-9.011a4.845,4.845,0,0,0-4.36,8.643Z" transform="translate(-169.124 -151.276)" fill="#6c63ff"/>
    <path id="Path_573" data-name="Path 573" d="M274.108,297.913c2.151,1.589,11.259,2.306,11.259,2.306s-3.352-8.5-5.5-10.086a4.844,4.844,0,0,0-5.755,7.78Z" transform="translate(-167.809 -175.649)" fill="#6c63ff"/>
    <path id="Path_574" data-name="Path 574" d="M669.97,375.645H628.748a13.738,13.738,0,0,0,1.453-6.138V181.792A13.8,13.8,0,0,0,616.4,168H297.307a13.8,13.8,0,0,0-13.8,13.8v187.7a13.739,13.739,0,0,0,1.453,6.138h-42.68a3.648,3.648,0,0,0-3.648,3.648v2.941a20.415,20.415,0,0,0,20.415,20.415H653.232a20.415,20.415,0,0,0,20.415-20.415v-2.941a3.648,3.648,0,0,0-3.677-3.648ZM415.977,387.32l-3.536-4.016H500.18l-3.914,4.016Z" transform="translate(-150.435 -113.104)" fill="url(#linear-gradient)"/>
    <rect id="Rectangle_210" data-name="Rectangle 210" width="338.844" height="210.44" rx="23.26" transform="translate(136.979 57.546)" fill="#535461"/>
    <rect id="Rectangle_211" data-name="Rectangle 211" width="323.864" height="171.917" transform="translate(144.115 88.221)" fill="#f1f1f4"/>
    <circle id="Ellipse_130" data-name="Ellipse 130" cx="2.853" cy="2.853" r="2.853" transform="translate(303.194 70.384)" fill="#fff"/>
    <path id="Path_575" data-name="Path 575" d="M511.715,592.39,500.573,603.8H422.092L412.034,592.39h-159.7a3.566,3.566,0,0,0-3.566,3.566v2.878a19.95,19.95,0,0,0,19.974,19.95H653.978a19.95,19.95,0,0,0,19.95-19.95v-2.878a3.566,3.566,0,0,0-3.565-3.566Z" transform="translate(-155.662 -331.898)" fill="#535461"/>
    <rect id="Rectangle_212" data-name="Rectangle 212" width="88.543" height="66.728" transform="translate(163.896 101.321)" fill="#fff"/>
    <rect id="Rectangle_213" data-name="Rectangle 213" width="29.513" height="16.68" transform="translate(172.557 107.096)" fill="#6c63ff" opacity="0.2"/>
    <rect id="Rectangle_214" data-name="Rectangle 214" width="34.648" height="3.851" transform="translate(209.129 107.096)" fill="#e6e8ec"/>
    <rect id="Rectangle_215" data-name="Rectangle 215" width="24.382" height="3.851" transform="translate(209.129 113.51)" fill="#e6e8ec"/>
    <rect id="Rectangle_216" data-name="Rectangle 216" width="34.648" height="3.851" transform="translate(209.129 119.924)" fill="#e6e8ec"/>
    <rect id="Rectangle_217" data-name="Rectangle 217" width="71.219" height="3.851" transform="translate(172.557 126.343)" fill="#e6e8ec"/>
    <rect id="Rectangle_218" data-name="Rectangle 218" width="71.219" height="3.851" transform="translate(172.557 132.757)" fill="#e6e8ec"/>
    <rect id="Rectangle_219" data-name="Rectangle 219" width="71.219" height="3.851" transform="translate(172.557 139.176)" fill="#e6e8ec"/>
    <rect id="Rectangle_220" data-name="Rectangle 220" width="65.444" height="3.851" transform="translate(172.557 145.59)" fill="#e6e8ec"/>
    <rect id="Rectangle_221" data-name="Rectangle 221" width="71.219" height="3.851" transform="translate(172.557 152.004)" fill="#e6e8ec"/>
    <rect id="Rectangle_222" data-name="Rectangle 222" width="71.219" height="3.851" transform="translate(172.557 158.423)" fill="#e6e8ec"/>
    <rect id="Rectangle_223" data-name="Rectangle 223" width="88.543" height="66.728" transform="translate(261.42 101.321)" fill="#fff"/>
    <rect id="Rectangle_224" data-name="Rectangle 224" width="29.513" height="16.68" transform="translate(270.077 107.096)" fill="#6c63ff" opacity="0.2"/>
    <rect id="Rectangle_225" data-name="Rectangle 225" width="34.648" height="3.851" transform="translate(306.653 107.096)" fill="#e6e8ec"/>
    <rect id="Rectangle_226" data-name="Rectangle 226" width="24.382" height="3.851" transform="translate(306.653 113.51)" fill="#e6e8ec"/>
    <rect id="Rectangle_227" data-name="Rectangle 227" width="34.648" height="3.851" transform="translate(306.653 119.924)" fill="#e6e8ec"/>
    <rect id="Rectangle_228" data-name="Rectangle 228" width="71.219" height="3.851" transform="translate(270.077 126.343)" fill="#e6e8ec"/>
    <rect id="Rectangle_229" data-name="Rectangle 229" width="71.219" height="3.851" transform="translate(270.077 132.757)" fill="#e6e8ec"/>
    <rect id="Rectangle_230" data-name="Rectangle 230" width="71.219" height="3.851" transform="translate(270.077 139.176)" fill="#e6e8ec"/>
    <rect id="Rectangle_231" data-name="Rectangle 231" width="65.444" height="3.851" transform="translate(270.077 145.59)" fill="#e6e8ec"/>
    <rect id="Rectangle_232" data-name="Rectangle 232" width="71.219" height="3.851" transform="translate(270.077 152.004)" fill="#e6e8ec"/>
    <rect id="Rectangle_233" data-name="Rectangle 233" width="71.219" height="3.851" transform="translate(270.077 158.423)" fill="#e6e8ec"/>
    <rect id="Rectangle_234" data-name="Rectangle 234" width="88.543" height="66.728" transform="translate(358.94 101.321)" fill="#fff"/>
    <rect id="Rectangle_235" data-name="Rectangle 235" width="29.513" height="16.68" transform="translate(367.602 107.096)" fill="#6c63ff" opacity="0.2"/>
    <rect id="Rectangle_236" data-name="Rectangle 236" width="34.648" height="3.851" transform="translate(404.173 107.096)" fill="#e6e8ec"/>
    <rect id="Rectangle_237" data-name="Rectangle 237" width="24.382" height="3.851" transform="translate(404.173 113.51)" fill="#e6e8ec"/>
    <rect id="Rectangle_238" data-name="Rectangle 238" width="34.648" height="3.851" transform="translate(404.173 119.924)" fill="#e6e8ec"/>
    <rect id="Rectangle_239" data-name="Rectangle 239" width="71.219" height="3.851" transform="translate(367.602 126.343)" fill="#e6e8ec"/>
    <rect id="Rectangle_240" data-name="Rectangle 240" width="71.219" height="3.851" transform="translate(367.602 132.757)" fill="#e6e8ec"/>
    <rect id="Rectangle_241" data-name="Rectangle 241" width="71.219" height="3.851" transform="translate(367.602 139.176)" fill="#e6e8ec"/>
    <rect id="Rectangle_242" data-name="Rectangle 242" width="65.444" height="3.851" transform="translate(367.602 145.59)" fill="#e6e8ec"/>
    <rect id="Rectangle_243" data-name="Rectangle 243" width="71.219" height="3.851" transform="translate(367.602 152.004)" fill="#e6e8ec"/>
    <rect id="Rectangle_244" data-name="Rectangle 244" width="71.219" height="3.851" transform="translate(367.602 158.423)" fill="#e6e8ec"/>
    <rect id="Rectangle_245" data-name="Rectangle 245" width="88.543" height="66.728" transform="translate(163.896 176.386)" fill="#fff"/>
    <rect id="Rectangle_246" data-name="Rectangle 246" width="29.513" height="16.68" transform="translate(172.557 182.161)" fill="#6c63ff" opacity="0.2"/>
    <rect id="Rectangle_247" data-name="Rectangle 247" width="34.648" height="3.851" transform="translate(209.129 182.161)" fill="#e6e8ec"/>
    <rect id="Rectangle_248" data-name="Rectangle 248" width="24.382" height="3.851" transform="translate(209.129 188.58)" fill="#e6e8ec"/>
    <rect id="Rectangle_249" data-name="Rectangle 249" width="34.648" height="3.851" transform="translate(209.129 194.994)" fill="#e6e8ec"/>
    <rect id="Rectangle_250" data-name="Rectangle 250" width="71.219" height="3.851" transform="translate(172.557 201.408)" fill="#e6e8ec"/>
    <rect id="Rectangle_251" data-name="Rectangle 251" width="71.219" height="3.851" transform="translate(172.557 207.827)" fill="#e6e8ec"/>
    <rect id="Rectangle_252" data-name="Rectangle 252" width="71.219" height="3.851" transform="translate(172.557 214.241)" fill="#e6e8ec"/>
    <rect id="Rectangle_253" data-name="Rectangle 253" width="65.444" height="3.851" transform="translate(172.557 220.66)" fill="#e6e8ec"/>
    <rect id="Rectangle_254" data-name="Rectangle 254" width="71.219" height="3.851" transform="translate(172.557 227.074)" fill="#e6e8ec"/>
    <rect id="Rectangle_255" data-name="Rectangle 255" width="71.219" height="3.851" transform="translate(172.557 233.489)" fill="#e6e8ec"/>
    <rect id="Rectangle_256" data-name="Rectangle 256" width="88.543" height="66.728" transform="translate(261.42 176.386)" fill="#fff"/>
    <rect id="Rectangle_257" data-name="Rectangle 257" width="29.513" height="16.68" transform="translate(270.077 182.161)" fill="#6c63ff" opacity="0.2"/>
    <rect id="Rectangle_258" data-name="Rectangle 258" width="34.648" height="3.851" transform="translate(306.653 182.161)" fill="#e6e8ec"/>
    <rect id="Rectangle_259" data-name="Rectangle 259" width="24.382" height="3.851" transform="translate(306.653 188.58)" fill="#e6e8ec"/>
    <rect id="Rectangle_260" data-name="Rectangle 260" width="34.648" height="3.851" transform="translate(306.653 194.994)" fill="#e6e8ec"/>
    <rect id="Rectangle_261" data-name="Rectangle 261" width="71.219" height="3.851" transform="translate(270.077 201.408)" fill="#e6e8ec"/>
    <rect id="Rectangle_262" data-name="Rectangle 262" width="71.219" height="3.851" transform="translate(270.077 207.827)" fill="#e6e8ec"/>
    <rect id="Rectangle_263" data-name="Rectangle 263" width="71.219" height="3.851" transform="translate(270.077 214.241)" fill="#e6e8ec"/>
    <rect id="Rectangle_264" data-name="Rectangle 264" width="65.444" height="3.851" transform="translate(270.077 220.66)" fill="#e6e8ec"/>
    <rect id="Rectangle_265" data-name="Rectangle 265" width="71.219" height="3.851" transform="translate(270.077 227.074)" fill="#e6e8ec"/>
    <rect id="Rectangle_266" data-name="Rectangle 266" width="71.219" height="3.851" transform="translate(270.077 233.489)" fill="#e6e8ec"/>
    <rect id="Rectangle_267" data-name="Rectangle 267" width="88.543" height="66.728" transform="translate(358.94 176.386)" opacity="0.1"/>
    <path id="Path_576" data-name="Path 576" d="M339.932,310.18H203.318a12.513,12.513,0,0,0-12.538,12.509V511.982a12.513,12.513,0,0,0,12.533,12.5H339.928a12.513,12.513,0,0,0,12.533-12.5V322.688a12.513,12.513,0,0,0-12.528-12.509Z" transform="translate(-125.766 -186.405)" fill="url(#linear-gradient)"/>
    <rect id="Rectangle_268" data-name="Rectangle 268" width="157.834" height="209.806" rx="20" transform="translate(66.943 126.343)" fill="#535461"/>
    <rect id="Rectangle_269" data-name="Rectangle 269" width="141.794" height="170.115" transform="translate(74.96 146.191)" fill="#f1f1f4"/>
    <circle id="Ellipse_131" data-name="Ellipse 131" cx="1.923" cy="1.923" r="1.923" transform="translate(143.292 134.046)" fill="#fff"/>
    <circle id="Ellipse_132" data-name="Ellipse 132" cx="5.775" cy="5.775" r="5.775" transform="translate(139.441 320.108)" fill="#fff"/>
    <rect id="Rectangle_270" data-name="Rectangle 270" width="40.442" height="30.482" transform="translate(81.089 163.573)" fill="#fff"/>
    <rect id="Rectangle_271" data-name="Rectangle 271" width="13.482" height="7.62" transform="translate(85.046 166.213)" fill="#6c63ff" opacity="0.2"/>
    <rect id="Rectangle_272" data-name="Rectangle 272" width="15.827" height="1.759" transform="translate(101.75 166.213)" fill="#e6e8ec"/>
    <rect id="Rectangle_273" data-name="Rectangle 273" width="11.138" height="1.759" transform="translate(101.75 169.144)" fill="#e6e8ec"/>
    <rect id="Rectangle_274" data-name="Rectangle 274" width="15.827" height="1.759" transform="translate(101.75 172.075)" fill="#e6e8ec"/>
    <rect id="Rectangle_275" data-name="Rectangle 275" width="32.531" height="1.759" transform="translate(85.046 175.006)" fill="#e6e8ec"/>
    <rect id="Rectangle_276" data-name="Rectangle 276" width="32.531" height="1.759" transform="translate(85.046 177.937)" fill="#e6e8ec"/>
    <rect id="Rectangle_277" data-name="Rectangle 277" width="32.531" height="1.759" transform="translate(85.046 180.868)" fill="#e6e8ec"/>
    <rect id="Rectangle_278" data-name="Rectangle 278" width="29.895" height="1.759" transform="translate(85.046 183.799)" fill="#e6e8ec"/>
    <rect id="Rectangle_279" data-name="Rectangle 279" width="32.531" height="1.759" transform="translate(85.046 186.729)" fill="#e6e8ec"/>
    <rect id="Rectangle_280" data-name="Rectangle 280" width="32.531" height="1.759" transform="translate(85.046 189.66)" fill="#e6e8ec"/>
    <rect id="Rectangle_281" data-name="Rectangle 281" width="40.442" height="30.482" transform="translate(125.639 163.573)" fill="#fff"/>
    <rect id="Rectangle_282" data-name="Rectangle 282" width="13.482" height="7.62" transform="translate(129.592 166.213)" fill="#6c63ff" opacity="0.2"/>
    <rect id="Rectangle_283" data-name="Rectangle 283" width="15.827" height="1.759" transform="translate(146.3 166.213)" fill="#e6e8ec"/>
    <rect id="Rectangle_284" data-name="Rectangle 284" width="11.138" height="1.759" transform="translate(146.3 169.144)" fill="#e6e8ec"/>
    <rect id="Rectangle_285" data-name="Rectangle 285" width="15.827" height="1.759" transform="translate(146.3 172.075)" fill="#e6e8ec"/>
    <rect id="Rectangle_286" data-name="Rectangle 286" width="32.531" height="1.759" transform="translate(129.592 175.006)" fill="#e6e8ec"/>
    <rect id="Rectangle_287" data-name="Rectangle 287" width="32.531" height="1.759" transform="translate(129.592 177.937)" fill="#e6e8ec"/>
    <rect id="Rectangle_288" data-name="Rectangle 288" width="32.531" height="1.759" transform="translate(129.592 180.868)" fill="#e6e8ec"/>
    <rect id="Rectangle_289" data-name="Rectangle 289" width="29.895" height="1.759" transform="translate(129.592 183.799)" fill="#e6e8ec"/>
    <rect id="Rectangle_290" data-name="Rectangle 290" width="32.531" height="1.759" transform="translate(129.592 186.729)" fill="#e6e8ec"/>
    <rect id="Rectangle_291" data-name="Rectangle 291" width="32.531" height="1.759" transform="translate(129.592 189.66)" fill="#e6e8ec"/>
    <rect id="Rectangle_292" data-name="Rectangle 292" width="40.442" height="30.482" transform="translate(170.184 163.573)" fill="#fff"/>
    <rect id="Rectangle_293" data-name="Rectangle 293" width="13.482" height="7.62" transform="translate(174.142 166.213)" fill="#6c63ff" opacity="0.2"/>
    <rect id="Rectangle_294" data-name="Rectangle 294" width="15.827" height="1.759" transform="translate(190.845 166.213)" fill="#e6e8ec"/>
    <rect id="Rectangle_295" data-name="Rectangle 295" width="11.138" height="1.759" transform="translate(190.845 169.144)" fill="#e6e8ec"/>
    <rect id="Rectangle_296" data-name="Rectangle 296" width="15.827" height="1.759" transform="translate(190.845 172.075)" fill="#e6e8ec"/>
    <rect id="Rectangle_297" data-name="Rectangle 297" width="32.531" height="1.759" transform="translate(174.142 175.006)" fill="#e6e8ec"/>
    <rect id="Rectangle_298" data-name="Rectangle 298" width="32.531" height="1.759" transform="translate(174.142 177.937)" fill="#e6e8ec"/>
    <rect id="Rectangle_299" data-name="Rectangle 299" width="32.531" height="1.759" transform="translate(174.142 180.868)" fill="#e6e8ec"/>
    <rect id="Rectangle_300" data-name="Rectangle 300" width="29.895" height="1.759" transform="translate(174.142 183.799)" fill="#e6e8ec"/>
    <rect id="Rectangle_301" data-name="Rectangle 301" width="32.531" height="1.759" transform="translate(174.142 186.729)" fill="#e6e8ec"/>
    <rect id="Rectangle_302" data-name="Rectangle 302" width="32.531" height="1.759" transform="translate(174.142 189.66)" fill="#e6e8ec"/>
    <rect id="Rectangle_303" data-name="Rectangle 303" width="40.442" height="30.482" transform="translate(81.089 197.862)" fill="#fff"/>
    <rect id="Rectangle_304" data-name="Rectangle 304" width="13.482" height="7.62" transform="translate(85.046 200.502)" fill="#6c63ff" opacity="0.2"/>
    <rect id="Rectangle_305" data-name="Rectangle 305" width="15.827" height="1.759" transform="translate(101.75 200.502)" fill="#e6e8ec"/>
    <rect id="Rectangle_306" data-name="Rectangle 306" width="11.138" height="1.759" transform="translate(101.75 203.433)" fill="#e6e8ec"/>
    <rect id="Rectangle_307" data-name="Rectangle 307" width="15.827" height="1.759" transform="translate(101.75 206.364)" fill="#e6e8ec"/>
    <rect id="Rectangle_308" data-name="Rectangle 308" width="32.531" height="1.759" transform="translate(85.046 209.295)" fill="#e6e8ec"/>
    <rect id="Rectangle_309" data-name="Rectangle 309" width="32.531" height="1.759" transform="translate(85.046 212.226)" fill="#e6e8ec"/>
    <rect id="Rectangle_310" data-name="Rectangle 310" width="32.531" height="1.759" transform="translate(85.046 215.157)" fill="#e6e8ec"/>
    <rect id="Rectangle_311" data-name="Rectangle 311" width="29.895" height="1.759" transform="translate(85.046 218.088)" fill="#e6e8ec"/>
    <rect id="Rectangle_312" data-name="Rectangle 312" width="32.531" height="1.759" transform="translate(85.046 221.019)" fill="#e6e8ec"/>
    <rect id="Rectangle_313" data-name="Rectangle 313" width="32.531" height="1.759" transform="translate(85.046 223.95)" fill="#e6e8ec"/>
    <rect id="Rectangle_314" data-name="Rectangle 314" width="40.442" height="30.482" transform="translate(125.639 197.862)" fill="#fff"/>
    <rect id="Rectangle_315" data-name="Rectangle 315" width="13.482" height="7.62" transform="translate(129.592 200.502)" fill="#6c63ff" opacity="0.2"/>
    <rect id="Rectangle_316" data-name="Rectangle 316" width="15.827" height="1.759" transform="translate(146.3 200.502)" fill="#e6e8ec"/>
    <rect id="Rectangle_317" data-name="Rectangle 317" width="11.138" height="1.759" transform="translate(146.3 203.433)" fill="#e6e8ec"/>
    <rect id="Rectangle_318" data-name="Rectangle 318" width="15.827" height="1.759" transform="translate(146.3 206.364)" fill="#e6e8ec"/>
    <rect id="Rectangle_319" data-name="Rectangle 319" width="32.531" height="1.759" transform="translate(129.592 209.295)" fill="#e6e8ec"/>
    <rect id="Rectangle_320" data-name="Rectangle 320" width="32.531" height="1.759" transform="translate(129.592 212.226)" fill="#e6e8ec"/>
    <rect id="Rectangle_321" data-name="Rectangle 321" width="32.531" height="1.759" transform="translate(129.592 215.157)" fill="#e6e8ec"/>
    <rect id="Rectangle_322" data-name="Rectangle 322" width="29.895" height="1.759" transform="translate(129.592 218.088)" fill="#e6e8ec"/>
    <rect id="Rectangle_323" data-name="Rectangle 323" width="32.531" height="1.759" transform="translate(129.592 221.019)" fill="#e6e8ec"/>
    <rect id="Rectangle_324" data-name="Rectangle 324" width="32.531" height="1.759" transform="translate(129.592 223.95)" fill="#e6e8ec"/>
    <rect id="Rectangle_325" data-name="Rectangle 325" width="40.442" height="30.482" transform="translate(170.184 197.862)" fill="#fff"/>
    <rect id="Rectangle_326" data-name="Rectangle 326" width="13.482" height="7.62" transform="translate(174.142 200.502)" fill="#6c63ff" opacity="0.2"/>
    <rect id="Rectangle_327" data-name="Rectangle 327" width="15.827" height="1.759" transform="translate(190.845 200.502)" fill="#e6e8ec"/>
    <rect id="Rectangle_328" data-name="Rectangle 328" width="11.138" height="1.759" transform="translate(190.845 203.433)" fill="#e6e8ec"/>
    <rect id="Rectangle_329" data-name="Rectangle 329" width="15.827" height="1.759" transform="translate(190.845 206.364)" fill="#e6e8ec"/>
    <rect id="Rectangle_330" data-name="Rectangle 330" width="32.531" height="1.759" transform="translate(174.142 209.295)" fill="#e6e8ec"/>
    <rect id="Rectangle_331" data-name="Rectangle 331" width="32.531" height="1.759" transform="translate(174.142 212.226)" fill="#e6e8ec"/>
    <rect id="Rectangle_332" data-name="Rectangle 332" width="32.531" height="1.759" transform="translate(174.142 215.157)" fill="#e6e8ec"/>
    <rect id="Rectangle_333" data-name="Rectangle 333" width="29.895" height="1.759" transform="translate(174.142 218.088)" fill="#e6e8ec"/>
    <rect id="Rectangle_334" data-name="Rectangle 334" width="32.531" height="1.759" transform="translate(174.142 221.019)" fill="#e6e8ec"/>
    <rect id="Rectangle_335" data-name="Rectangle 335" width="32.531" height="1.759" transform="translate(174.142 223.95)" fill="#e6e8ec"/>
    <rect id="Rectangle_336" data-name="Rectangle 336" width="40.442" height="30.482" transform="translate(81.089 233.508)" fill="#fff"/>
    <rect id="Rectangle_337" data-name="Rectangle 337" width="13.482" height="7.62" transform="translate(85.046 236.148)" fill="#6c63ff" opacity="0.2"/>
    <rect id="Rectangle_338" data-name="Rectangle 338" width="15.827" height="1.759" transform="translate(101.75 236.148)" fill="#e6e8ec"/>
    <rect id="Rectangle_339" data-name="Rectangle 339" width="11.138" height="1.759" transform="translate(101.75 239.079)" fill="#e6e8ec"/>
    <rect id="Rectangle_340" data-name="Rectangle 340" width="15.827" height="1.759" transform="translate(101.75 242.01)" fill="#e6e8ec"/>
    <rect id="Rectangle_341" data-name="Rectangle 341" width="32.531" height="1.759" transform="translate(85.046 244.941)" fill="#e6e8ec"/>
    <rect id="Rectangle_342" data-name="Rectangle 342" width="32.531" height="1.759" transform="translate(85.046 247.872)" fill="#e6e8ec"/>
    <rect id="Rectangle_343" data-name="Rectangle 343" width="32.531" height="1.759" transform="translate(85.046 250.803)" fill="#e6e8ec"/>
    <rect id="Rectangle_344" data-name="Rectangle 344" width="29.895" height="1.759" transform="translate(85.046 253.734)" fill="#e6e8ec"/>
    <rect id="Rectangle_345" data-name="Rectangle 345" width="32.531" height="1.759" transform="translate(85.046 256.665)" fill="#e6e8ec"/>
    <rect id="Rectangle_346" data-name="Rectangle 346" width="32.531" height="1.759" transform="translate(85.046 259.596)" fill="#e6e8ec"/>
    <rect id="Rectangle_347" data-name="Rectangle 347" width="40.442" height="30.482" transform="translate(125.639 233.508)" fill="#fff"/>
    <rect id="Rectangle_348" data-name="Rectangle 348" width="13.482" height="7.62" transform="translate(129.592 236.148)" fill="#6c63ff" opacity="0.2"/>
    <rect id="Rectangle_349" data-name="Rectangle 349" width="15.827" height="1.759" transform="translate(146.3 236.148)" fill="#e6e8ec"/>
    <rect id="Rectangle_350" data-name="Rectangle 350" width="11.138" height="1.759" transform="translate(146.3 239.079)" fill="#e6e8ec"/>
    <rect id="Rectangle_351" data-name="Rectangle 351" width="15.827" height="1.759" transform="translate(146.3 242.01)" fill="#e6e8ec"/>
    <rect id="Rectangle_352" data-name="Rectangle 352" width="32.531" height="1.759" transform="translate(129.592 244.941)" fill="#e6e8ec"/>
    <rect id="Rectangle_353" data-name="Rectangle 353" width="32.531" height="1.759" transform="translate(129.592 247.872)" fill="#e6e8ec"/>
    <rect id="Rectangle_354" data-name="Rectangle 354" width="32.531" height="1.759" transform="translate(129.592 250.803)" fill="#e6e8ec"/>
    <rect id="Rectangle_355" data-name="Rectangle 355" width="29.895" height="1.759" transform="translate(129.592 253.734)" fill="#e6e8ec"/>
    <rect id="Rectangle_356" data-name="Rectangle 356" width="32.531" height="1.759" transform="translate(129.592 256.665)" fill="#e6e8ec"/>
    <rect id="Rectangle_357" data-name="Rectangle 357" width="32.531" height="1.759" transform="translate(129.592 259.596)" fill="#e6e8ec"/>
    <rect id="Rectangle_358" data-name="Rectangle 358" width="40.442" height="30.482" transform="translate(170.184 233.508)" fill="#fff"/>
    <rect id="Rectangle_359" data-name="Rectangle 359" width="13.482" height="7.62" transform="translate(174.142 236.148)" fill="#6c63ff" opacity="0.2"/>
    <rect id="Rectangle_360" data-name="Rectangle 360" width="15.827" height="1.759" transform="translate(190.845 236.148)" fill="#e6e8ec"/>
    <rect id="Rectangle_361" data-name="Rectangle 361" width="11.138" height="1.759" transform="translate(190.845 239.079)" fill="#e6e8ec"/>
    <rect id="Rectangle_362" data-name="Rectangle 362" width="15.827" height="1.759" transform="translate(190.845 242.01)" fill="#e6e8ec"/>
    <rect id="Rectangle_363" data-name="Rectangle 363" width="32.531" height="1.759" transform="translate(174.142 244.941)" fill="#e6e8ec"/>
    <rect id="Rectangle_364" data-name="Rectangle 364" width="32.531" height="1.759" transform="translate(174.142 247.872)" fill="#e6e8ec"/>
    <rect id="Rectangle_365" data-name="Rectangle 365" width="32.531" height="1.759" transform="translate(174.142 250.803)" fill="#e6e8ec"/>
    <rect id="Rectangle_366" data-name="Rectangle 366" width="29.895" height="1.759" transform="translate(174.142 253.734)" fill="#e6e8ec"/>
    <rect id="Rectangle_367" data-name="Rectangle 367" width="32.531" height="1.759" transform="translate(174.142 256.665)" fill="#e6e8ec"/>
    <rect id="Rectangle_368" data-name="Rectangle 368" width="32.531" height="1.759" transform="translate(174.142 259.596)" fill="#e6e8ec"/>
    <rect id="Rectangle_369" data-name="Rectangle 369" width="40.442" height="30.482" transform="translate(81.089 267.797)" fill="#fff"/>
    <rect id="Rectangle_370" data-name="Rectangle 370" width="13.482" height="7.62" transform="translate(85.046 270.438)" fill="#6c63ff" opacity="0.2"/>
    <rect id="Rectangle_371" data-name="Rectangle 371" width="15.827" height="1.759" transform="translate(101.75 270.438)" fill="#e6e8ec"/>
    <rect id="Rectangle_372" data-name="Rectangle 372" width="11.138" height="1.759" transform="translate(101.75 273.368)" fill="#e6e8ec"/>
    <rect id="Rectangle_373" data-name="Rectangle 373" width="15.827" height="1.759" transform="translate(101.75 276.299)" fill="#e6e8ec"/>
    <rect id="Rectangle_374" data-name="Rectangle 374" width="32.531" height="1.759" transform="translate(85.046 279.23)" fill="#e6e8ec"/>
    <rect id="Rectangle_375" data-name="Rectangle 375" width="32.531" height="1.759" transform="translate(85.046 282.161)" fill="#e6e8ec"/>
    <rect id="Rectangle_376" data-name="Rectangle 376" width="32.531" height="1.759" transform="translate(85.046 285.092)" fill="#e6e8ec"/>
    <rect id="Rectangle_377" data-name="Rectangle 377" width="29.895" height="1.759" transform="translate(85.046 288.023)" fill="#e6e8ec"/>
    <rect id="Rectangle_378" data-name="Rectangle 378" width="32.531" height="1.759" transform="translate(85.046 290.954)" fill="#e6e8ec"/>
    <rect id="Rectangle_379" data-name="Rectangle 379" width="32.531" height="1.759" transform="translate(85.046 293.885)" fill="#e6e8ec"/>
    <rect id="Rectangle_380" data-name="Rectangle 380" width="40.442" height="30.482" transform="translate(125.639 267.797)" fill="#fff"/>
    <rect id="Rectangle_381" data-name="Rectangle 381" width="13.482" height="7.62" transform="translate(129.592 270.438)" fill="#6c63ff" opacity="0.2"/>
    <rect id="Rectangle_382" data-name="Rectangle 382" width="15.827" height="1.759" transform="translate(146.3 270.438)" fill="#e6e8ec"/>
    <rect id="Rectangle_383" data-name="Rectangle 383" width="11.138" height="1.759" transform="translate(146.3 273.368)" fill="#e6e8ec"/>
    <rect id="Rectangle_384" data-name="Rectangle 384" width="15.827" height="1.759" transform="translate(146.3 276.299)" fill="#e6e8ec"/>
    <rect id="Rectangle_385" data-name="Rectangle 385" width="32.531" height="1.759" transform="translate(129.592 279.23)" fill="#e6e8ec"/>
    <rect id="Rectangle_386" data-name="Rectangle 386" width="32.531" height="1.759" transform="translate(129.592 282.161)" fill="#e6e8ec"/>
    <rect id="Rectangle_387" data-name="Rectangle 387" width="32.531" height="1.759" transform="translate(129.592 285.092)" fill="#e6e8ec"/>
    <rect id="Rectangle_388" data-name="Rectangle 388" width="29.895" height="1.759" transform="translate(129.592 288.023)" fill="#e6e8ec"/>
    <rect id="Rectangle_389" data-name="Rectangle 389" width="32.531" height="1.759" transform="translate(129.592 290.954)" fill="#e6e8ec"/>
    <rect id="Rectangle_390" data-name="Rectangle 390" width="32.531" height="1.759" transform="translate(129.592 293.885)" fill="#e6e8ec"/>
    <rect id="Rectangle_391" data-name="Rectangle 391" width="40.442" height="30.482" transform="translate(170.184 267.797)" opacity="0.1"/>
    <path id="Path_577" data-name="Path 577" d="M201.66,442.62H131.512a6.937,6.937,0,0,0-6.952,6.923V603.157a6.937,6.937,0,0,0,6.952,6.923H201.66a6.937,6.937,0,0,0,6.952-6.923V449.548a6.937,6.937,0,0,0-6.952-6.928Z" transform="translate(-91.626 -254.684)" fill="url(#linear-gradient)"/>
    <rect id="Rectangle_392" data-name="Rectangle 392" width="82.768" height="165.537" rx="11" transform="translate(33.579 189.224)" fill="#535461"/>
    <rect id="Rectangle_393" data-name="Rectangle 393" width="70.575" height="134.735" transform="translate(39.673 204.62)" fill="#f1f1f4"/>
    <circle id="Ellipse_133" data-name="Ellipse 133" cx="0.639" cy="0.639" r="0.639" transform="translate(65.979 196.283)" fill="#fff"/>
    <rect id="Rectangle_394" data-name="Rectangle 394" width="14.117" height="1.284" rx="0.642" transform="translate(69.83 196.278)" fill="#fff"/>
    <circle id="Ellipse_134" data-name="Ellipse 134" cx="4.491" cy="4.491" r="4.491" transform="translate(70.15 341.283)" fill="#fff"/>
    <rect id="Rectangle_395" data-name="Rectangle 395" width="48.125" height="36.271" transform="translate(50.898 212.686)" opacity="0.1"/>
    <rect id="Rectangle_396" data-name="Rectangle 396" width="48.125" height="36.271" transform="translate(50.898 253.492)" fill="#fff"/>
    <rect id="Rectangle_397" data-name="Rectangle 397" width="16.04" height="9.069" transform="translate(55.606 256.631)" fill="#6c63ff" opacity="0.2"/>
    <rect id="Rectangle_398" data-name="Rectangle 398" width="18.831" height="2.093" transform="translate(75.483 256.631)" fill="#e6e8ec"/>
    <rect id="Rectangle_399" data-name="Rectangle 399" width="13.255" height="2.093" transform="translate(75.483 260.119)" fill="#e6e8ec"/>
    <rect id="Rectangle_400" data-name="Rectangle 400" width="18.831" height="2.093" transform="translate(75.483 263.602)" fill="#e6e8ec"/>
    <rect id="Rectangle_401" data-name="Rectangle 401" width="38.712" height="2.093" transform="translate(55.606 267.09)" fill="#e6e8ec"/>
    <rect id="Rectangle_402" data-name="Rectangle 402" width="38.712" height="2.093" transform="translate(55.606 270.578)" fill="#e6e8ec"/>
    <rect id="Rectangle_403" data-name="Rectangle 403" width="38.712" height="2.093" transform="translate(55.606 274.066)" fill="#e6e8ec"/>
    <rect id="Rectangle_404" data-name="Rectangle 404" width="35.573" height="2.093" transform="translate(55.606 277.554)" fill="#e6e8ec"/>
    <rect id="Rectangle_405" data-name="Rectangle 405" width="38.712" height="2.093" transform="translate(55.606 281.042)" fill="#e6e8ec"/>
    <rect id="Rectangle_406" data-name="Rectangle 406" width="38.712" height="2.093" transform="translate(55.606 284.53)" fill="#e6e8ec"/>
    <rect id="Rectangle_407" data-name="Rectangle 407" width="48.125" height="36.271" transform="translate(50.898 294.379)" fill="#fff"/>
    <rect id="Rectangle_408" data-name="Rectangle 408" width="16.04" height="9.069" transform="translate(55.606 297.518)" fill="#6c63ff" opacity="0.2"/>
    <rect id="Rectangle_409" data-name="Rectangle 409" width="18.831" height="2.093" transform="translate(75.483 297.518)" fill="#e6e8ec"/>
    <rect id="Rectangle_410" data-name="Rectangle 410" width="13.255" height="2.093" transform="translate(75.483 301.006)" fill="#e6e8ec"/>
    <rect id="Rectangle_411" data-name="Rectangle 411" width="18.831" height="2.093" transform="translate(75.483 304.494)" fill="#e6e8ec"/>
    <rect id="Rectangle_412" data-name="Rectangle 412" width="38.712" height="2.093" transform="translate(55.606 307.982)" fill="#e6e8ec"/>
    <rect id="Rectangle_413" data-name="Rectangle 413" width="38.712" height="2.093" transform="translate(55.606 311.47)" fill="#e6e8ec"/>
    <rect id="Rectangle_414" data-name="Rectangle 414" width="38.712" height="2.093" transform="translate(55.606 314.958)" fill="#e6e8ec"/>
    <rect id="Rectangle_415" data-name="Rectangle 415" width="35.573" height="2.093" transform="translate(55.606 318.447)" fill="#e6e8ec"/>
    <rect id="Rectangle_416" data-name="Rectangle 416" width="38.712" height="2.093" transform="translate(55.606 321.93)" fill="#e6e8ec"/>
    <rect id="Rectangle_417" data-name="Rectangle 417" width="38.712" height="2.093" transform="translate(55.606 325.418)" fill="#e6e8ec"/>
    <path id="Path_578" data-name="Path 578" d="M457.964,650.26c-3.255-3.948-7.2-8.488-6.647-13.744.446-4.258-.625-8.192-.412-12.46.3-6.065-.925-10.818-5.3-14.708-2.553-2.272-6.821-4.06-8.09-3.6-2.519.9-5.266.557-7.858,1.163a7.956,7.956,0,0,0-4.089,2.054c-1.633,1.453-1.662,3.517-.916,5.721a9.66,9.66,0,0,0,4.786,13.565c-1.817.756-3.391,2.5-4,6.051a41.378,41.378,0,0,1-1.938,7.151,11.6,11.6,0,0,1-1.182.484c.087.034.179.058.271.092-.189.073-.383.145-.572.213a6.237,6.237,0,0,0,1.075.31,41.1,41.1,0,0,1-5.28,9.626s-5.484,1.211-7.616-.906c0,0,.349.407.819,1.017-2.088-.867-5.508-2.277-8.434-3.44-2.122-.843-2.669,0-2.64,1.172a3.922,3.922,0,0,0-1.482.485,14.3,14.3,0,0,0-1.967-1.056c-1.221-.3-5.179-2.422-9.142,4.845-2.306,4.229-8.236,11.942-12.765,17.653-8.841,4.065-20.347,9.2-24.62,10.508h-2.732c-.359-.586-.61-.969-.61-.969l-.213.14-.092-.14s-5.382,3.725-10.847,3.755a10.294,10.294,0,0,1-2.306-.3,22.61,22.61,0,0,0-5.547-.891,3.272,3.272,0,0,0-2.873,1h0a2.652,2.652,0,0,0-.189.276h0a3.246,3.246,0,0,0-.16.305h0c-.048.107-.092.218-.136.334a.683.683,0,0,0,.17.572,3.076,3.076,0,0,0,.237.3l.15.165a24.218,24.218,0,0,0,3.5,2.708c.451.305.925.615,1.424.935l.945.6.843.528.339.208.378.233.673.412.4.242.756.451.61.363c1.6.969,3.2,1.86,4.631,2.669l1.008.567.1.053.644.358,1.119.62.77.422.358.2.388.208.078.044.669.363a.969.969,0,0,0,.78-.213c.194-.824.669-2.587,1.172-2.723s2.7-3.992,3.328-6.559h5.944a26.208,26.208,0,0,0,3.474-.528c-1.536,1.095-3.057,1.783-4.239,1.487-2.5-.62-4.869.9-5.106,2.422l-.029.092v.7a.2.2,0,0,0,.029.121c.029.039,0,.053,0,.078a1.438,1.438,0,0,0,.063.155v.039a1.6,1.6,0,0,0,.111.184l.048.063.1.121.068.068.111.106.082.068.131.1.1.063.16.092.107.058.2.092.1.044c.107.044.218.087.339.126s.417.126.673.189l.257.063.373.087.2.044.814.165.4.073.325.058.746.131,1.453.237,1.284.194,1.671.237.368.048.6.082.862.116.591.078h0l1.526.194.484.058.969.116c1.264.15,2.49.3,3.614.422l1.3.145.659.073.281.029.79.087.441.048.538.058.761.078h.082l.484.048h0a.441.441,0,0,0,.484-.431h0v-.048a.431.431,0,0,0,.073-.233,10.005,10.005,0,0,1,.271-2.151c.034-.121.073-.247.111-.368l.048-.141c.053-.15.107-.3.17-.455a3.275,3.275,0,0,0,.111-.334l.029-.107a.913.913,0,0,1,.044-.184c.615-2.093-.126-5.993-.339-7.524a8.167,8.167,0,0,0-.334-1.453.6.6,0,0,0,.116,0,3.472,3.472,0,0,0,.882-.484c4.491-1.6,8.284-3.435,9.481-5.271a8.207,8.207,0,0,1,5.813.606c2.325,1.158,19.925,6.9,28.122,9.553,1.453,1.269,2.626,2.01,3.26,1.938,0,0,10.43,1.686,14.626-1.608.373.257.606.4.606.4s6.094-3.028,7.01-6.962c.3-1.274.562-3.159.833-5.242a7.62,7.62,0,0,0,2.214-5.358c.189-6.613,2.752-14.165,4.651-20.895,2.306.179,3.2-.252,5.329-1.3l-.092-.121Zm-34.939,9.9-1.163-.392a9.7,9.7,0,0,0,1.013-1.686Zm-6.559,2.781,7.063,4.239.063.862a6.187,6.187,0,0,0,.058,1.972c-3.11-2.766-6.753-6.123-7.18-7.073Zm-2.883-6.172c-.77-.32-1.41-.606-1.846-.843l1.637.1a3.658,3.658,0,0,1,.213.741Zm-18.894,6.9s1.221-2.723,3.963,1.817c.426.707,1.211,1.826,2.248,3.222l-7.974-1.071a11.625,11.625,0,0,0,1.754-3.968Z" transform="translate(-194.582 -338.746)" fill="url(#linear-gradient-4)"/>
    <path id="Path_579" data-name="Path 579" d="M492.495,698.077s-5.591-2.354-10-4.118-1.763,4.118-1.763,4.118,7.354,2.059,7.354,2.354,6.177.586,6.177.586Z" transform="translate(-274.845 -384.092)" fill="#f7c4a7"/>
    <path id="Path_580" data-name="Path 580" d="M492.495,698.077s-5.591-2.354-10-4.118-1.763,4.118-1.763,4.118,7.354,2.059,7.354,2.354,6.177.586,6.177.586Z" transform="translate(-274.845 -384.092)" opacity="0.05"/>
    <path id="Path_581" data-name="Path 581" d="M526.841,653.4s-10-5.3-11.767,5a42.027,42.027,0,0,1-7.339,17.358s-5.3,1.177-7.354-.882c0,0,5,5.881,2.645,6.472,0,0,5.3,3.822,7.649,2.645s4.118-9.117,5-11.176S519.792,652.81,526.841,653.4Z" transform="translate(-285.38 -362.651)" fill="#575988"/>
    <path id="Path_582" data-name="Path 582" d="M526.841,653.4s-10-5.3-11.767,5a42.027,42.027,0,0,1-7.339,17.358s-5.3,1.177-7.354-.882c0,0,5,5.881,2.645,6.472,0,0,5.3,3.822,7.649,2.645s4.118-9.117,5-11.176S519.792,652.81,526.841,653.4Z" transform="translate(-285.38 -362.651)" opacity="0.1"/>
    <path id="Path_583" data-name="Path 583" d="M543.49,639.385s6.177,7.058,6.472,12.94,7.058-6.177,7.649-6.472-5.886-10.29-6.477-13.521S543.49,639.385,543.49,639.385Z" transform="translate(-307.605 -352.166)" fill="#f7c4a7"/>
    <path id="Path_584" data-name="Path 584" d="M491.555,598.67,487.66,602.2l1.836,7.427,5-4.7-.586-4.7Z" transform="translate(-251.407 -308.433)" fill="#f7c4a7"/>
    <path id="Path_585" data-name="Path 585" d="M320.633,706.59H313.87l2.645,6.467,6.472-1.763Z" transform="translate(-161.81 -364.071)" fill="#f7c4a7"/>
    <path id="Path_586" data-name="Path 586" d="M351,759.78s-7,4.878-12.988,3.357-7.611-.969-8.308,1.013c-.644,1.8,16.718,11.341,19.485,12.848a.315.315,0,0,0,.484-.208c.189-.8.644-2.514,1.129-2.645.635-.169,3.536-5.581,3.391-7.717S351,759.78,351,759.78Z" transform="translate(-197.377 -418.196)" opacity="0.1"/>
    <path id="Path_587" data-name="Path 587" d="M350.4,759.78s-7,4.878-12.988,3.357-7.611-.969-8.308,1.013c-.644,1.8,16.718,11.341,19.485,12.848a.315.315,0,0,0,.484-.208c.189-.8.644-2.514,1.129-2.645.635-.169,3.536-5.581,3.391-7.717S350.4,759.78,350.4,759.78Z" transform="translate(-197.068 -418.196)" fill="#f3b5b7"/>
    <path id="Path_588" data-name="Path 588" d="M433.331,732.785l-19.707-2.645s-32.061,15.294-35.883,15.59l.882,6.782H384.5c2.354,0,25.293-5,28.529-10a7.877,7.877,0,0,1,5.591.586c2.941,1.453,31.179,10.59,31.179,10.59Z" transform="translate(-222.153 -402.915)" fill="#575988"/>
    <path id="Path_589" data-name="Path 589" d="M433.331,732.785l-19.707-2.645s-32.061,15.294-35.883,15.59l.882,6.782H384.5c2.354,0,25.293-5,28.529-10a7.877,7.877,0,0,1,5.591.586c2.941,1.453,31.179,10.59,31.179,10.59Z" transform="translate(-222.153 -402.915)" opacity="0.1"/>
    <path id="Path_590" data-name="Path 590" d="M360.206,699.3l-3.236,4.118,3.236,1.763,4.709-3.527Z" transform="translate(-184.03 -360.313)" fill="#f7c4a7"/>
    <path id="Path_591" data-name="Path 591" d="M475.185,718.813s-10.58-9.059-11.322-10.706-18.089-12.819-19.267-13.114-5-2.354-8.822,4.7-17.925,24.116-17.925,24.116,4.413,6.177,5.881,5.881,17.925-14.117,19.116-20.885c0,0,1.177-2.645,3.822,1.763s19.707,25.589,22.944,25.293c0,0,12.649,2.059,15.294-2.941S475.185,718.813,475.185,718.813Z" transform="translate(-242.832 -384.535)" fill="#575988"/>
    <rect id="Rectangle_418" data-name="Rectangle 418" width="44.041" height="33.19" transform="translate(185.342 286.793)" fill="url(#linear-gradient-5)"/>
    <rect id="Rectangle_419" data-name="Rectangle 419" width="40.442" height="30.482" transform="translate(187.139 288.144)" fill="#fff"/>
    <rect id="Rectangle_420" data-name="Rectangle 420" width="13.482" height="7.62" transform="translate(191.097 290.784)" fill="#6c63ff" opacity="0.2"/>
    <rect id="Rectangle_421" data-name="Rectangle 421" width="15.827" height="1.759" transform="translate(207.801 290.784)" fill="#e6e8ec"/>
    <rect id="Rectangle_422" data-name="Rectangle 422" width="11.138" height="1.759" transform="translate(207.801 293.715)" fill="#e6e8ec"/>
    <rect id="Rectangle_423" data-name="Rectangle 423" width="15.827" height="1.759" transform="translate(207.801 296.646)" fill="#e6e8ec"/>
    <rect id="Rectangle_424" data-name="Rectangle 424" width="32.531" height="1.759" transform="translate(191.097 299.577)" fill="#e6e8ec"/>
    <rect id="Rectangle_425" data-name="Rectangle 425" width="32.531" height="1.759" transform="translate(191.097 302.508)" fill="#e6e8ec"/>
    <rect id="Rectangle_426" data-name="Rectangle 426" width="32.531" height="1.759" transform="translate(191.097 305.439)" fill="#e6e8ec"/>
    <rect id="Rectangle_427" data-name="Rectangle 427" width="29.895" height="1.759" transform="translate(191.097 308.37)" fill="#e6e8ec"/>
    <rect id="Rectangle_428" data-name="Rectangle 428" width="32.531" height="1.759" transform="translate(191.097 311.301)" fill="#e6e8ec"/>
    <rect id="Rectangle_429" data-name="Rectangle 429" width="32.531" height="1.759" transform="translate(191.097 314.232)" fill="#e6e8ec"/>
    <path id="Path_592" data-name="Path 592" d="M537.2,655.27s-3.677,1.618-3.972,8.381-6.782,18.235-6.782,18.235l.586,13.531s7.058,7.058,7.649,11.472,5.6,7.354,5.6,7.354,5.881-2.941,6.782-6.782,1.453-13.235,2.941-16.767.586-25.589.586-25.589l-4.413-7.649-2.354-2.645-6.177,7.058S534.264,657.324,537.2,655.27Z" transform="translate(-298.82 -364.079)" fill="#f3b5b7"/>
    <path id="Path_593" data-name="Path 593" d="M527.92,691.431s-.882-10.59,1.763-12.94l5.3-15.018s1.914-7.2,1.618-7.795-6.913,5.736-6.913,5.736L525.27,677l1.177,16.471Z" transform="translate(-298.212 -364.506)" opacity="0.1"/>
    <path id="Path_594" data-name="Path 594" d="M527.31,691.278s-.882-10.59,1.763-12.94l5.3-15.018s2.059-7.354,1.763-7.94-7.058,5.881-7.058,5.881l-4.413,15.59,1.177,16.471Z" transform="translate(-297.897 -364.353)" fill="#575988"/>
    <path id="Path_595" data-name="Path 595" d="M502.912,707.829s-14.718-4.7-15.59-5.881-10.295-8.822-13.531-3.532S485.85,705.2,485.85,705.2l15.59,9.413Z" transform="translate(-271.44 -385.608)" fill="#f7c4a7"/>
    <path id="Path_596" data-name="Path 596" d="M400.1,762.025l-4.36-.785s-7.131,9.132-10.842,8.207-7.131,3.071-3.207,4.36c3.546,1.158,18.85,2.781,21.776,3.081a.426.426,0,0,0,.484-.417,9.364,9.364,0,0,1,.649-3.314c.785-1.938,0-6.065-.218-7.635a7.6,7.6,0,0,0-.857-2.64Z" transform="translate(-223.294 -418.949)" opacity="0.1"/>
    <path id="Path_597" data-name="Path 597" d="M399.944,762.615l-4.36-.785s-7.121,9.137-10.857,8.207-7.131,3.071-3.207,4.36c3.546,1.158,18.85,2.781,21.776,3.081a.426.426,0,0,0,.484-.417,9.366,9.366,0,0,1,.649-3.314c.785-1.938,0-6.065-.218-7.635a7.594,7.594,0,0,0-.857-2.64Z" transform="translate(-223.201 -419.253)" fill="#f3b5b7"/>
    <circle id="Ellipse_135" data-name="Ellipse 135" cx="9.413" cy="9.413" r="9.413" transform="translate(228.676 271.779)" opacity="0.1"/>
    <circle id="Ellipse_136" data-name="Ellipse 136" cx="9.413" cy="9.413" r="9.413" transform="translate(227.794 271.779)" fill="#f7c4a7"/>
    <path id="Path_598" data-name="Path 598" d="M551.7,654.24s11.176,3.822,11.176,11.767-6.177,20.589-6.472,30.884-16.471,8.822-16.471,8.822-2.354-34.706,0-37.356S552.881,655.417,551.7,654.24Z" transform="translate(-305.234 -363.785)" fill="#575988"/>
    <path id="Path_599" data-name="Path 599" d="M543.477,680.028s-4.118,18.235-13.826,15.018c0,0-5,7.354-1.453,10.59,0,0,8.531,2.059,14.117-3.532s9.694-7.659,10.576-14.441,1.453-16.176-1.453-15.294S543.477,680.028,543.477,680.028Z" transform="translate(-299.066 -373.101)" opacity="0.1"/>
    <path id="Path_600" data-name="Path 600" d="M544.087,679.449s-4.118,18.235-13.826,15.018c0,0-5,7.354-1.453,10.59,0,0,8.531,2.059,14.117-3.532s9.689-7.649,10.59-14.412,1.453-16.176-1.453-15.294S544.087,679.449,544.087,679.449Z" transform="translate(-299.38 -372.818)" fill="#575988"/>
    <path id="Path_601" data-name="Path 601" d="M430.644,784.48a.093.093,0,0,1-.029.082,8.609,8.609,0,0,0-.484,1.555,5.736,5.736,0,0,1,.247-.7,4.265,4.265,0,0,0,.266-.935Z" transform="translate(-249.162 -430.93)" fill="#dddbe2"/>
    <path id="Path_602" data-name="Path 602" d="M381.8,784.149c-1.211-.4-1.72-1.051-1.739-1.739-.484.969-.184,2.035,1.526,2.6,3.546,1.158,18.855,2.781,21.776,3.081a.426.426,0,0,0,.484-.422h0a.431.431,0,0,0-.383-.436C400.24,786.881,385.295,785.288,381.8,784.149Z" transform="translate(-223.24 -429.863)" fill="#dddbe2"/>
    <path id="Path_603" data-name="Path 603" d="M329.5,767.065a3.623,3.623,0,0,1,.286-.625,2.868,2.868,0,0,0-.693,1.143c-.644,1.8,16.718,11.336,19.485,12.848a.32.32,0,0,0,.484-.208h0a.32.32,0,0,0-.155-.354C345.834,778.193,328.859,768.848,329.5,767.065Z" transform="translate(-197.063 -421.63)" fill="#dddbe2"/>
    <path id="Path_604" data-name="Path 604" d="M372.981,788.21c-.155.044-.31.247-.451.538h.048c.126-.034.349-.286.62-.678a.571.571,0,0,1-.218.14Z" transform="translate(-219.467 -432.781)" fill="#dddbe2"/>
    <path id="Path_605" data-name="Path 605" d="M533.425,629.6c-.828,1.826-1,3.876-1.613,5.813a12.775,12.775,0,0,1-7.872,8.168c3.057,1.221,6.661-.271,9.025-2.742s3.745-5.76,5.072-8.957c3.43,2.306,3.013,7.606,4.161,11.733a13.012,13.012,0,0,0,6.928,8.279,12.4,12.4,0,0,0,10.609-.213c-3.144-3.837-7.62-9.1-7.087-14.2.431-4.137-2.539-7.3-2.33-11.443.291-5.891-1.938-8.87-6.177-12.649-2.466-2.209,1.415-5.329-1.763-4.413-1.25.359-2.568-.969-3.793-.538-2.422.872-5.082.543-7.582,1.129C518.005,612.608,534.627,626.934,533.425,629.6Z" transform="translate(-297.526 -340.126)" opacity="0.1"/>
    <path id="Path_606" data-name="Path 606" d="M534.035,628.9c-.828,1.826-1,3.876-1.613,5.813a12.775,12.775,0,0,1-7.872,8.168c3.057,1.221,6.661-.271,9.025-2.742s3.745-5.76,5.072-8.957c3.43,2.306,3.013,7.606,4.161,11.733a13.013,13.013,0,0,0,6.928,8.279,12.4,12.4,0,0,0,10.609-.213c-3.144-3.837-7.325-8.236-6.782-13.322.431-4.137-.213-8.386,0-12.533a19.8,19.8,0,0,0-6.811-15.343,9.255,9.255,0,0,0-7.543-2.049c-2.422.872-5.082.543-7.582,1.129C518.615,611.908,535.247,626.229,534.035,628.9Z" transform="translate(-297.841 -339.717)" fill="#b96b6b"/>
    <path id="Path_607" data-name="Path 607" d="M211.3,619.4c16.956-5.218,26.964-4.786,26.964-4.786l-1.39-7.882a5.963,5.963,0,0,0,1.172-1.032s-1.739-9.568,0-11.961,6.526-24.135,6.526-24.135v-7.4c8.72-3.042,18.918-20.657,18.918-20.657L276.319,574.6s12.828,25.443,14.567,26.31c1.39.693,2.083,6.385,2.311,8.647l-.107.034c.053.547.077.887.077.887l.1-.068v.068a4.994,4.994,0,0,1,.678-.4,112.09,112.09,0,0,1-9.374,9.747c-1.72,1.507,1.366,2.669,2.81,2.645a7.083,7.083,0,0,1,2.422.344c7.31,2.524,19.33-6.69,19.33-6.69l-3.008-8.391c.785-.063,1.269-.092,1.269-.092s-9.786-34.357-14.354-37.622a20.829,20.829,0,0,1-3.876-3.672,13.564,13.564,0,0,1-3.067-9.418l1.6-28.19c2.577-.378,4.239-.693,4.239-.693s.6-7.7.581-13.613c0-3.076-.126-5.775-.581-6.831a19.539,19.539,0,0,1-.717-6.259c0-3.391.281-6.569.281-6.569s3.478-4.568,8.265-15.018a25.054,25.054,0,0,0,2.606-10.842,14.789,14.789,0,0,0-.349-3.614,4.529,4.529,0,0,0-2.049-2.844c-2.752-1.686-9.016-5.847-10.861-9.878-2.345-5.116-5.731-5.842-5.867-5.872l-.208-.9a8.454,8.454,0,0,0,2.723-4.128c.707-2.18.853-4.505,1.453-6.719.291-1.066.693-2.1.969-3.163a12.5,12.5,0,0,0,.392-3.285,10.173,10.173,0,0,0-.969-4.675,7.843,7.843,0,0,0-5.91-4.428c-1.4-.165-2.96.077-4.113-.741-.795-.567-1.211-1.531-1.938-2.2-1.381-1.308-3.59-1.24-5.387-.63a11.477,11.477,0,0,0-5.891,4.588,23.958,23.958,0,0,1-2.5,3.876,36.69,36.69,0,0,1-3.091,2.34,6.3,6.3,0,0,0-2.422,4.845v.436a4.31,4.31,0,0,0,3.183,4.108,4.7,4.7,0,0,0,1.453.039,11.743,11.743,0,0,0,8.715,14.514c-.029.155-.063.31-.1.484h.1a16.784,16.784,0,0,1-.785,2.209h-.141l.354-.63-4.99-.344a8.361,8.361,0,0,0-4.224.79,6.37,6.37,0,0,0-3.832,5.426C255.662,464.142,245,472.62,245,472.62c-3.7,5.872-27.837,6.957-27.837,6.957s.107.136.155.208l-.484-.092-1.826-.334s-5.654-16.743-11.089-13.7,9.35,19.572,9.35,19.572l4.273.286.431.029a26.1,26.1,0,0,1-.673,3.212h0c-.058.213-.1.349-.111.383h0a180.155,180.155,0,0,1,20.788-1.09h.862l.61-.029c.484,5.247,7.964,15.909,7.964,15.909l4.617.969.349.073a38.6,38.6,0,0,1-5.62,8.521l-1.521,8.483.121-.029-.121.683a1.643,1.643,0,0,0,.7-.368c-2.979,7.906-7.921,20.211-11.356,24.5-5.218,6.526-4.568,16.956-4.568,16.956s-5.218,27.4-5,32.4a12.886,12.886,0,0,1-1.885,6.845,22.635,22.635,0,0,0-2.684,3.813c-3.914,6.743-10.222,6.3-10.222,6.3C204.794,616.574,211.3,619.4,211.3,619.4Zm33.587-132.638h0l.562-.223.131-.053.538-.233.092-.044.484-.223.107-.048.514-.257.121-.063.484-.257h.039l.484-.281.116-.068.484-.281.078-.048.421-.257.1-.058.451-.286.1-.068.417-.276.039-.024.426-.3.1-.068.407-.291.063-.044.358-.262.077-.058.373-.286.078-.058.339-.266h.029l.344-.276.073-.058.325-.266.029-.024.291-.247.048-.044.286-.247.044-.039.262-.237h0l.252-.228.034-.034.484-.484.707-.058a6.668,6.668,0,0,1,.862,3.745,49.362,49.362,0,0,1-1.3,9.083,28.327,28.327,0,0,1-1.289,7.335,4.322,4.322,0,0,1-1.536-.373s-.029.155-.073.417l-.417-.107-2.117-.528S248.443,490.467,244.883,486.766Z" transform="translate(-131.922 -240.657)" fill="url(#linear-gradient-6)"/>
    <path id="Path_608" data-name="Path 608" d="M389.715,801.79l4.035,11.244s-11.05,8.478-18.23,6.724a20.06,20.06,0,0,0-3.294-.533c-1.487-.111-4.045-1.192-2.466-2.572,5.1-4.457,11.888-12.736,11.888-12.736Z" transform="translate(-217.783 -439.854)" fill="#4f4d59"/>
    <path id="Path_609" data-name="Path 609" d="M243.639,796.85l1.909,10.827s-9.767-.426-26.325,4.67c0,0-6.371-2.761-1.061-6.157,0,0,6.157.426,9.98-6.157S234.3,794.3,234.3,794.3Z" transform="translate(-138.793 -435.975)" fill="#4f4d59"/>
    <path id="Path_610" data-name="Path 610" d="M308.165,615.941l-1.87,32.943a13.628,13.628,0,0,0,3.251,9.636,19.974,19.974,0,0,0,3.507,3.27c4.457,3.183,14.01,36.726,14.01,36.726s-10.827.635-13.8,2.761c0,0-.635-8.492-2.335-9.34s-14.223-25.676-14.223-25.676l-12.533-32.274s-9.98,17.2-18.472,20.168v7.218s-4.67,21.229-6.37,23.564,0,11.675,0,11.675-4.883,6.157-16.132-.426c0,0,3.609-4.035,3.391-8.919s4.893-31.625,4.893-31.625-.635-10.173,4.457-16.558S269.506,608.3,269.506,608.3l5.842-12.571Z" transform="translate(-152.791 -333.62)" fill="#787c9c"/>
    <g id="Group_90" data-name="Group 90" transform="translate(98.844 262.12)" opacity="0.1">
      <path id="Path_611" data-name="Path 611" d="M358.714,698.536s-9.553-33.543-14.01-36.726a20.223,20.223,0,0,1-3.687-3.483,13.472,13.472,0,0,1-3.067-9.418l1.87-32.943-31.31-19.3.426-.916,32.792,20.211-1.87,32.943a13.472,13.472,0,0,0,3.067,9.418,20.223,20.223,0,0,0,3.687,3.483c4.457,3.183,14.01,36.726,14.01,36.726s-10.827.635-13.8,2.761c0,0-.024-.329-.078-.867C350.924,699,358.714,698.536,358.714,698.536Z" transform="translate(-285.305 -595.75)"/>
      <path id="Path_612" data-name="Path 612" d="M266.3,737.355s-1.7-9.34,0-11.675,6.371-23.564,6.371-23.564V694.9c8.492-2.974,18.472-20.168,18.472-20.168l.741,1.914c-2.878,4.563-10.556,15.895-17.3,18.254v7.218s-4.67,21.229-6.37,23.564,0,11.675,0,11.675-2.369,2.979-7.6,2.577A8.361,8.361,0,0,0,266.3,737.355Z" transform="translate(-260.61 -636.468)"/>
    </g>
    <path id="Path_613" data-name="Path 613" d="M215.565,540.457l4.171.276,2.2.145V535.55l-2.907-.523-1.788-.325s-5.518-16.345-10.827-13.376S215.565,540.457,215.565,540.457Z" transform="translate(-133.221 -295.075)" fill="#714b4f"/>
    <path id="Path_614" data-name="Path 614" d="M347.422,470.93s2.761,10.614,3.609,17.2S331.29,489.4,331.29,489.4s7.853-9.553,3.391-14.65Z" transform="translate(-198.205 -269.279)" fill="#714b4f"/>
    <path id="Path_615" data-name="Path 615" d="M317,523.677l-.426,4.035,6.579-.426,6.579-5.731,6.579-18.472,4.254-6.574,3.183-4.035-1.274-4.883s-.581.484-1.565,1.26c-3.231,2.476-10.818,7.616-16.36,6.2a6.619,6.619,0,0,1-.756-.237l-8.279,14.223Z" transform="translate(-190.07 -277.868)" fill="#e6e6f0"/>
    <path id="Path_616" data-name="Path 616" d="M298.978,485s3.391.635,5.731,5.731c1.8,3.919,7.858,7.96,10.566,9.621a4.53,4.53,0,0,1,2.054,2.863c.547,2.422.756,6.928-2.219,13.419-4.67,10.173-8.066,14.65-8.066,14.65s-.848,10.174.426,13.163,0,19.32,0,19.32-22.285,4.244-29.721,0-6.371-20.633-6.371-20.633-7.005,14.873-9.539,15.3l1.453-8.279s8.279-8.919,8.72-20.381c0,0,2.548-10.4.426-13.162,0,0-35.878,2.975-38,.426,0,0,23.564-1.061,27.173-6.782,0,0,10.4-8.279,10.827-13.8a6.1,6.1,0,0,1,3.183-5,8.313,8.313,0,0,1,4.757-1.061l4.8.329s-8.274,14.621-7.834,16.559-.426,17.406-.426,17.406,9.553-20.594,13.8-22.929,9.112-11.917,9.112-11.917L298.978,485" transform="translate(-148.274 -276.533)" opacity="0.1"/>
    <path id="Path_617" data-name="Path 617" d="M317,523.677l-.426,4.035,6.579-.426,6.579-5.731,6.579-18.472,4.254-6.574,3.183-4.035-1.274-4.883s-.581.484-1.565,1.26l.291,1.676s-4.883,9.587-9.127,11.922-13.8,22.929-13.8,22.929.848-15.5.426-17.406c-.291-1.3,3.43-8.454,5.847-12.925a6.619,6.619,0,0,1-.756-.237l-8.279,14.223Z" transform="translate(-190.07 -277.868)" opacity="0.1"/>
    <path id="Path_618" data-name="Path 618" d="M234.407,555.707l2.2.145v-5.329L233.7,550C234.722,551.356,234.688,553.711,234.407,555.707Z" transform="translate(-147.893 -310.044)" opacity="0.1"/>
    <path id="Path_619" data-name="Path 619" d="M298.978,483.64s3.391.635,5.731,5.731c1.8,3.919,7.858,7.96,10.566,9.621a4.53,4.53,0,0,1,2.054,2.863c.547,2.422.756,6.928-2.219,13.419-4.67,10.173-8.066,14.65-8.066,14.65s-.848,10.173.426,13.163,0,19.32,0,19.32-22.285,4.244-29.721,0-6.371-20.594-6.371-20.594-7.005,14.858-9.539,15.279l1.453-8.279s8.279-8.919,8.72-20.381c0,0,2.548-10.4.426-13.163,0,0-8.279,8.919-17.619,8.72a179.361,179.361,0,0,0-20.381,1.061s2.122-6.782,0-9.34c0,0,23.564-1.061,27.173-6.782,0,0,10.4-8.279,10.827-13.8a6.1,6.1,0,0,1,3.188-5.019,8.313,8.313,0,0,1,4.757-1.061l4.8.329s-8.279,14.64-7.838,16.549-.426,17.406-.426,17.406,9.553-20.594,13.8-22.929,9.127-11.922,9.127-11.922l-.848-4.844" transform="translate(-148.274 -275.832)" fill="#67647e"/>
    <path id="Path_620" data-name="Path 620" d="M340.258,529.65s-5.1,17.2-8.066,19.32-21.015,12.949-26.325,10.4c0,0-1.274,6.371.635,7.853,0,0,19.795-.775,19.954-.848,0,0,12.949-1.7,15.071-8.066s4.67-17.2,4.67-17.2Z" transform="translate(-184.884 -299.553)" opacity="0.1"/>
    <ellipse id="Ellipse_137" data-name="Ellipse 137" cx="0.741" cy="1.061" rx="0.741" ry="1.061" transform="translate(127.46 247.402)" fill="#ba7855"/>
    <ellipse id="Ellipse_138" data-name="Ellipse 138" cx="0.741" cy="1.061" rx="0.741" ry="1.061" transform="translate(125.338 254.833)" fill="#ba7855"/>
    <g id="Group_91" data-name="Group 91" transform="translate(86.166 207.784)" opacity="0.1">
      <path id="Path_621" data-name="Path 621" d="M356.729,562.163s1.274-16.345,0-19.32-.426-13.162-.426-13.162,3.391-4.457,8.066-14.65c2.975-6.492,2.761-11,2.219-13.419a4.53,4.53,0,0,0-2.059-2.863c-2.708-1.662-8.769-5.7-10.561-9.621a11.028,11.028,0,0,0-4.166-5.053l-.082-.484s3.391.635,5.731,5.731c1.8,3.919,7.858,7.96,10.561,9.621a4.529,4.529,0,0,1,2.059,2.863c.547,2.422.756,6.928-2.219,13.419-4.67,10.173-8.066,14.65-8.066,14.65s-.848,10.173.426,13.162,0,19.32,0,19.32-15.924,3.033-25.342,1.41C342.385,564.9,356.729,562.163,356.729,562.163Z" transform="translate(-285.186 -483.59)"/>
      <path id="Path_622" data-name="Path 622" d="M320.969,511.894c.291,1.308,0,9-.237,13.71-1.027,2.1-1.671,3.483-1.671,3.483s.848-15.5.426-17.406c-.4-1.817,7.054-15.139,7.795-16.471l1.545.107S320.528,509.986,320.969,511.894Z" transform="translate(-278.066 -489.581)"/>
      <path id="Path_623" data-name="Path 623" d="M253.334,557.18c9.34.213,17.619-8.72,17.619-8.72a3.392,3.392,0,0,1,.538,1.153c-2.422,2.282-9.2,7.935-16.67,7.751a175.655,175.655,0,0,0-20.381,1.061s.044-.141.111-.383a168.983,168.983,0,0,1,18.782-.862Z" transform="translate(-234.44 -517.034)"/>
      <path id="Path_624" data-name="Path 624" d="M299.036,603.27s-.087,1.327-.039,3.318c-2.209,4.36-6.23,11.879-8.027,12.179l.315-1.744C294.376,613.143,299.036,603.27,299.036,603.27Z" transform="translate(-263.584 -545.291)"/>
    </g>
    <rect id="Rectangle_430" data-name="Rectangle 430" width="50.746" height="38.242" transform="translate(73.328 212.187)" fill="url(#linear-gradient)"/>
    <rect id="Rectangle_431" data-name="Rectangle 431" width="48.125" height="36.271" transform="translate(74.636 213.171)" fill="#fff"/>
    <rect id="Rectangle_432" data-name="Rectangle 432" width="16.04" height="9.069" transform="translate(79.344 216.31)" fill="#6c63ff" opacity="0.2"/>
    <rect id="Rectangle_433" data-name="Rectangle 433" width="18.831" height="2.093" transform="translate(99.221 216.31)" fill="#e6e8ec"/>
    <rect id="Rectangle_434" data-name="Rectangle 434" width="13.255" height="2.093" transform="translate(99.221 219.798)" fill="#e6e8ec"/>
    <rect id="Rectangle_435" data-name="Rectangle 435" width="18.831" height="2.093" transform="translate(99.221 223.286)" fill="#e6e8ec"/>
    <rect id="Rectangle_436" data-name="Rectangle 436" width="38.712" height="2.093" transform="translate(79.344 226.774)" fill="#e6e8ec"/>
    <rect id="Rectangle_437" data-name="Rectangle 437" width="38.712" height="2.093" transform="translate(79.344 230.262)" fill="#e6e8ec"/>
    <rect id="Rectangle_438" data-name="Rectangle 438" width="38.712" height="2.093" transform="translate(79.344 233.745)" fill="#e6e8ec"/>
    <rect id="Rectangle_439" data-name="Rectangle 439" width="35.573" height="2.093" transform="translate(79.344 237.233)" fill="#e6e8ec"/>
    <rect id="Rectangle_440" data-name="Rectangle 440" width="38.712" height="2.093" transform="translate(79.344 240.721)" fill="#e6e8ec"/>
    <rect id="Rectangle_441" data-name="Rectangle 441" width="38.712" height="2.093" transform="translate(79.344 244.209)" fill="#e6e8ec"/>
    <path id="Path_625" data-name="Path 625" d="M287.054,579.4l4.51.969,3.556.732-1.909-5.329-1.327-.334-2.069-.513s-2.97-14.848-8.914-13.783S287.054,579.4,287.054,579.4Z" transform="translate(-171.381 -315.76)" fill="#714b4f"/>
    <path id="Path_626" data-name="Path 626" d="M304.63,595.622l3.556.751-1.909-5.329-1.327-.334A21.2,21.2,0,0,0,304.63,595.622Z" transform="translate(-184.447 -331.032)" opacity="0.1"/>
    <path id="Path_627" data-name="Path 627" d="M340.258,528.78s-5.1,17.2-8.066,19.32-21.015,12.949-26.325,10.4c0,0-1.274,6.37.635,7.853,0,0,19.795-.775,19.954-.848,0,0,12.949-1.7,15.071-8.066s4.67-17.2,4.67-17.2Z" transform="translate(-184.884 -299.104)" fill="#67647e"/>
    <path id="Path_628" data-name="Path 628" d="M350.591,471.81s.431,1.662,1.008,4.079a11.457,11.457,0,0,1-12.654,5.813c.509-2.18.4-4.36-1.095-6.09Z" transform="translate(-201.587 -269.733)" opacity="0.1"/>
    <circle id="Ellipse_139" data-name="Ellipse 139" cx="11.462" cy="11.462" r="11.462" transform="translate(128.628 188.919)" fill="#714b4f"/>
    <path id="Path_629" data-name="Path 629" d="M319.173,441a6.138,6.138,0,0,1-2.558.155,4.2,4.2,0,0,1-3.105-4.011,6.162,6.162,0,0,1,2.364-4.733c.969-.809,2.132-1.386,3.018-2.287a21.4,21.4,0,0,0,2.422-3.774,11.205,11.205,0,0,1,5.755-4.476c1.759-.6,3.91-.664,5.261.615.693.654,1.1,1.6,1.875,2.151,1.124.8,2.645.562,4.016.722a7.654,7.654,0,0,1,5.77,4.321,10.813,10.813,0,0,1,.562,7.344c-.266,1.042-.654,2.054-.94,3.091-.6,2.161-.736,4.428-1.424,6.559s-2.107,4.215-4.253,4.845a13.448,13.448,0,0,0-1.366-6.928,1.986,1.986,0,0,0-.969-1.076,2.349,2.349,0,0,0-1.168,0,11.627,11.627,0,0,1-7.751-1.57c-.814-.484-2.083-2.185-2.955-2.354C322.627,439.4,320.336,440.737,319.173,441Z" transform="translate(-189.039 -243.776)" opacity="0.1"/>
    <path id="Path_630" data-name="Path 630" d="M319.173,440.119a6.139,6.139,0,0,1-2.558.155,4.2,4.2,0,0,1-3.105-4.011,6.162,6.162,0,0,1,2.364-4.733c.969-.809,2.132-1.385,3.018-2.287a21.4,21.4,0,0,0,2.422-3.774,11.205,11.205,0,0,1,5.755-4.476c1.759-.6,3.91-.664,5.261.615.693.654,1.1,1.6,1.875,2.151,1.124.8,2.645.562,4.016.722a7.654,7.654,0,0,1,5.77,4.321,10.813,10.813,0,0,1,.562,7.344c-.266,1.042-.654,2.054-.94,3.091-.6,2.161-.736,4.428-1.424,6.559s-2.107,4.215-4.253,4.845a13.448,13.448,0,0,0-1.366-6.928,1.986,1.986,0,0,0-.969-1.075,2.349,2.349,0,0,0-1.168,0,11.627,11.627,0,0,1-7.751-1.57c-.814-.484-2.083-2.185-2.955-2.354C322.627,438.515,320.336,439.862,319.173,440.119Z" transform="translate(-189.039 -243.323)" fill="#503f43"/>
    <path id="Path_631" data-name="Path 631" d="M123.579,805.862a5.653,5.653,0,0,0,1.855-2.8,2.485,2.485,0,0,0-1.3-2.853c-1.192-.455-2.466.368-3.43,1.206s-2.073,1.788-3.338,1.608a5.077,5.077,0,0,0,1.57-4.752,1.986,1.986,0,0,0-.436-.969c-.664-.707-1.86-.4-2.655.155-2.519,1.773-3.222,5.193-3.236,8.274a15.863,15.863,0,0,1-.048-3.391,3.5,3.5,0,0,0-1.279-3.013,3.876,3.876,0,0,0-1.938-.46,4.034,4.034,0,0,0-3.168.9,3.116,3.116,0,0,0,.126,3.876,12.61,12.61,0,0,0,3.28,2.626,7.265,7.265,0,0,1,2.345,2.233,2.212,2.212,0,0,1,.174.4h7.087a19.777,19.777,0,0,0,4.389-3.038Z" transform="translate(-81.828 -437.328)" fill="#6c63ff"/>
    <path id="Path_632" data-name="Path 632" d="M992.579,666.862a5.653,5.653,0,0,0,1.855-2.8,2.485,2.485,0,0,0-1.3-2.853c-1.192-.455-2.466.368-3.43,1.206s-2.073,1.788-3.338,1.608a5.077,5.077,0,0,0,1.57-4.752,1.987,1.987,0,0,0-.436-.969c-.664-.707-1.86-.4-2.655.155-2.519,1.773-3.222,5.193-3.236,8.274a15.86,15.86,0,0,1-.048-3.391,3.5,3.5,0,0,0-1.279-3.013,3.875,3.875,0,0,0-1.938-.46,4.034,4.034,0,0,0-3.168.9,3.116,3.116,0,0,0,.126,3.876,12.611,12.611,0,0,0,3.28,2.626,7.266,7.266,0,0,1,2.345,2.233,2.2,2.2,0,0,1,.174.4h7.1A19.781,19.781,0,0,0,992.579,666.862Z" transform="translate(-529.841 -365.667)" fill="#6c63ff"/>
    <path id="Path_633" data-name="Path 633" d="M1058.565,331.135c-1-2.936-2.451-6.656-3.595-7.533a1.068,1.068,0,0,0-.228-.141h-.141v-3.629l-2.7.431a25.857,25.857,0,0,1-.969-4.016,1.865,1.865,0,0,0,2.03.407c-.044-.073-.082-.15-.121-.228l.121-.053a5.025,5.025,0,0,1-.654-2.461,8.966,8.966,0,0,1,.373-2.325c.484-1.671,1.3-3.231,1.758-4.912a11.94,11.94,0,0,0,.407-3.318,12.11,12.11,0,0,0-1.26-5.474,3.2,3.2,0,0,0-.969-1.25,12.359,12.359,0,0,0-1.172-.572,6.332,6.332,0,0,1-1.705-1.7,15.289,15.289,0,0,0-7.388-4.932,4.326,4.326,0,0,0-2.364-.189c-1.817.484-2.476,2.737-3.948,3.919-1.3,1.042-3.081,1.148-4.714,1.5a8.013,8.013,0,0,0-4.389,2.3,4.762,4.762,0,0,0-1.177,3.173,3.192,3.192,0,0,0,1.3,2.839,4.079,4.079,0,0,0,3.444.484,11.714,11.714,0,0,0,8.87,14.727l.315.567h0a24.257,24.257,0,0,1,2.2,5.741c-2.49,1.41-5.208,2.732-6.85,2.858a11.54,11.54,0,0,1-.359,1.9,10.472,10.472,0,0,1-2.156,4.239c-2.233,2.509-12.276,21.48-12.276,21.48s-.315.756-.833,2.044c-6.235.765-16.413,1.87-19.252,1.3l-11.142-10.6s-3.6,2.752-3.289,6.094l-2.01-1.909s-10.6,8.09,6.138,13.39l25.467,2.955c-2.422,7.32-4.69,15.842-3.987,20.478h.208a9.633,9.633,0,0,0,1.453-.111l-.044.824-2.451,43.92s-.557,8.09,6.976,11.714c0,0,9.2,27.057,5.581,30.128,0,0,.431.228,1.158.543l-7.572,6.71s-5.581,1.4-8.648,1.114a2.214,2.214,0,0,0-2.446,1.647.368.368,0,0,1-.029.174v.538a.416.416,0,0,0,.034.179v.068a1.509,1.509,0,0,0,.063.194l.024.058a1.634,1.634,0,0,0,.087.189v.044c.034.063.073.121.111.184l.034.053q.068.1.15.194l.044.048c.058.068.121.131.184.194l.029.024.208.179.044.034c.078.063.165.121.252.179l.058.039c.092.058.189.116.291.169h.044l.315.155h.044l.368.145.078.029.4.131h.068l.441.116h.034l.484.1h.1l.523.078h.1l.591.058c1.148.087,2.694.121,4.481.111h0v.286a.339.339,0,0,0,.034.179v.068a1.49,1.49,0,0,0,.063.194l.024.058a1.667,1.667,0,0,0,.087.189v.044c.034.063.073.121.111.184l.034.053q.068.1.15.194l.044.048c.058.068.121.131.184.194l.029.024.208.179.044.034c.078.063.165.121.252.179l.063.039c.092.058.189.116.291.17h.044l.315.155h.044l.368.145.078.029.4.131h.068l.441.116h.034l.484.1h.1l.523.078h.1l.591.058c7.267.557,30.4-1.114,30.4-1.114v-.063h0v-.082h0c.228-1.08,1.342-7.359-2.611-12,.116-.121.232-.252.339-.387,0,0-3.067-5.3-1.4-6.976s-8.366-30.685-8.366-30.685-5.3-8.366-2.233-17.852-.281-19.8-.281-19.8,7.315-2.175,7.465-11.181v-.838a2.96,2.96,0,0,0,.485.029,2.168,2.168,0,0,0,.31,0s-1.4-5.019.281-8.647,5.3-.281,8.647-15.062c2.422-10.7,4.554-23,5.547-28.99A15.265,15.265,0,0,0,1058.565,331.135ZM994.9,362.513l-2.543-2.422c.843.349,1.778.693,2.824,1.022l9.592,1.114c-4.283.4-8.26.61-9.873.291Z" transform="translate(-532.858 -175.566)" fill="url(#linear-gradient-8)"/>
    <path id="Path_634" data-name="Path 634" d="M1019.946,428.628s-19.732,2.742-23.845,1.938L985.139,420.15s-10.416,7.95,6.031,13.153l30.695,3.561Z" transform="translate(-533.62 -243.1)" fill="#fdc2cc"/>
    <path id="Path_635" data-name="Path 635" d="M1019.946,428.628s-19.732,2.742-23.845,1.938L985.139,420.15s-10.416,7.95,6.031,13.153l30.695,3.561Z" transform="translate(-533.62 -243.1)" opacity="0.05"/>
    <path id="Path_636" data-name="Path 636" d="M1053.3,667.33l-9.592,8.5s-5.479,1.371-8.5,1.095-4.384,4.66,2.742,5.208,29.871-1.095,29.871-1.095,2.195-8.768-4.384-13.705Z" transform="translate(-559.849 -370.534)" fill="#47465a"/>
    <path id="Path_637" data-name="Path 637" d="M1053.3,667.33l-9.592,8.5s-5.479,1.371-8.5,1.095-4.384,4.66,2.742,5.208,29.871-1.095,29.871-1.095,2.195-8.768-4.384-13.705Z" transform="translate(-559.849 -370.534)" opacity="0.05"/>
    <path id="Path_638" data-name="Path 638" d="M1068.172,687.78a15.121,15.121,0,0,1-.344,2.97s-22.769,1.642-29.871,1.095c-3.425-.262-4.883-1.541-5.145-2.766-.31,1.4.93,3.265,5.145,3.59,7.126.547,29.871-1.095,29.871-1.095A15.845,15.845,0,0,0,1068.172,687.78Z" transform="translate(-559.852 -381.077)" fill="#fff" opacity="0.3"/>
    <path id="Path_639" data-name="Path 639" d="M1098.35,338.4s6.031,8.5,3.837,14.253,11.5-6.031,11.5-6.031-4.384-7.674-2.195-15.895Z" transform="translate(-593.663 -196.999)" fill="#fdc2cc"/>
    <path id="Path_640" data-name="Path 640" d="M1073.141,674.11l-9.592,8.5s-5.479,1.371-8.5,1.095-4.384,4.66,2.742,5.208,29.871-1.095,29.871-1.095,2.195-8.768-4.384-13.705Z" transform="translate(-570.077 -374.029)" fill="#47465a"/>
    <path id="Path_641" data-name="Path 641" d="M1070.868,563.988a7.333,7.333,0,0,1-5.552,2.543c-4.791.228-10.067-2.543-10.067-2.543,3.561-3.013-5.479-29.6-5.479-29.6-7.4-3.561-6.85-11.511-6.85-11.511l2.422-43.15.606-10.837,7.674-4.66,6.051,4.641,5.736,4.4a23.06,23.06,0,0,1,.717,4.278c.664,10.072-7.3,12.441-7.3,12.441s3.289,10.14.276,19.456,2.195,17.537,2.195,17.537,9.868,28.5,8.236,30.147S1070.868,563.988,1070.868,563.988Z" transform="translate(-565.082 -265.825)" fill="#565171"/>
    <path id="Path_642" data-name="Path 642" d="M1070.868,563.988a7.333,7.333,0,0,1-5.552,2.543c-4.791.228-10.067-2.543-10.067-2.543,3.561-3.013-5.479-29.6-5.479-29.6-7.4-3.561-6.85-11.511-6.85-11.511l2.422-43.15.606-10.837,7.674-4.66,6.051,4.641,5.736,4.4a23.06,23.06,0,0,1,.717,4.278c.664,10.072-7.3,12.441-7.3,12.441s3.289,10.14.276,19.456,2.195,17.537,2.195,17.537,9.868,28.5,8.236,30.147S1070.868,563.988,1070.868,563.988Z" transform="translate(-565.082 -265.825)" opacity="0.05"/>
    <path id="Path_643" data-name="Path 643" d="M1086,570.783c-4.661,5.755-15.619,0-15.619,0a1.744,1.744,0,0,0,.484-.746c2.011-5.465-6.782-31.591-6.782-31.591-7.4-3.561-8.236-12.058-8.236-12.058l-1.938-43.915-.252-5.687,11.53-4.4,3.541-1.352,11.787,9.045a21.369,21.369,0,0,1,.756,5.731c-.15,8.851-7.334,10.987-7.334,10.987s3.29,10.14.276,19.456,2.195,17.537,2.195,17.537,9.868,28.5,8.236,30.147S1086,570.783,1086,570.783Z" transform="translate(-570.623 -269.331)" fill="#565171"/>
    <path id="Path_644" data-name="Path 644" d="M1078.294,482.316c-2.369-.339-7.165-3.193-9.631-4.743l-1.541-.969s-2.466-6.85-9.045-1.642a24.619,24.619,0,0,1-7.146,4.04,16.721,16.721,0,0,1-3.052.765l.606-10.837,7.674-4.66,6.051,4.641,3.541-1.352,11.787,9.045a21.385,21.385,0,0,1,.756,5.712Z" transform="translate(-567.643 -265.846)" opacity="0.1"/>
    <path id="Path_645" data-name="Path 645" d="M1091.3,373.445c-.969,5.881-3.072,17.968-5.45,28.481-3.289,14.533-6.85,11.234-8.5,14.8s-.276,8.5-.276,8.5c-2.742.276-11.787-5.755-11.787-5.755s-2.466-6.85-9.045-1.642-11.787,4.932-11.787,4.932c-1.371-9.045,8.768-33.161,8.768-33.161s9.868-18.637,12.058-21.1a10.289,10.289,0,0,0,2.117-4.166,11.337,11.337,0,0,0,.349-1.865c3.561-.276,12.334-6.3,12.334-6.3l6.85-1.095v3.561a1.053,1.053,0,0,1,.223.136c1.129.862,2.548,4.52,3.532,7.4a15.018,15.018,0,0,1,.61,7.276Z" transform="translate(-565.812 -209.548)" fill="#f68080"/>
    <path id="Path_646" data-name="Path 646" d="M1097.046,368.877s-7.126-5.755-17.813,12.882-13.153,15.619-13.153,15.619,2.195,8.236,1.095,9.868c0,0,7.4-.547,10.14,0s19.732-20.817,19.732-20.817S1105.834,374.356,1097.046,368.877Z" transform="translate(-577.026 -216.234)" opacity="0.1"/>
    <path id="Path_647" data-name="Path 647" d="M1096.516,366.607s-7.126-5.755-17.813,12.882-13.153,15.619-13.153,15.619,8.5,9.316,11.234,9.868,19.732-20.831,19.732-20.831S1105.284,372.091,1096.516,366.607Z" transform="translate(-576.753 -215.063)" opacity="0.1"/>
    <path id="Path_648" data-name="Path 648" d="M1066.685,436.974a33.136,33.136,0,0,0-1.095-7.451c1.667-.218,2.718-.363,2.718-.363l1.938,8.236Z" transform="translate(-576.774 -247.745)" opacity="0.1"/>
    <path id="Path_649" data-name="Path 649" d="M1112.073,331.87l-13.153,7.674a28.107,28.107,0,0,1,1.531,2.509,11.562,11.562,0,0,0,2.306.233c3.512,0,5.15-3.687,7.267-6.167C1109.873,334.128,1111.487,334.074,1112.073,331.87Z" transform="translate(-593.957 -197.587)" opacity="0.1"/>
    <circle id="Ellipse_140" data-name="Ellipse 140" cx="11.511" cy="11.511" r="11.511" transform="translate(497.018 121.125)" fill="#fdc2cc"/>
    <rect id="Rectangle_442" data-name="Rectangle 442" width="92.7" height="69.858" transform="translate(398.04 145.755)" fill="url(#linear-gradient)"/>
    <rect id="Rectangle_443" data-name="Rectangle 443" width="88.543" height="66.728" transform="translate(400.118 147.319)" fill="#fff"/>
    <rect id="Rectangle_444" data-name="Rectangle 444" width="29.513" height="16.68" transform="translate(408.78 153.094)" fill="#6c63ff" opacity="0.2"/>
    <rect id="Rectangle_445" data-name="Rectangle 445" width="34.648" height="3.851" transform="translate(445.351 153.094)" fill="#e6e8ec"/>
    <rect id="Rectangle_446" data-name="Rectangle 446" width="24.382" height="3.851" transform="translate(445.351 159.513)" fill="#e6e8ec"/>
    <rect id="Rectangle_447" data-name="Rectangle 447" width="34.648" height="3.851" transform="translate(445.351 165.927)" fill="#e6e8ec"/>
    <rect id="Rectangle_448" data-name="Rectangle 448" width="71.219" height="3.851" transform="translate(408.78 172.341)" fill="#e6e8ec"/>
    <rect id="Rectangle_449" data-name="Rectangle 449" width="71.219" height="3.851" transform="translate(408.78 178.76)" fill="#e6e8ec"/>
    <rect id="Rectangle_450" data-name="Rectangle 450" width="71.219" height="3.851" transform="translate(408.78 185.174)" fill="#e6e8ec"/>
    <rect id="Rectangle_451" data-name="Rectangle 451" width="65.444" height="3.851" transform="translate(408.78 191.593)" fill="#e6e8ec"/>
    <rect id="Rectangle_452" data-name="Rectangle 452" width="71.219" height="3.851" transform="translate(408.78 198.007)" fill="#e6e8ec"/>
    <rect id="Rectangle_453" data-name="Rectangle 453" width="71.219" height="3.851" transform="translate(408.78 204.422)" fill="#e6e8ec"/>
    <path id="Path_650" data-name="Path 650" d="M1074.988,301.114a7.867,7.867,0,0,1,4.312-2.262c1.6-.344,3.352-.451,4.631-1.453,1.453-1.158,2.093-3.357,3.876-3.847a4.249,4.249,0,0,1,2.321.184,15.018,15.018,0,0,1,7.267,4.844,6.221,6.221,0,0,0,1.671,1.671,12.1,12.1,0,0,1,1.153.562,3.139,3.139,0,0,1,.94,1.226,11.913,11.913,0,0,1,.833,8.366c-.446,1.652-1.25,3.183-1.725,4.844a6.358,6.358,0,0,0,.276,4.975,2.006,2.006,0,0,1-2.422-.9,10.312,10.312,0,0,1-.969-2.66,10.174,10.174,0,0,0-2.97-4.617c-.862-.765-2.422-1.279-3.008-.291-.233.383-.218.867-.417,1.264a1.661,1.661,0,0,1-2.277.484,3.493,3.493,0,0,1-1.424-2.112c-1.129-3.818-3.052-6.22-7.136-4.588-1.521.61-3.314,1.022-4.777-.024C1073.235,305.406,1073.608,302.674,1074.988,301.114Z" transform="translate(-581.023 -177.789)" opacity="0.1"/>
    <path id="Path_651" data-name="Path 651" d="M1074.988,300.544a7.867,7.867,0,0,1,4.312-2.262c1.6-.344,3.352-.451,4.631-1.453,1.453-1.158,2.093-3.357,3.876-3.847a4.249,4.249,0,0,1,2.321.184,15.018,15.018,0,0,1,7.267,4.844,6.221,6.221,0,0,0,1.671,1.671,12.081,12.081,0,0,1,1.153.562,3.139,3.139,0,0,1,.94,1.226,11.913,11.913,0,0,1,.833,8.366c-.446,1.652-1.25,3.183-1.725,4.844a6.358,6.358,0,0,0,.276,4.975,2.006,2.006,0,0,1-2.422-.9,10.312,10.312,0,0,1-.969-2.66,10.174,10.174,0,0,0-2.97-4.617c-.862-.765-2.422-1.279-3.008-.291-.233.383-.218.867-.417,1.264a1.661,1.661,0,0,1-2.277.484,3.493,3.493,0,0,1-1.424-2.112c-1.129-3.817-3.052-6.22-7.136-4.588-1.521.61-3.314,1.022-4.777-.024C1073.235,304.836,1073.608,302.108,1074.988,300.544Z" transform="translate(-581.023 -177.495)" fill="#b96b6b"/>
    <path id="Path_652" data-name="Path 652" d="M1111.731,358.772h-5.571s-10.963,5.479-11.234,5.208a9.319,9.319,0,0,0-2.955.358,11.362,11.362,0,0,0,.349-1.865c3.561-.276,12.334-6.3,12.334-6.3l6.85-1.095v3.561A1.052,1.052,0,0,1,1111.731,358.772Z" transform="translate(-590.374 -209.553)" opacity="0.05"/>
    <path id="Path_653" data-name="Path 653" d="M1087.972,694.57a15.123,15.123,0,0,1-.344,2.97s-22.769,1.642-29.871,1.095c-3.425-.262-4.883-1.541-5.145-2.766-.31,1.4.93,3.265,5.145,3.59,7.126.547,29.871-1.095,29.871-1.095a15.844,15.844,0,0,0,.344-3.793Z" transform="translate(-570.06 -384.577)" fill="#fff" opacity="0.3"/>
    <g id="Group_92" data-name="Group 92" transform="translate(478.72 149.093)" opacity="0.05">
      <path id="Path_654" data-name="Path 654" d="M1053.863,481.935a23.275,23.275,0,0,1-9.113,4.607,4.072,4.072,0,0,0,.068.6s5.208.276,11.787-4.932a8.832,8.832,0,0,1,3.522-1.841C1058.693,479.707,1056.643,479.75,1053.863,481.935Z" transform="translate(-1044.75 -423.045)"/>
      <path id="Path_655" data-name="Path 655" d="M1122.351,369.978c-.969-2.907-2.422-6.54-3.532-7.4a1.05,1.05,0,0,0-.223-.136s-2.267.077-2.195.136c1.129.862,2.224,4.244,3.207,7.126a15.018,15.018,0,0,1,.6,7.267c-.969,5.881-3.071,17.968-5.45,28.481-3.289,14.534-6.85,11.234-8.5,14.8-1.347,2.907-.673,6.753-.383,8.047a6.931,6.931,0,0,0,2.849.722s-1.371-4.932.276-8.5,5.208-.276,8.5-14.8c2.379-10.508,4.471-22.6,5.45-28.481A15.016,15.016,0,0,0,1122.351,369.978Z" transform="translate(-1076.043 -362.44)"/>
    </g>
    <path id="Path_656" data-name="Path 656" d="M1032.643,428.348l-3.541-.412-27.129-3.154c-16.442-5.208-6.031-13.153-6.031-13.153l10.963,10.416c3.163.635,15.565-.843,21.122-1.555,1.667-.218,2.718-.363,2.718-.363Z" transform="translate(-539.19 -238.707)" fill="#fdc2cc"/>
    <path id="Path_657" data-name="Path 657" d="M1097.046,367.747s-7.126-5.755-17.813,12.881-13.153,15.619-13.153,15.619,2.195,8.236,1.095,9.868c0,0,7.4-.547,10.14,0s19.732-20.831,19.732-20.831S1105.834,373.226,1097.046,367.747Z" transform="translate(-577.026 -215.651)" fill="#f68080"/>
  </g>
</svg>
