<svg xmlns="http://www.w3.org/2000/svg" xmlns:xlink="http://www.w3.org/1999/xlink" width="524.933" height="362.375" viewBox="0 0 524.933 362.375">
  <defs>
    <linearGradient id="linear-gradient" y1="0.5" x2="1" y2="0.5" gradientUnits="objectBoundingBox">
      <stop offset="0" stop-color="gray" stop-opacity="0.251"/>
      <stop offset="0.54" stop-color="gray" stop-opacity="0.122"/>
      <stop offset="1" stop-color="gray" stop-opacity="0.102"/>
    </linearGradient>
  </defs>
  <g id="Group_99" data-name="Group 99" transform="translate(0 0.006)">
    <path id="Path_660" data-name="Path 660" d="M313.826,96.8c-33.647.045-66.034-9.493-97.012-20.089S155.1,54.245,122.074,49.217c-21.237-3.232-45.387-2.935-61.988,8.8-15.98,11.289-20.607,29.974-22.84,47.237-1.679,12.986-2.453,26.616,3.835,38.5,4.366,8.246,11.838,15.043,17.105,22.9,18.383,27.341,7.328,62.267-10.538,90.243C39.273,270.02,29.46,282.6,23.126,296.479s-8.931,29.614-2.471,43.312c6.4,13.576,20.859,23.429,36.375,30.159,31.509,13.693,68.2,16.628,103.9,17.758,79.025,2.507,158.2-2.606,237.17-7.72,29.223-1.891,58.576-3.795,87.2-9.273,15.89-3.038,32.252-7.549,43.519-17.434,14.3-12.55,17.227-33.04,6.82-47.768-17.452-24.7-63.469-29.362-75.982-56.091-6.9-14.715-.95-31.59,7.814-45.774,18.8-30.433,51.153-57.693,51.7-91.732.374-23.375-16.452-46.179-41.583-56.339-26.342-10.641-62.258-7.9-80.713,11.928C377.885,87.937,343.535,96.764,313.826,96.8Z" transform="translate(-16.91 -47.46)" fill="#6c63ff" opacity="0.1"/>
    <path id="Path_661" data-name="Path 661" d="M995.985,690.394s-5.532-3.651-11.015-1.053c0,0,1.688,3.25,8.629,2.944Z" transform="translate(-549.215 -399.9)" fill="#6c63ff"/>
    <path id="Path_662" data-name="Path 662" d="M1006.52,693.25s1.683,6.41-2.539,10.772c0,0-2.539-2.642,0-9.115Z" transform="translate(-559.048 -402.562)" fill="#6c63ff"/>
    <path id="Path_663" data-name="Path 663" d="M1010.741,674.682s-.409-5.451-12.721-3.642c0,0-.058,3.516,4.263,5.181S1008.585,676.482,1010.741,674.682Z" transform="translate(-556.391 -390.148)" fill="#6c63ff"/>
    <path id="Path_664" data-name="Path 664" d="M1023.591,679.5s5.2,1.67.563,13.216c0,0-3.434-.765-4.051-5.361S1021.313,681.174,1023.591,679.5Z" transform="translate(-568.466 -395.002)" fill="#6c63ff"/>
    <path id="Path_665" data-name="Path 665" d="M1028.911,652.4s.707-8.971-11.874-8.053c0,0-.9,8.1,9.655,10.209Z" transform="translate(-566.837 -375.637)" fill="#6c63ff"/>
    <path id="Path_666" data-name="Path 666" d="M1044.441,630.411s-1.724-10.168-14.3-7.139c0,0-.045,8.791,12.248,9.561Z" transform="translate(-574.052 -363.773)" fill="#6c63ff"/>
    <path id="Path_667" data-name="Path 667" d="M1056.659,607.405s-2.89-9.9-15.349-6.941c0,0,2.966,8.908,14.521,8.769Z" transform="translate(-580.195 -351.239)" fill="#6c63ff"/>
    <path id="Path_668" data-name="Path 668" d="M1070.084,584.341s-2.822-10.277-14.854-7.2c0,0,4.015,9.763,14.058,8.94Z" transform="translate(-587.849 -338.401)" fill="#6c63ff"/>
    <path id="Path_669" data-name="Path 669" d="M1080.137,559.815s-2.17-12.568-13.387-9.786c0,0,3.259,11.433,12.563,11.618Z" transform="translate(-594.183 -323.589)" fill="#6c63ff"/>
    <path id="Path_670" data-name="Path 670" d="M1087.194,534.38s-2.606-12.667-13.954-9c0,0,4.447,11.974,13.148,10.736Z" transform="translate(-597.752 -309.889)" fill="#6c63ff"/>
    <path id="Path_671" data-name="Path 671" d="M1093.23,506.861s-4.137-12.671-12.91-12.329c0,0,4.227,13.382,12.176,14.854Z" transform="translate(-601.645 -293.29)" fill="#6c63ff"/>
    <path id="Path_672" data-name="Path 672" d="M1097.86,480.977s-4.5-15.25-11.64-14.076c0,0,3.115,11.658,11.388,16.452Z" transform="translate(-604.889 -278.065)" fill="#6c63ff"/>
    <path id="Path_673" data-name="Path 673" d="M1100.073,453.856s-4.222-12.707-11.253-13.216c0,0,2.872,12.5,11.114,16.52Z" transform="translate(-606.319 -263.66)" fill="#6c63ff"/>
    <path id="Path_674" data-name="Path 674" d="M1103.613,427.749s-5.262-12.721-9.9-13.009c0,0,2.287,12.527,9.453,15.1Z" transform="translate(-609.007 -249.419)" fill="#6c63ff"/>
    <path id="Path_675" data-name="Path 675" d="M1107.366,400.842s-3.237-13.815-7.887-14.962c0,0,.635,11.3,7.418,16Z" transform="translate(-612.18 -233.549)" fill="#6c63ff"/>
    <path id="Path_676" data-name="Path 676" d="M1112.141,371.494s-3.4-11.015-7.171-12.694c0,0,.743,12.986,6.3,15.386Z" transform="translate(-615.199 -218.659)" fill="#6c63ff"/>
    <path id="Path_677" data-name="Path 677" d="M1120.67,342.279l.684-19.419s-7.045,14.638-1.193,22.826Z" transform="translate(-622.274 -198.897)" fill="#6c63ff"/>
    <path id="Path_678" data-name="Path 678" d="M1132.862,304.8s5.073-14.179,6.3-14.971c0,0-9.948,9.2-8.976,21.035Z" transform="translate(-629.029 -180.735)" fill="#6c63ff"/>
    <path id="Path_679" data-name="Path 679" d="M1041.709,662.135s8.921-1.166,8.656,11.442c0,0-8.062,1.314-10.7-9.115Z" transform="translate(-579.293 -385.438)" fill="#6c63ff"/>
    <path id="Path_680" data-name="Path 680" d="M1060.337,639.06s10.308-.031,9.453,12.874c0,0-8.656,1.548-11.51-10.434Z" transform="translate(-589.526 -372.765)" fill="#6c63ff"/>
    <path id="Path_681" data-name="Path 681" d="M1074.618,617.388s9.358-4.389,15.345,6.941c0,0-8.643,3.655-16.173-5.109Z" transform="translate(-598.054 -360.389)" fill="#6c63ff"/>
    <path id="Path_682" data-name="Path 682" d="M1087.722,592.856s9.583-4.668,15.21,6.4c0,0-9.984,3.439-16-4.645Z" transform="translate(-605.279 -346.821)" fill="#6c63ff"/>
    <path id="Path_683" data-name="Path 683" d="M1095.7,568.123s9.223-8.809,16.583.1c0,0-9.421,7.252-17.006,1.864Z" transform="translate(-609.871 -331.622)" fill="#6c63ff"/>
    <path id="Path_684" data-name="Path 684" d="M1102.673,540.779s9.277-9,16.578.414c0,0-10.411,7.4-16.911,1.476Z" transform="translate(-613.753 -316.589)" fill="#6c63ff"/>
    <path id="Path_685" data-name="Path 685" d="M1106.93,510s7.148-11.253,15.565-8.742c0,0-7.418,11.915-15.485,11.384Z" transform="translate(-616.277 -296.794)" fill="#6c63ff"/>
    <path id="Path_686" data-name="Path 686" d="M1111.384,483.441s7.2-14.17,14.017-11.7c0,0-5.194,10.893-14.2,14.094Z" transform="translate(-618.625 -280.601)" fill="#6c63ff"/>
    <path id="Path_687" data-name="Path 687" d="M1111.84,456.259s7.4-11.154,14.341-9.79c0,0-6.054,11.312-15.062,13.018Z" transform="translate(-618.581 -266.802)" fill="#6c63ff"/>
    <path id="Path_688" data-name="Path 688" d="M1114,427.694s5.739-12.518,10.4-12.6c0,0-2.755,12.428-10.015,14.728Z" transform="translate(-620.164 -249.611)" fill="#6c63ff"/>
    <path id="Path_689" data-name="Path 689" d="M1116.5,403s6.378-12.676,11.172-12.7c0,0-3.264,10.839-10.961,13.815Z" transform="translate(-621.539 -235.98)" fill="#6c63ff"/>
    <path id="Path_690" data-name="Path 690" d="M1118.63,374.5s4.772-10.488,8.724-11.676c0,0-2.386,12.784-8.2,14.458Z" transform="translate(-622.71 -220.87)" fill="#6c63ff"/>
    <path id="Path_691" data-name="Path 691" d="M1123.487,345.305l10.664-16.245s-2.732,16.025-12.221,19.356Z" transform="translate(-624.525 -202.306)" fill="#6c63ff"/>
    <path id="Path_692" data-name="Path 692" d="M1135.343,313.864s12.392-8.552,12.843-9.934c0,0-6.3,11.978-18.005,14.094Z" transform="translate(-629.061 -188.488)" fill="#6c63ff"/>
    <path id="Path_693" data-name="Path 693" d="M1142.882,300.756s14.229-13.68,17.861-13.666c0,0-11.735.536-18.2,12.937Z" transform="translate(-635.858 -179.228)" fill="#6c63ff"/>
    <path id="Path_694" data-name="Path 694" d="M1118.94,350.2l.518.068c2.674-20.927,6.572-33.31,10.974-34.827l-.171-.5C1125.593,316.57,1121.668,328.765,1118.94,350.2Z" transform="translate(-622.881 -194.547)" fill="#444053"/>
    <path id="Path_695" data-name="Path 695" d="M1110.2,441.419l.783.063c.167-1.954.293-3.952.378-5.946.747-17.321,1.9-33.229,3.425-45.153l-.45-.563c-1.526,11.951-3.011,28.336-3.759,45.684C1110.492,437.484,1110.366,439.474,1110.2,441.419Z" transform="translate(-618.075 -235.716)" fill="#444053"/>
    <path id="Path_696" data-name="Path 696" d="M976.483,597.4c.135-.059,13.922-6.216,28.232-20.9a113.537,113.537,0,0,0,20.638-29.259c6.617-13.472,10.65-30.028,12-46.111l-.815.383c-3.039,36.1-19.473,60.768-32.54,74.2-14.17,14.553-27.8,20.648-27.94,20.706Z" transform="translate(-544.315 -296.922)" fill="#444053"/>
    <path id="Path_697" data-name="Path 697" d="M523.246,132.69H90.723a3.853,3.853,0,0,0-3.853,3.853v11.226H527.1V136.543A3.853,3.853,0,0,0,523.246,132.69Z" transform="translate(-55.379 -94.328)" fill="#3f3d56"/>
    <path id="Path_698" data-name="Path 698" d="M86.87,166.19V418.822a7.769,7.769,0,0,0,7.769,7.769H519.33a7.769,7.769,0,0,0,7.769-7.769V166.19Z" transform="translate(-55.379 -112.749)" fill="#fff"/>
    <circle id="Ellipse_141" data-name="Ellipse 141" cx="1.801" cy="1.801" r="1.801" transform="translate(36.663 43.988)" fill="#fa5959" opacity="0.8"/>
    <circle id="Ellipse_142" data-name="Ellipse 142" cx="1.801" cy="1.801" r="1.801" transform="translate(41.615 43.988)" fill="#fed253" opacity="0.8"/>
    <circle id="Ellipse_143" data-name="Ellipse 143" cx="1.801" cy="1.801" r="1.801" transform="translate(46.566 43.988)" fill="#8ccf4d" opacity="0.8"/>
    <rect id="Rectangle_461" data-name="Rectangle 461" width="353.804" height="155.575" transform="translate(72.413 95.564)" opacity="0.05"/>
    <rect id="Rectangle_462" data-name="Rectangle 462" width="348.402" height="152.145" transform="translate(75.114 96.744)" fill="#3f3d56"/>
    <path id="Path_699" data-name="Path 699" d="M352.44,349.38a34.66,34.66,0,1,0,34.66,34.66A34.66,34.66,0,0,0,352.44,349.38Zm6.216,35.493v16.412H346.4V384.873a10.15,10.15,0,1,1,12.253,0Z" transform="translate(-182.349 -213.479)" fill="#6c63ff"/>
    <path id="Path_700" data-name="Path 700" d="M352.44,349.38a34.66,34.66,0,1,0,34.66,34.66A34.66,34.66,0,0,0,352.44,349.38Zm6.216,35.493v16.412H346.4V384.873a10.15,10.15,0,1,1,12.253,0Z" transform="translate(-182.349 -213.479)" opacity="0.05"/>
    <path id="Path_701" data-name="Path 701" d="M340.343,327.38a44.563,44.563,0,1,0,44.563,44.563,44.563,44.563,0,0,0-44.563-44.563Zm7.99,45.634v21.1H332.578v-21.1a13.054,13.054,0,1,1,15.755,0Z" transform="translate(-170.252 -201.382)" fill="#6c63ff"/>
    <rect id="Rectangle_463" data-name="Rectangle 463" width="144.042" height="15.304" transform="translate(233.11 164.714)" fill="#fff"/>
    <rect id="Rectangle_464" data-name="Rectangle 464" width="31.059" height="15.304" transform="translate(346.093 192.622)" fill="#6c63ff"/>
    <path id="Path_702" data-name="Path 702" d="M558.307,426.031H555.7l2.318-2.314a.23.23,0,0,0,0-.32.225.225,0,0,0-.32,0l-2.318,2.318v-2.611a.225.225,0,0,0-.225-.225.23.23,0,0,0-.225.225v2.611l-2.314-2.332a.225.225,0,0,0-.32,0,.23.23,0,0,0,0,.32l2.318,2.314h-2.611a.229.229,0,0,0-.225.225.225.225,0,0,0,.225.225h2.611l-2.318,2.318a.23.23,0,0,0,0,.32.234.234,0,0,0,.32,0l2.314-2.318v2.606a.225.225,0,0,0,.45,0v-2.606l2.318,2.318a.234.234,0,0,0,.32,0,.23.23,0,0,0,0-.32l-2.318-2.318h2.606a.218.218,0,1,0,0-.437Z" transform="translate(-311.018 -253.895)" fill="#6c63ff"/>
    <path id="Path_703" data-name="Path 703" d="M579.307,426.031H576.7l2.318-2.314a.23.23,0,0,0,0-.32.225.225,0,0,0-.32,0l-2.318,2.318v-2.611a.225.225,0,0,0-.225-.225.23.23,0,0,0-.225.225v2.611l-2.314-2.332a.225.225,0,0,0-.32,0,.23.23,0,0,0,0,.32l2.318,2.314h-2.611a.229.229,0,0,0-.225.225.225.225,0,0,0,.225.225h2.611l-2.318,2.318a.23.23,0,0,0,0,.32.234.234,0,0,0,.32,0l2.314-2.318v2.606a.225.225,0,0,0,.45,0v-2.606l2.318,2.318a.234.234,0,0,0,.32,0,.23.23,0,0,0,0-.32l-2.318-2.318h2.606a.218.218,0,1,0,0-.437Z" transform="translate(-322.565 -253.895)" fill="#6c63ff"/>
    <path id="Path_704" data-name="Path 704" d="M600.307,426.031H597.7l2.318-2.314a.23.23,0,0,0,0-.32.225.225,0,0,0-.32,0l-2.318,2.318v-2.611a.225.225,0,0,0-.225-.225.23.23,0,0,0-.225.225v2.611l-2.314-2.332a.225.225,0,0,0-.32,0,.23.23,0,0,0,0,.32l2.318,2.314h-2.611a.229.229,0,0,0-.225.225.225.225,0,0,0,.225.225h2.611l-2.318,2.318a.23.23,0,0,0,0,.32.234.234,0,0,0,.32,0l2.314-2.318v2.606a.225.225,0,0,0,.45,0v-2.606l2.318,2.318a.234.234,0,0,0,.32,0,.23.23,0,0,0,0-.32l-2.318-2.318h2.606a.218.218,0,1,0,0-.437Z" transform="translate(-334.112 -253.895)" fill="#6c63ff"/>
    <path id="Path_705" data-name="Path 705" d="M621.307,426.031H618.7l2.318-2.314a.23.23,0,0,0,0-.32.225.225,0,0,0-.32,0l-2.318,2.318v-2.611a.225.225,0,0,0-.225-.225.229.229,0,0,0-.225.225v2.611l-2.314-2.332a.225.225,0,0,0-.32,0,.229.229,0,0,0,0,.32l2.318,2.314h-2.611a.23.23,0,0,0-.225.225.225.225,0,0,0,.225.225h2.611l-2.318,2.318a.23.23,0,0,0,0,.32.234.234,0,0,0,.32,0l2.314-2.318v2.606a.225.225,0,1,0,.45,0v-2.606l2.318,2.318a.234.234,0,0,0,.32,0,.23.23,0,0,0,0-.32l-2.318-2.318h2.606a.218.218,0,1,0,0-.437Z" transform="translate(-345.659 -253.895)" fill="#6c63ff"/>
    <path id="Path_706" data-name="Path 706" d="M642.307,426.031H639.7l2.318-2.314a.229.229,0,0,0,0-.32.225.225,0,0,0-.32,0l-2.318,2.318v-2.611a.225.225,0,0,0-.225-.225.23.23,0,0,0-.225.225v2.611l-2.314-2.332a.225.225,0,0,0-.319,0,.229.229,0,0,0,0,.32l2.318,2.314h-2.611a.23.23,0,0,0-.225.225.225.225,0,0,0,.225.225h2.611l-2.318,2.318a.229.229,0,0,0,0,.32.234.234,0,0,0,.319,0l2.314-2.318v2.606a.225.225,0,1,0,.45,0v-2.606l2.318,2.318a.234.234,0,0,0,.32,0,.229.229,0,0,0,0-.32l-2.318-2.318h2.606a.218.218,0,1,0,0-.437Z" transform="translate(-357.207 -253.895)" fill="#6c63ff"/>
    <path id="Path_707" data-name="Path 707" d="M663.307,426.031H660.7l2.318-2.314a.23.23,0,0,0,0-.32.225.225,0,0,0-.32,0l-2.318,2.318v-2.611a.225.225,0,0,0-.225-.225.23.23,0,0,0-.225.225v2.611l-2.314-2.332a.225.225,0,0,0-.32,0,.23.23,0,0,0,0,.32l2.318,2.314h-2.611a.229.229,0,0,0-.225.225.225.225,0,0,0,.225.225h2.611l-2.318,2.318a.23.23,0,0,0,0,.32.234.234,0,0,0,.32,0l2.314-2.318v2.606a.225.225,0,0,0,.45,0v-2.606l2.318,2.318a.234.234,0,0,0,.32,0,.23.23,0,0,0,0-.32l-2.318-2.318h2.606a.218.218,0,1,0,0-.437Z" transform="translate(-368.754 -253.895)" fill="#6c63ff"/>
    <path id="Path_708" data-name="Path 708" d="M684.307,426.031H681.7l2.318-2.314a.229.229,0,0,0,0-.32.225.225,0,0,0-.32,0l-2.318,2.318v-2.611a.225.225,0,0,0-.225-.225.23.23,0,0,0-.225.225v2.611l-2.314-2.332a.225.225,0,0,0-.32,0,.23.23,0,0,0,0,.32l2.318,2.314h-2.611a.229.229,0,0,0-.225.225.225.225,0,0,0,.225.225h2.611l-2.318,2.318a.23.23,0,0,0,0,.32.234.234,0,0,0,.32,0l2.314-2.318v2.606a.225.225,0,0,0,.45,0v-2.606l2.318,2.318a.234.234,0,0,0,.32,0,.23.23,0,0,0,0-.32l-2.318-2.318h2.606a.218.218,0,1,0,0-.437Z" transform="translate(-380.301 -253.895)" fill="#6c63ff"/>
    <path id="Path_709" data-name="Path 709" d="M705.307,426.031H702.7l2.318-2.314a.23.23,0,0,0,0-.32.225.225,0,0,0-.32,0l-2.318,2.318v-2.611a.225.225,0,0,0-.225-.225.23.23,0,0,0-.225.225v2.611l-2.314-2.332a.225.225,0,0,0-.32,0,.229.229,0,0,0,0,.32l2.318,2.314h-2.611a.229.229,0,0,0-.225.225.225.225,0,0,0,.225.225h2.611l-2.318,2.318a.229.229,0,0,0,0,.32.234.234,0,0,0,.32,0l2.314-2.318v2.606a.225.225,0,1,0,.45,0v-2.606l2.318,2.318a.234.234,0,0,0,.32,0,.23.23,0,0,0,0-.32l-2.318-2.318h2.606a.218.218,0,1,0,0-.437Z" transform="translate(-391.848 -253.895)" fill="#6c63ff"/>
    <path id="Path_710" data-name="Path 710" d="M726.307,426.031H723.7l2.318-2.314a.23.23,0,0,0,0-.32.225.225,0,0,0-.32,0l-2.318,2.318v-2.611a.225.225,0,0,0-.225-.225.23.23,0,0,0-.225.225v2.611l-2.314-2.332a.225.225,0,0,0-.32,0,.229.229,0,0,0,0,.32l2.318,2.314h-2.611a.229.229,0,0,0-.225.225.225.225,0,0,0,.225.225h2.611l-2.318,2.318a.23.23,0,0,0,0,.32.234.234,0,0,0,.32,0l2.314-2.318v2.606a.225.225,0,1,0,.45,0v-2.606l2.318,2.318a.234.234,0,0,0,.32,0,.23.23,0,0,0,0-.32l-2.318-2.318h2.606a.218.218,0,1,0,0-.437Z" transform="translate(-403.396 -253.895)" fill="#6c63ff"/>
    <path id="Path_711" data-name="Path 711" d="M747.307,426.031H744.7l2.318-2.314a.23.23,0,0,0,0-.32.225.225,0,0,0-.32,0l-2.318,2.318v-2.611a.225.225,0,0,0-.225-.225.23.23,0,0,0-.225.225v2.611l-2.314-2.332a.225.225,0,0,0-.32,0,.229.229,0,0,0,0,.32l2.318,2.314h-2.611a.23.23,0,0,0-.225.225.225.225,0,0,0,.225.225h2.611l-2.318,2.318a.23.23,0,0,0,0,.32.234.234,0,0,0,.32,0l2.314-2.318v2.606a.225.225,0,1,0,.45,0v-2.606l2.318,2.318a.234.234,0,0,0,.32,0,.23.23,0,0,0,0-.32l-2.318-2.318h2.606a.218.218,0,1,0,0-.437Z" transform="translate(-414.943 -253.895)" fill="#6c63ff"/>
    <path id="Path_712" data-name="Path 712" d="M768.307,426.031H765.7l2.318-2.314a.23.23,0,0,0,0-.32.225.225,0,0,0-.32,0l-2.318,2.318v-2.611a.225.225,0,0,0-.225-.225.23.23,0,0,0-.225.225v2.611l-2.314-2.332a.225.225,0,0,0-.319,0,.23.23,0,0,0,0,.32l2.318,2.314H762a.229.229,0,0,0-.225.225.225.225,0,0,0,.225.225h2.611l-2.318,2.318a.23.23,0,0,0,0,.32.234.234,0,0,0,.32,0l2.314-2.318v2.606a.225.225,0,1,0,.45,0v-2.606l2.318,2.318a.234.234,0,0,0,.32,0,.23.23,0,0,0,0-.32l-2.318-2.318h2.606a.218.218,0,1,0,0-.437Z" transform="translate(-426.49 -253.895)" fill="#6c63ff"/>
    <path id="Path_713" data-name="Path 713" d="M853.786,505.244a8.05,8.05,0,0,0-.2-1.616c-.405-1.521-1.319-3.363-2.822-3.822a23.693,23.693,0,0,1-4.474-1.891c-.27-4.825.837-9.763-.369-14.44a36.748,36.748,0,0,1-1.391-5.1c-.248-2.179.347-4.5-.522-6.509a6.424,6.424,0,0,0-3.8-3.286,20.266,20.266,0,0,0-5.073-.9c-2.161-.176-9.156-1-11.6.927h0a2.552,2.552,0,0,0-.45.45h0a1.792,1.792,0,0,0-.144.234l-.023.036a1.836,1.836,0,0,0-.122.293h0a2.258,2.258,0,0,0-.076.338v.81c.031.4.09.81.09,1.211a2.6,2.6,0,0,1-.054.594,4.159,4.159,0,0,1-.747,1.458h0l-.081.117c-.049.072-.1.14-.144.212s-.081.126-.117.189-.072.1-.1.162a2.166,2.166,0,0,0-.117.23c0,.045-.049.085-.068.131a2.217,2.217,0,0,0-.135.378,2.511,2.511,0,0,0-.027,1.2,4.457,4.457,0,0,0,.617,1.418c.113.184.234.365.36.545l.315.428a9.667,9.667,0,0,0-.095,1.26,9.312,9.312,0,0,0,3.555,7.318,27.558,27.558,0,0,1-.057,5.713c-.04.4-.09.8-.144,1.193s-.095.657-.149.986a4.571,4.571,0,0,1-1.967-.149,9.253,9.253,0,0,0-.9-.347c-1.31-.329-2.647.977-3.943.581a.528.528,0,0,1-.058.18,1.764,1.764,0,0,0-.9-.266,3.284,3.284,0,0,1-1.954-1.121l-1.715-1.616a1.9,1.9,0,0,1-.3-.333,2.333,2.333,0,0,1-.207-.554,6.382,6.382,0,0,0-1.661-2.381,1.124,1.124,0,0,0-.491-.356.756.756,0,0,0-.225,0,1.979,1.979,0,0,0-.148-.18,4.229,4.229,0,0,0-.374-.378c-.819-.756-.9-1.4-1.612-2.251a21.629,21.629,0,0,1-1.683-2.543c-.058-.473-.14-.959-.239-1.449a18.662,18.662,0,0,0-.986-3.286l-.9-1.994-.1.1c-.653-.972-1.35-1.5-1.976-1.377-1.049.216-1.567,2.251-1.4,4.911l.36,2.7a.836.836,0,0,0,.049.2,4.987,4.987,0,0,0-.1.972c0,.378.351.657.536.995a2.814,2.814,0,0,1,.45,1.535c-.022.194-.081.378-.09.567a2.183,2.183,0,0,0,.423,1.17l2.251,3.781.45.792.027.036a1.924,1.924,0,0,0,.6.693,8.246,8.246,0,0,0,.743,2.732c.077.171.162.333.252.5a15.913,15.913,0,0,0,2.125,2.759l1.071,1.2c1.058,1.179,2.116,2.363,3.263,3.453a4.37,4.37,0,0,0,1.458,1.022,1.652,1.652,0,0,0,1.639-.239v1.674a.941.941,0,0,1,.711,1.481,37.126,37.126,0,0,1-3.331,7.049,15.008,15.008,0,0,1,2.791,2.129,12.552,12.552,0,0,1,1.454,1.967c.041.333.072.662.09.99.333,5.366-1.742,10.691-3.6,15.8a12.311,12.311,0,0,0-1.076,4.474,8.782,8.782,0,0,0-1.008.725,6.674,6.674,0,0,1,.184,2.854,5.055,5.055,0,0,1-.374,1.8,12.618,12.618,0,0,1-.648,1.157,17.179,17.179,0,0,0-1.656,6.851c-.14,1.418.409,3.151-.234,4.42a18.08,18.08,0,0,0-2.251,6.923,6.932,6.932,0,0,1-.207,1.616c-.14.45-.387.833-.513,1.274a5.448,5.448,0,0,0-.09,1.8,17.233,17.233,0,0,1-.945,6.351c-.563,1.607-1.184,3.327-.743,4.979a7.017,7.017,0,0,0-1.9,4.182,6.6,6.6,0,0,1-.144,1.193,5.8,5.8,0,0,1-.54,1.148,10.046,10.046,0,0,0-1.224,5.4,15.024,15.024,0,0,0-2.426,6.338c-.4,2.246-.576,4.533-1.089,6.752-.684,2.935-1.922,5.9-2.165,8.908-1.458.932-2.089,2.737-2.368,4.443a19.786,19.786,0,0,1-1.04,5.073c-.369.819-.9,1.553-1.251,2.39a10.988,10.988,0,0,0-.54,2.057,8.027,8.027,0,0,0-.139,3.376,5.091,5.091,0,0,1-1.319,1c.072-.279.131-.558.18-.842-1.161,1.053-3.268.684-4.2,1.949a1.9,1.9,0,0,0,.45,2.606,3.6,3.6,0,0,0,.932.4c2.251.72,4.565,1.445,6.878,1.062a2.056,2.056,0,0,0,.779-.248,2.507,2.507,0,0,0,.725-.837q.52-.824,1.035-1.647a21.382,21.382,0,0,0,2.525.59c.085.72.148,1.44.18,2.161.45.09,1.053.117,1.265-.3a1.1,1.1,0,0,0,.076-.5c0-.32.045-.743.072-1.175h.09a8.553,8.553,0,0,0,3.984-.806c-.482-3.988,1.107-7.886,2.485-11.659,1.454-3.97,2.7-8.012,3.957-12.055.9-2.845,1.9-5.6,2.777-8.449q1.665-5.4,3.344-10.8c.486-1.585.977-3.151,1.535-4.727a73.61,73.61,0,0,1,4.173-9.286c.45-.851.9-1.692,1.269-2.575.45-1.076.77-2.2,1.13-3.313a51.293,51.293,0,0,1,2.827-6.653c.031-.058.054-.113.086-.167.365,1.49.729,3,.972,4.5a17.109,17.109,0,0,1,.076,5.564,18.355,18.355,0,0,0-.576,3.772c.068,1.76,1.008,3.358,1.472,5.055a19.226,19.226,0,0,1,.5,3.871c.126,2.026,1.224,4.3.45,6.176-2.408,5.946-1.242,12.662-2.615,18.906-.707,3.205-2.872,6.216-2.7,9.493q.18,3.489.612,6.959a6.632,6.632,0,0,0,.563,2.111,7.771,7.771,0,0,0,.617,1.008c-.2.077-.365.279-.509.707a2.777,2.777,0,0,0,1,3.151,4.372,4.372,0,0,0,1.3.45,6.855,6.855,0,0,0,1.881.261,4.368,4.368,0,0,0,.59-.072,21.439,21.439,0,0,0,2.129.765,4.6,4.6,0,0,0,.058.554.69.69,0,0,0,.234.509.7.7,0,0,0,.36.063h2.444v-.612a2.013,2.013,0,0,0,1.553-.5,2.407,2.407,0,0,0,.45-.936q1-3.39,1.985-6.784a21.69,21.69,0,0,0,.968-7.742c-.869-8.3,1.04-16.619.419-24.937a59.728,59.728,0,0,1,.765-14.962c.2-1.116.45-2.251.54-3.362.2-2.1-.045-4.218.1-6.3.049-.729.148-1.454.238-2.179A104.606,104.606,0,0,0,845.2,558.8a42.739,42.739,0,0,0-.279-4.5,2.57,2.57,0,0,0,1.229-.72,3.06,3.06,0,0,0,.293-1.922,13.937,13.937,0,0,1,1.211-4.6,54.651,54.651,0,0,0,1.7-6.329,22.1,22.1,0,0,0,.756-5.289q0-.27-.027-.54a1.4,1.4,0,0,0,.414-.45,2.612,2.612,0,0,0,.216-.833c.162-1.148.329-2.3.491-3.453q.18-1.238.356-2.471l1.431-9.989c.122-.869.248-1.733.369-2.6l.374-2.584c.041-.306.085-.612.117-.9C854.952,509.782,853.9,507.333,853.786,505.244Zm-11.942,37.4a8.226,8.226,0,0,1-.9-3.912h-.049a2.009,2.009,0,0,0-.059-1.269c-.14-.329-.383-.608-.531-.936a3.434,3.434,0,0,1-.243-1.26,34.366,34.366,0,0,1,.644-8.165c.058-.315.122-.635.18-.95a2.347,2.347,0,0,0,.513-.4,3.651,3.651,0,0,0,.581-.9c.509-1.022.972-2.062,1.4-3.119.14-.342.342-.738.689-.824-.072,2.633.2,5.321-.873,7.7a4.873,4.873,0,0,0-.45,1.215c-.1.671.18,1.351.081,2.017-.05.347-.2.666-.257,1.008a.985.985,0,0,0,.261.954.791.791,0,0,0,.193.1c-.027.18-.049.365-.068.54-.036.369-.054.716-.076.932a28.988,28.988,0,0,0-.122,3.313c0,1.193.045,2.386.027,3.6a2.446,2.446,0,0,1-.171,1.022,1.772,1.772,0,0,1-.342.45A11.624,11.624,0,0,0,841.844,542.641Z" transform="translate(-439.502 -278.349)" fill="url(#linear-gradient)"/>
    <ellipse id="Ellipse_144" data-name="Ellipse 144" cx="2.539" cy="7.189" rx="2.539" ry="7.189" transform="matrix(0.98, -0.201, 0.201, 0.98, 361.439, 198.487)" fill="#fbbebe"/>
    <path id="Path_714" data-name="Path 714" d="M878.229,837.585a2.726,2.726,0,0,0,1,3.119,4.448,4.448,0,0,0,1.292.45,6.811,6.811,0,0,0,1.877.257c.779-.036,1.526-.342,2.3-.45a.36.36,0,0,1,.266.036.383.383,0,0,1,.1.315,11.911,11.911,0,0,0,.1,1.323.679.679,0,0,0,.234.509.7.7,0,0,0,.36.063h2.44a23.789,23.789,0,0,0-.7-6.365,1.421,1.421,0,0,0-.18-.45,1.49,1.49,0,0,0-.779-.45,4.354,4.354,0,0,0-1.886-.329,5.525,5.525,0,0,0-2.116,1.035,3.223,3.223,0,0,1-2.4.581C879.327,837.013,878.647,836.334,878.229,837.585Z" transform="translate(-490.444 -480.841)" fill="#3f3d56"/>
    <path id="Path_715" data-name="Path 715" d="M795.128,834.48a6.752,6.752,0,0,1-2.462,1.674l-.414.2a.288.288,0,0,0-.139.112.243.243,0,0,0,.045.2,2.912,2.912,0,0,0,3.3,1.2,1.75,1.75,0,0,0,.725-.378,2.376,2.376,0,0,0,.558-1.449,2.966,2.966,0,0,0-.068-1.661C796.051,832.972,795.822,833.611,795.128,834.48Z" transform="translate(-443.166 -479.711)" fill="#fbbebe"/>
    <path id="Path_716" data-name="Path 716" d="M801.115,840.342a1.092,1.092,0,0,1-.076.5c-.212.414-.8.392-1.26.3a30.3,30.3,0,0,0-.554-4.546c-.873-.04-1.5.788-1.972,1.53l-1.206,1.913a2.493,2.493,0,0,1-.72.837,2.13,2.13,0,0,1-.779.248c-2.3.383-4.632-.342-6.855-1.062a3.634,3.634,0,0,1-.932-.4,1.9,1.9,0,0,1-.45-2.6c.932-1.26,3.025-.9,4.186-1.945a10.478,10.478,0,0,1-.594,2.147c1.553-.234,2.6-1.656,3.849-2.606a2.368,2.368,0,0,1,1.1-.522,2.416,2.416,0,0,1,.9.095,10.562,10.562,0,0,1,3.961,1.949,4.27,4.27,0,0,1,1.418,1.477A10.93,10.93,0,0,1,801.115,840.342Z" transform="translate(-439.799 -480.028)" fill="#3f3d56"/>
    <circle id="Ellipse_145" data-name="Ellipse 145" cx="9.3" cy="9.3" r="9.3" transform="translate(382.982 193.198)" fill="#fbbebe"/>
    <path id="Path_717" data-name="Path 717" d="M917.31,615.73a22.069,22.069,0,0,1-.752,5.262,54.32,54.32,0,0,1-1.7,6.3,13.868,13.868,0,0,0-1.2,4.591,3.053,3.053,0,0,1-.3,1.917,2.8,2.8,0,0,1-1.315.752,1.643,1.643,0,0,0-1.107.986,6.951,6.951,0,0,1-.936-2.062q-1.211-3.709-2.251-7.459a.967.967,0,0,1,.063-.9,1.116,1.116,0,0,1,.392-.221,4.051,4.051,0,0,0,1.247-.8,1.824,1.824,0,0,0,.414-.536,2.429,2.429,0,0,0,.175-1.017c0-1.193,0-2.381-.031-3.574a29.831,29.831,0,0,1,.126-3.3c0-.216.041-.563.076-.932.068-.707.2-1.526.585-1.8.572-.383,2.282.13,2.93.221,1.116.153,2.251.333,3.34.545A8.919,8.919,0,0,1,917.31,615.73Z" transform="translate(-506.709 -358.325)" fill="#3f3d56"/>
    <path id="Path_718" data-name="Path 718" d="M833.229,509.079c-.36.72-1.224,1.067-1.891,1.521l-2.282,1.567a1.521,1.521,0,0,1-1.13.387,1.485,1.485,0,0,1-.842-.788.148.148,0,0,0,0-.036l-.473-.792-2.251-3.772a2.146,2.146,0,0,1-.419-1.161c0-.194.067-.374.086-.567a2.724,2.724,0,0,0-.45-1.53c-.18-.338-.54-.617-.531-.995a3.6,3.6,0,0,1,.252-1.454,2.944,2.944,0,0,1,.986-1.053c.212-.153.428-.3.653-.45a1.287,1.287,0,0,1,.392-.18c.374-.077.743.234,1.121.248,1.625,1.089,2.251,3.151,3.529,4.636.72.846.792,1.494,1.607,2.251.131.117.256.243.378.374a2.607,2.607,0,0,1,.405.585C832.518,508.256,833.414,508.71,833.229,509.079Z" transform="translate(-460.178 -296.17)" fill="#3f3d56"/>
    <path id="Path_719" data-name="Path 719" d="M876.009,509.64a8.379,8.379,0,0,1,1,4.533,2.829,2.829,0,0,1-.392,1.193c-.648.995-2.008,1.175-3.192,1.233a1.882,1.882,0,0,0-1.386.45,1.26,1.26,0,0,0,.085,1.539,3.475,3.475,0,0,0,1.377.9,12.2,12.2,0,0,0,5.928,1.314c.945-.09,1.863-.365,2.8-.5a29.451,29.451,0,0,1,3.088-.171c1.224-.045,2.444-.166,3.664-.288l3.232-.32a.72.72,0,0,0,.482-.176c.239-.279-.068-.689-.365-.9-1.715-1.269-3.9-2.143-4.875-4.051a23.878,23.878,0,0,1-.923-2.944,24.753,24.753,0,0,1-1.071-2.84,18.822,18.822,0,0,1-.149-2.62,3.516,3.516,0,0,0-.9-2.395,3.753,3.753,0,0,0-2.449-.788A7.927,7.927,0,0,0,876,504.742c-.409.41-.761.9-1.184,1.269s-1,.477-.72.963.828.788,1.125,1.215A10.34,10.34,0,0,1,876.009,509.64Z" transform="translate(-486.996 -297.838)" fill="#fbbebe"/>
    <path id="Path_720" data-name="Path 720" d="M882.438,532.955a51.141,51.141,0,0,1-2.755,10.141,38.2,38.2,0,0,0-1.621,4.546c-.347,1.4-.279,2.89-.6,4.29-.4,1.742-.792,3.488-1.112,5.244a34.388,34.388,0,0,0-.639,8.147,3.407,3.407,0,0,0,.243,1.256c.148.324.387.6.527.936a2.251,2.251,0,0,1-.126,1.8,5.214,5.214,0,0,1-.927,1.4c-4.2,1.251-8.683.842-13.054,1.107-4.029.243-8.1,1.071-12.073.383-.45-1.8.3-3.687.945-5.442,1.868-5.1,3.934-10.412,3.6-15.755a16.349,16.349,0,0,0-.211-1.859,24.645,24.645,0,0,1,1.2-11.375,19.519,19.519,0,0,0,.513-7.1,12.97,12.97,0,0,1-.031-2.327,4.091,4.091,0,0,1,.846-2.174c0-.031.04-.063.063-.095a.618.618,0,0,1,.338,0h0a.289.289,0,0,0,.225,0l.049-.031a.113.113,0,0,1,.131,0c.1.063.162.279.387.32a9.01,9.01,0,0,0,1,.095,5.4,5.4,0,0,1,1.2.171h.054a3.515,3.515,0,0,0,1.746-.149,4.644,4.644,0,0,0,1.071-.414c.1-.108.72-.207.846-.284.41-.248.32-1.409.405-1.886a5.181,5.181,0,0,1,.338-1.4,2.377,2.377,0,0,1,1.926-1.121,10.256,10.256,0,0,1,2.309.207c1.679.239,3.4.2,5.046.585a3.759,3.759,0,0,0,2.494.108c.207.049.239.229.239.45a2.888,2.888,0,0,1-.126.617c-.288,1.242.689,2.386,1.589,3.286a5.094,5.094,0,0,0,1.328,1.058c.45.207.9.293,1.35.518a2.457,2.457,0,0,1,.9.824,3.44,3.44,0,0,1,.513,1.31A7.832,7.832,0,0,1,882.438,532.955Z" transform="translate(-475.091 -308.059)" fill="#3f3d56"/>
    <path id="Path_721" data-name="Path 721" d="M887.612,538.628a51.15,51.15,0,0,1-2.755,10.142,38.213,38.213,0,0,0-1.621,4.546c-.347,1.4-.279,2.89-.6,4.29-.4,1.742-.792,3.489-1.112,5.244-.095.054-.194.1-.293.148a6.9,6.9,0,0,1-1.765.567,10.8,10.8,0,0,1-3.295-.108l-6.424-.86c-2.566-.347-5.3-.765-7.2-2.5a15.36,15.36,0,0,1-2.512-3.43,16.371,16.371,0,0,0-.212-1.859,24.645,24.645,0,0,1,1.2-11.375,19.522,19.522,0,0,0,.513-7.1A12.983,12.983,0,0,1,861.5,534a4.091,4.091,0,0,1,.846-2.174,3.205,3.205,0,0,1,.4-.09h0a2,2,0,0,1,.275-.036h.13a1.963,1.963,0,0,1,.45.054,8.177,8.177,0,0,1,.9.347h.054a3.445,3.445,0,0,0,1.2.171c.594,0,1.206-.095,1.8-.135a3.322,3.322,0,0,1,2.134.383,12.776,12.776,0,0,1,1.188,1.085,5.1,5.1,0,0,0,1.5.815,15.93,15.93,0,0,0,11.983-.252,2.346,2.346,0,0,1,1.2-.306,2.252,2.252,0,0,1,.864.369c.27.157.536.311.81.45a3.436,3.436,0,0,1,.513,1.31A7.834,7.834,0,0,1,887.612,538.628Z" transform="translate(-480.265 -313.731)" opacity="0.1"/>
    <path id="Path_722" data-name="Path 722" d="M886.784,534.592a24.022,24.022,0,0,1-5.132-2.251,2.3,2.3,0,0,0-.864-.369,2.417,2.417,0,0,0-1.206.306,15.921,15.921,0,0,1-11.978.252,5.209,5.209,0,0,1-1.5-.815,13.49,13.49,0,0,0-1.188-1.085c-1.481-.959-3.529.167-5.185-.45a9.158,9.158,0,0,0-.9-.347c-1.31-.329-2.642.977-3.93.581a21.89,21.89,0,0,0-1.058,4.015,43.785,43.785,0,0,0-.293,4.735c0,.95-.045,1.9,0,2.849a.935.935,0,0,1,.711,1.477,36.9,36.9,0,0,1-3.322,7.027,15.27,15.27,0,0,1,2.782,2.125c1.575,1.666,2.35,4,4.051,5.541,1.918,1.733,4.65,2.156,7.2,2.5l6.423.86a10.98,10.98,0,0,0,3.3.113,6.945,6.945,0,0,0,1.76-.572,3.15,3.15,0,0,0,.981-.648,3.6,3.6,0,0,0,.581-.9c.509-1.017.972-2.057,1.4-3.11.149-.374.374-.81.779-.842,2.386-2.152,4.636-4.357,7.022-6.509a15.563,15.563,0,0,0,2.561-2.7c1.184-1.751.108-4.231,0-6.347a8.025,8.025,0,0,0-.2-1.607C889.192,536.883,888.283,535.047,886.784,534.592Z" transform="translate(-475.516 -312.676)" fill="#6c63ff"/>
    <path id="Path_723" data-name="Path 723" d="M838.16,518.165c-.36.72-1.224,1.067-1.891,1.522l-2.282,1.566a1.522,1.522,0,0,1-1.13.387,1.486,1.486,0,0,1-.842-.788v-.324a3.022,3.022,0,0,1,.144-1.076,3.353,3.353,0,0,1,1.008-1.3,8.254,8.254,0,0,1,2.957-1.8,1.012,1.012,0,0,1,.54-.054.712.712,0,0,1,.2.085,2.609,2.609,0,0,1,.405.585C837.449,517.342,838.345,517.8,838.16,518.165Z" transform="translate(-465.108 -305.256)" opacity="0.1"/>
    <path id="Path_724" data-name="Path 724" d="M844.216,523.265a3.278,3.278,0,0,1-1.949-1.116l-1.706-1.585a1.59,1.59,0,0,1-.3-.333,2.336,2.336,0,0,1-.207-.554A6.351,6.351,0,0,0,838.4,517.3a1.08,1.08,0,0,0-.491-.351.985.985,0,0,0-.545.054,8.231,8.231,0,0,0-2.957,1.8,3.362,3.362,0,0,0-1.008,1.3,2.993,2.993,0,0,0-.144,1.076,8.266,8.266,0,0,0,.783,3.439c.076.167.162.333.252.5a15.6,15.6,0,0,0,2.116,2.75l1.071,1.2c1.053,1.179,2.107,2.359,3.25,3.443a4.294,4.294,0,0,0,1.458,1.017,1.63,1.63,0,0,0,1.675-.27,2.422,2.422,0,0,0,.477-.855,16.836,16.836,0,0,0,1.391-5.613,21.208,21.208,0,0,0-.1-2.327C845.562,523.634,844.981,523.315,844.216,523.265Z" transform="translate(-465.79 -305.612)" fill="#6c63ff"/>
    <path id="Path_725" data-name="Path 725" d="M852.2,645.661a104.019,104.019,0,0,1-.963,13.536c-.09.725-.189,1.449-.238,2.174-.149,2.1.094,4.213-.1,6.3-.1,1.13-.338,2.251-.536,3.353a59.627,59.627,0,0,0-.765,14.922c.621,8.3-1.283,16.6-.419,24.87a20.1,20.1,0,0,1-.266,4.812,20.4,20.4,0,0,1-.7,2.908q-.986,3.381-1.981,6.752a2.342,2.342,0,0,1-.45.936,2.133,2.133,0,0,1-1.688.5c-2.6-.081-5.042-1.2-7.4-2.3a2.582,2.582,0,0,1-.743-.45c-.491-.509-.45-1.31-.666-1.981a18.849,18.849,0,0,0-1.134-1.99,6.5,6.5,0,0,1-.491-2.048q-.45-3.457-.612-6.941c-.171-3.268,1.99-6.275,2.7-9.453,1.35-6.248.207-12.946,2.606-18.874.756-1.872-.342-4.141-.45-6.158a19.516,19.516,0,0,0-.5-3.862c-.45-1.693-1.4-3.286-1.467-5.042a18.513,18.513,0,0,1,.572-3.759,16.892,16.892,0,0,0-.076-5.55c-.239-1.513-.6-3.025-.968-4.5l-.081.167a50.824,50.824,0,0,0-2.822,6.639c-.36,1.1-.675,2.228-1.125,3.3-.369.9-.824,1.724-1.269,2.57a73.824,73.824,0,0,0-4.164,9.25c-.558,1.557-1.049,3.151-1.535,4.713l-3.335,10.8c-.9,2.84-1.886,5.586-2.768,8.422-1.247,4.051-2.494,8.066-3.943,12.028-1.35,3.759-2.957,7.652-2.476,11.622a8.55,8.55,0,0,1-3.975.806,23.27,23.27,0,0,1-6.752-1.638,5.248,5.248,0,0,1-2.332-1.387c-1-1.22-.752-3.007-.45-4.56a11.026,11.026,0,0,1,.54-2.053c.342-.828.9-1.562,1.252-2.381a19.976,19.976,0,0,0,1.031-5.055c.279-1.706.9-3.507,2.359-4.434.247-3,1.481-5.955,2.161-8.886.513-2.219.684-4.5,1.089-6.752a14.83,14.83,0,0,1,2.417-6.324,10.024,10.024,0,0,1,1.224-5.4,5.91,5.91,0,0,0,.536-1.148,6.6,6.6,0,0,0,.144-1.188,7.027,7.027,0,0,1,1.9-4.173c-.45-1.643.176-3.358.738-4.951a17.2,17.2,0,0,0,.945-6.333,5.552,5.552,0,0,1,.086-1.8c.126-.45.374-.833.518-1.265a7.211,7.211,0,0,0,.2-1.616,18.69,18.69,0,0,1,2.251-6.905c.648-1.269.1-2.993.234-4.407a17.035,17.035,0,0,1,1.656-6.829c.216-.387.45-.756.644-1.157a5.009,5.009,0,0,0,.374-1.8,6.631,6.631,0,0,0-.185-2.845c2.408-2,5.694-2.566,8.827-2.7s6.3.149,9.367-.518c.9-.2,1.8-.482,2.75-.617a17.791,17.791,0,0,1,6.473.662,7.71,7.71,0,0,0,.9,3.9A41.9,41.9,0,0,1,852.2,645.661Z" transform="translate(-446.499 -364.989)" fill="#33313f"/>
    <path id="Path_726" data-name="Path 726" d="M887.061,673.29l-5.172,11.631c-.239-1.512-.6-3.025-.968-4.5l-.081.167v-.243l2.818-6.2Z" transform="translate(-491.957 -391.587)" opacity="0.1"/>
    <path id="Path_727" data-name="Path 727" d="M920.38,615.73a1.944,1.944,0,0,1-1.026.383,5,5,0,0,1-1.683-.23l-4.051-1.013a1.99,1.99,0,0,1-.369-.131c.068-.707.2-1.526.585-1.8.572-.383,2.282.13,2.93.221,1.116.153,2.251.333,3.34.545A8.9,8.9,0,0,1,920.38,615.73Z" transform="translate(-509.778 -358.325)" opacity="0.1"/>
    <path id="Path_728" data-name="Path 728" d="M923.292,558.055c.085.374.207.743.279,1.121a8.557,8.557,0,0,1-.095,2.786l-.369,2.575-.369,2.588-1.427,9.961-.351,2.467-.5,3.444a2.472,2.472,0,0,1-.216.828,1.724,1.724,0,0,1-1.409.833,5.1,5.1,0,0,1-1.684-.23l-4.051-1.017a1.272,1.272,0,0,1-.5-.2.977.977,0,0,1-.261-.95c.058-.342.207-.662.256-1,.1-.666-.18-1.35-.081-2.012a5.005,5.005,0,0,1,.45-1.211c1.35-2.984.567-6.468,1.026-9.709a14.72,14.72,0,0,1,3.124-6.95,19.945,19.945,0,0,1,3.448-3.385,6.943,6.943,0,0,1,1.94-1.35C923.328,556.466,923.157,557.487,923.292,558.055Z" transform="translate(-509.265 -327.433)" fill="#6c63ff"/>
    <path id="Path_729" data-name="Path 729" d="M863.46,470.879c-.3.945.167,1.985-.045,2.948-.229,1.062-1.229,1.8-1.512,2.867-.45,1.625.927,3.106,1.936,4.456,3.736,5.015,3.245,11.956,1.967,18.073a93.323,93.323,0,0,1-4.254,14.4,11.037,11.037,0,0,1-2.291,4.02c2.07-.594,4.272-1.193,6.347-.617,2.629.729,4.9,3.281,7.562,2.7,1.6-.356,2.728-1.778,4.168-2.566,2.7-1.454,5.955-.54,8.967-.072a3.52,3.52,0,0,0,1.958-.1,3.255,3.255,0,0,0,1.188-1.094,11.1,11.1,0,0,0,2.314-5.987,7.679,7.679,0,0,0-2.21-5.91,12.652,12.652,0,0,1-1.9-1.8,5.592,5.592,0,0,1-.743-2.728c-.356-4.951.851-10.006-.392-14.8a36.523,36.523,0,0,1-1.382-5.086c-.247-2.174.342-4.5-.522-6.491a6.366,6.366,0,0,0-3.795-3.277,20.786,20.786,0,0,0-5.059-.9C873.3,468.718,864.491,467.66,863.46,470.879Z" transform="translate(-480.091 -279.031)" fill="#33313f"/>
    <g id="Group_98" data-name="Group 98" transform="translate(379.169 190.817)" opacity="0.1">
      <path id="Path_730" data-name="Path 730" d="M868.631,507.4a93.133,93.133,0,0,1-4.231,14.346c.311-.617.572-1.265.819-1.909a92.807,92.807,0,0,0,4.254-14.4c1.283-6.122,1.774-13.054-1.963-18.073-.9-1.2-2.057-2.494-2.017-3.9a4.8,4.8,0,0,0-.765,1.413c-.45,1.625.927,3.106,1.936,4.456C870.4,494.34,869.91,501.281,868.631,507.4Z" transform="translate(-862.086 -478.022)"/>
      <path id="Path_731" data-name="Path 731" d="M868.465,474.9a4.379,4.379,0,0,0,.792-1.517,7.705,7.705,0,0,0-.054-2.008,2.165,2.165,0,0,0-.747,1.031A8.909,8.909,0,0,0,868.465,474.9Z" transform="translate(-864.257 -471.38)"/>
      <path id="Path_732" data-name="Path 732" d="M890.3,567.36a3.241,3.241,0,0,1-1.188,1.089,3.441,3.441,0,0,1-1.958.1c-3.011-.45-6.3-1.377-8.967.076-1.445.783-2.566,2.206-4.173,2.566-2.66.594-4.929-1.958-7.558-2.7a10.551,10.551,0,0,0-5.7.45,7.868,7.868,0,0,1-1.49,2.152c2.071-.594,4.272-1.193,6.347-.617,2.629.729,4.9,3.281,7.562,2.7,1.6-.356,2.728-1.778,4.168-2.566,2.7-1.454,5.955-.54,8.967-.072a3.52,3.52,0,0,0,1.958-.1,3.254,3.254,0,0,0,1.188-1.094,12.1,12.1,0,0,0,1.863-3.565A13.1,13.1,0,0,1,890.3,567.36Z" transform="translate(-859.26 -523.288)"/>
    </g>
  </g>
</svg>
