<svg width="340" height="227" viewBox="0 0 340 227" fill="none" xmlns="http://www.w3.org/2000/svg">
<rect width="340" height="226.667" rx="8" fill="url(#paint0_linear)"/>
<path d="M37.5317 185.569C36.281 185.569 35.329 185.233 34.6757 184.561C34.0317 183.889 33.6864 182.96 33.6397 181.775C33.6304 181.523 33.6257 181.112 33.6257 180.543C33.6257 179.964 33.6304 179.544 33.6397 179.283C33.6864 178.107 34.0364 177.183 34.6897 176.511C35.343 175.829 36.2904 175.489 37.5317 175.489C38.3624 175.489 39.067 175.638 39.6457 175.937C40.2244 176.226 40.663 176.609 40.9617 177.085C41.2604 177.561 41.4237 178.069 41.4517 178.611V178.639C41.4517 178.713 41.419 178.779 41.3537 178.835C41.2977 178.881 41.2324 178.905 41.1577 178.905H40.3877C40.201 178.905 40.0844 178.797 40.0377 178.583C39.879 177.883 39.5944 177.393 39.1837 177.113C38.773 176.823 38.2224 176.679 37.5317 176.679C35.9264 176.679 35.0957 177.57 35.0397 179.353C35.0304 179.605 35.0257 179.992 35.0257 180.515C35.0257 181.037 35.0304 181.434 35.0397 181.705C35.0957 183.487 35.9264 184.379 37.5317 184.379C38.2224 184.379 38.773 184.239 39.1837 183.959C39.6037 183.669 39.8884 183.175 40.0377 182.475C40.0657 182.353 40.1077 182.269 40.1637 182.223C40.2197 182.176 40.2944 182.153 40.3877 182.153H41.1577C41.2417 182.153 41.3117 182.181 41.3677 182.237C41.433 182.283 41.461 182.349 41.4517 182.433C41.4237 182.983 41.2604 183.497 40.9617 183.973C40.663 184.449 40.2244 184.836 39.6457 185.135C39.067 185.424 38.3624 185.569 37.5317 185.569ZM42.8542 185.429C42.7796 185.429 42.7142 185.401 42.6582 185.345C42.6022 185.289 42.5742 185.223 42.5742 185.149C42.5742 185.074 42.5789 185.023 42.5882 184.995L46.0602 175.937C46.1349 175.731 46.2842 175.629 46.5082 175.629H47.4602C47.6842 175.629 47.8336 175.731 47.9082 175.937L51.3662 184.995L51.3942 185.149C51.3942 185.223 51.3662 185.289 51.3102 185.345C51.2542 185.401 51.1889 185.429 51.1142 185.429H50.4002C50.2976 185.429 50.2182 185.405 50.1622 185.359C50.1062 185.303 50.0689 185.247 50.0502 185.191L49.2802 183.203H44.6882L43.9182 185.191C43.8996 185.247 43.8576 185.303 43.7922 185.359C43.7362 185.405 43.6616 185.429 43.5682 185.429H42.8542ZM48.8742 181.999L46.9842 177.029L45.0942 181.999H48.8742ZM53.4931 185.429C53.3998 185.429 53.3205 185.401 53.2551 185.345C53.1991 185.279 53.1711 185.2 53.1711 185.107V175.965C53.1711 175.862 53.1991 175.783 53.2551 175.727C53.3205 175.661 53.3998 175.629 53.4931 175.629H56.9091C57.9825 175.629 58.8225 175.881 59.4291 176.385C60.0358 176.889 60.3391 177.617 60.3391 178.569C60.3391 179.278 60.1618 179.861 59.8071 180.319C59.4618 180.776 58.9718 181.093 58.3371 181.271L60.4931 184.995C60.5211 185.051 60.5351 185.102 60.5351 185.149C60.5351 185.223 60.5025 185.289 60.4371 185.345C60.3811 185.401 60.3158 185.429 60.2411 185.429H59.5691C59.4291 185.429 59.3171 185.396 59.2331 185.331C59.1585 185.265 59.0885 185.172 59.0231 185.051L56.9931 181.495H54.5431V185.107C54.5431 185.2 54.5105 185.279 54.4451 185.345C54.3798 185.401 54.3005 185.429 54.2071 185.429H53.4931ZM56.8531 180.305C58.2438 180.305 58.9391 179.721 58.9391 178.555C58.9391 177.388 58.2438 176.805 56.8531 176.805H54.5431V180.305H56.8531ZM62.947 185.429C62.8536 185.429 62.7743 185.401 62.709 185.345C62.653 185.279 62.625 185.2 62.625 185.107V175.965C62.625 175.862 62.653 175.783 62.709 175.727C62.7743 175.661 62.8536 175.629 62.947 175.629H66.125C67.5343 175.629 68.5516 175.946 69.177 176.581C69.8023 177.206 70.129 178.153 70.157 179.423C70.1663 179.693 70.171 180.057 70.171 180.515C70.171 180.972 70.1663 181.341 70.157 181.621C70.129 182.507 69.9796 183.231 69.709 183.791C69.4476 184.341 69.0323 184.752 68.463 185.023C67.8936 185.293 67.1376 185.429 66.195 185.429H62.947ZM66.125 184.239C66.769 184.239 67.2776 184.15 67.651 183.973C68.0336 183.795 68.309 183.515 68.477 183.133C68.6543 182.741 68.7523 182.218 68.771 181.565C68.7896 181.005 68.799 180.655 68.799 180.515C68.799 180.365 68.7896 180.02 68.771 179.479C68.7523 178.555 68.533 177.883 68.113 177.463C67.693 177.033 67.007 176.819 66.055 176.819H63.997V184.239H66.125ZM76.5909 185.429C76.4976 185.429 76.4183 185.401 76.3529 185.345C76.2969 185.279 76.2689 185.2 76.2689 185.107V175.965C76.2689 175.862 76.2969 175.783 76.3529 175.727C76.4183 175.661 76.4976 175.629 76.5909 175.629H77.3049C77.4076 175.629 77.4869 175.661 77.5429 175.727C77.6083 175.783 77.6409 175.862 77.6409 175.965V179.829H82.4569V175.965C82.4569 175.862 82.4849 175.783 82.5409 175.727C82.6063 175.661 82.6856 175.629 82.7789 175.629H83.4929C83.5956 175.629 83.6749 175.661 83.7309 175.727C83.7963 175.783 83.8289 175.862 83.8289 175.965V185.107C83.8289 185.2 83.7963 185.279 83.7309 185.345C83.6656 185.401 83.5863 185.429 83.4929 185.429H82.7789C82.6856 185.429 82.6063 185.401 82.5409 185.345C82.4849 185.279 82.4569 185.2 82.4569 185.107V181.089H77.6409V185.107C77.6409 185.2 77.6083 185.279 77.5429 185.345C77.4776 185.401 77.3983 185.429 77.3049 185.429H76.5909ZM90.0711 185.569C88.8484 185.569 87.9011 185.251 87.2291 184.617C86.5664 183.973 86.2164 183.007 86.1791 181.719C86.1698 181.439 86.1651 181.042 86.1651 180.529C86.1651 180.015 86.1698 179.623 86.1791 179.353C86.2164 178.093 86.5804 177.136 87.2711 176.483C87.9618 175.82 88.8951 175.489 90.0711 175.489C91.2378 175.489 92.1664 175.82 92.8571 176.483C93.5478 177.136 93.9118 178.093 93.9491 179.353C93.9678 179.894 93.9771 180.286 93.9771 180.529C93.9771 180.762 93.9678 181.159 93.9491 181.719C93.9118 183.007 93.5571 183.973 92.8851 184.617C92.2224 185.251 91.2844 185.569 90.0711 185.569ZM90.0711 184.379C90.8084 184.379 91.3964 184.155 91.8351 183.707C92.2738 183.259 92.5118 182.573 92.5491 181.649C92.5678 181.089 92.5771 180.715 92.5771 180.529C92.5771 180.323 92.5678 179.95 92.5491 179.409C92.5118 178.485 92.2691 177.799 91.8211 177.351C91.3824 176.903 90.7991 176.679 90.0711 176.679C89.3338 176.679 88.7411 176.903 88.2931 177.351C87.8544 177.799 87.6164 178.485 87.5791 179.409C87.5698 179.679 87.5651 180.053 87.5651 180.529C87.5651 180.995 87.5698 181.369 87.5791 181.649C87.6164 182.573 87.8544 183.259 88.2931 183.707C88.7411 184.155 89.3338 184.379 90.0711 184.379ZM96.6197 185.429C96.5264 185.429 96.447 185.401 96.3817 185.345C96.3257 185.279 96.2977 185.2 96.2977 185.107V175.951C96.2977 175.857 96.3257 175.783 96.3817 175.727C96.447 175.661 96.5264 175.629 96.6197 175.629H97.3617C97.455 175.629 97.5297 175.661 97.5857 175.727C97.651 175.783 97.6837 175.857 97.6837 175.951V184.211H102.332C102.434 184.211 102.514 184.243 102.57 184.309C102.635 184.365 102.668 184.444 102.668 184.547V185.107C102.668 185.2 102.635 185.279 102.57 185.345C102.504 185.401 102.425 185.429 102.332 185.429H96.6197ZM104.788 185.429C104.695 185.429 104.616 185.401 104.55 185.345C104.494 185.279 104.466 185.2 104.466 185.107V175.965C104.466 175.862 104.494 175.783 104.55 175.727C104.616 175.661 104.695 175.629 104.788 175.629H107.966C109.376 175.629 110.393 175.946 111.018 176.581C111.644 177.206 111.97 178.153 111.998 179.423C112.008 179.693 112.012 180.057 112.012 180.515C112.012 180.972 112.008 181.341 111.998 181.621C111.97 182.507 111.821 183.231 111.55 183.791C111.289 184.341 110.874 184.752 110.304 185.023C109.735 185.293 108.979 185.429 108.036 185.429H104.788ZM107.966 184.239C108.61 184.239 109.119 184.15 109.492 183.973C109.875 183.795 110.15 183.515 110.318 183.133C110.496 182.741 110.594 182.218 110.612 181.565C110.631 181.005 110.64 180.655 110.64 180.515C110.64 180.365 110.631 180.02 110.612 179.479C110.594 178.555 110.374 177.883 109.954 177.463C109.534 177.033 108.848 176.819 107.896 176.819H105.838V184.239H107.966ZM114.721 185.429C114.627 185.429 114.548 185.401 114.483 185.345C114.427 185.279 114.399 185.2 114.399 185.107V175.965C114.399 175.862 114.427 175.783 114.483 175.727C114.548 175.661 114.627 175.629 114.721 175.629H120.503C120.596 175.629 120.671 175.661 120.727 175.727C120.792 175.783 120.825 175.862 120.825 175.965V176.497C120.825 176.59 120.797 176.669 120.741 176.735C120.685 176.791 120.605 176.819 120.503 176.819H115.743V179.885H120.195C120.288 179.885 120.363 179.917 120.419 179.983C120.484 180.039 120.517 180.118 120.517 180.221V180.739C120.517 180.832 120.484 180.911 120.419 180.977C120.363 181.033 120.288 181.061 120.195 181.061H115.743V184.239H120.615C120.717 184.239 120.797 184.267 120.853 184.323C120.909 184.379 120.937 184.458 120.937 184.561V185.107C120.937 185.2 120.904 185.279 120.839 185.345C120.783 185.401 120.708 185.429 120.615 185.429H114.721ZM123.491 185.429C123.398 185.429 123.318 185.401 123.253 185.345C123.197 185.279 123.169 185.2 123.169 185.107V175.965C123.169 175.862 123.197 175.783 123.253 175.727C123.318 175.661 123.398 175.629 123.491 175.629H126.907C127.98 175.629 128.82 175.881 129.427 176.385C130.034 176.889 130.337 177.617 130.337 178.569C130.337 179.278 130.16 179.861 129.805 180.319C129.46 180.776 128.97 181.093 128.335 181.271L130.491 184.995C130.519 185.051 130.533 185.102 130.533 185.149C130.533 185.223 130.5 185.289 130.435 185.345C130.379 185.401 130.314 185.429 130.239 185.429H129.567C129.427 185.429 129.315 185.396 129.231 185.331C129.156 185.265 129.086 185.172 129.021 185.051L126.991 181.495H124.541V185.107C124.541 185.2 124.508 185.279 124.443 185.345C124.378 185.401 124.298 185.429 124.205 185.429H123.491ZM126.851 180.305C128.242 180.305 128.937 179.721 128.937 178.555C128.937 177.388 128.242 176.805 126.851 176.805H124.541V180.305H126.851Z" fill="#81818C"/>
<rect x="301.745" y="26.1866" width="30.0487" height="11.4719" rx="5.73597" transform="rotate(65 301.745 26.1866)" fill="url(#paint1_linear)"/>
<rect x="267.726" y="53.4375" width="30.0482" height="11.4719" rx="5.73597" transform="rotate(-65 267.726 53.4375)" fill="url(#paint2_linear)"/>
<rect x="285.983" y="26.1866" width="30.0487" height="11.4719" rx="5.73597" transform="rotate(65 285.983 26.1866)" fill="url(#paint3_linear)"/>
<rect x="283.469" y="53.4375" width="30.0482" height="11.4719" rx="5.73597" transform="rotate(-65 283.469 53.4375)" fill="url(#paint4_linear)"/>
<path d="M291.061 166.386H274.036V194.072H291.061V166.386Z" fill="#FF5F00"/>
<path d="M275.789 180.232C275.787 177.566 276.394 174.934 277.564 172.536C278.734 170.138 280.436 168.037 282.543 166.391C279.934 164.35 276.801 163.08 273.502 162.728C270.203 162.376 266.872 162.955 263.887 164.398C260.903 165.842 258.387 168.093 256.627 170.893C254.867 173.694 253.934 176.931 253.934 180.234C253.934 183.538 254.867 186.774 256.627 189.575C258.387 192.375 260.903 194.626 263.887 196.07C266.872 197.514 270.203 198.092 273.502 197.74C276.801 197.388 279.934 196.118 282.543 194.077C280.436 192.431 278.733 190.328 277.563 187.93C276.393 185.531 275.786 182.898 275.789 180.232Z" fill="#EB001B"/>
<path d="M309.464 191.143V190.575H309.71V190.458H309.125V190.575H309.356V191.143H309.464ZM310.599 191.143V190.458H310.422L310.215 190.947L310.009 190.458H309.832V191.143H309.96V190.624L310.152 191.069H310.284L310.476 190.624V191.143H310.599Z" fill="#F79E1B"/>
<path d="M311.154 180.231C311.154 183.535 310.221 186.772 308.46 189.572C306.7 192.373 304.183 194.624 301.199 196.067C298.214 197.511 294.882 198.089 291.583 197.737C288.284 197.384 285.151 196.114 282.543 194.072C284.648 192.424 286.35 190.322 287.521 187.924C288.691 185.526 289.299 182.895 289.299 180.229C289.299 177.563 288.691 174.931 287.521 172.533C286.35 170.135 284.648 168.033 282.543 166.386C285.151 164.344 288.284 163.074 291.583 162.721C294.882 162.368 298.214 162.947 301.199 164.39C304.183 165.834 306.7 168.085 308.46 170.885C310.221 173.686 311.154 176.923 311.154 180.226V180.231Z" fill="#F79E1B"/>
<g opacity="0.9">
<rect x="34.625" y="66.1111" width="55.0926" height="47.2222" rx="3" fill="#ECECEC"/>
<line opacity="0.5" x1="34.9143" y1="74.1647" x2="90.2759" y2="74.1647" stroke="#181B25" stroke-width="0.5"/>
<line opacity="0.5" x1="34.9143" y1="84.4777" x2="90.2759" y2="84.4777" stroke="#181B25" stroke-width="0.5"/>
<line opacity="0.5" x1="34.9143" y1="94.7141" x2="90.2759" y2="94.7141" stroke="#181B25" stroke-width="0.5"/>
<line opacity="0.5" x1="34.9143" y1="105.024" x2="90.2759" y2="105.024" stroke="#181B25" stroke-width="0.5"/>
<line opacity="0.5" x1="62.418" y1="104.518" x2="62.418" y2="113.963" stroke="#181B25" stroke-width="0.5"/>
<line opacity="0.5" x1="62.418" y1="66.1112" x2="62.418" y2="74.4154" stroke="#181B25" stroke-width="0.5"/>
</g>
<mask id="path-18-inside-1" fill="white">
<path fill-rule="evenodd" clip-rule="evenodd" d="M71.9731 84.6853C71.4512 86.347 70.4825 87.8107 69.2077 88.9357C71.1681 90.6663 72.4045 93.198 72.4045 96.0186C72.4045 101.235 68.1761 105.463 62.9601 105.463C57.744 105.463 53.5156 101.235 53.5156 96.0186C53.5156 93.1976 54.7525 90.6654 56.7134 88.9349C54.753 87.2043 53.5166 84.6725 53.5166 81.852C53.5166 76.3427 57.745 73.1946 62.9611 73.1946C64.2003 73.1946 65.3839 73.3503 66.4682 73.6668H89.7195V84.6853H71.9731Z"/>
</mask>
<path fill-rule="evenodd" clip-rule="evenodd" d="M71.9731 84.6853C71.4512 86.347 70.4825 87.8107 69.2077 88.9357C71.1681 90.6663 72.4045 93.198 72.4045 96.0186C72.4045 101.235 68.1761 105.463 62.9601 105.463C57.744 105.463 53.5156 101.235 53.5156 96.0186C53.5156 93.1976 54.7525 90.6654 56.7134 88.9349C54.753 87.2043 53.5166 84.6725 53.5166 81.852C53.5166 76.3427 57.745 73.1946 62.9611 73.1946C64.2003 73.1946 65.3839 73.3503 66.4682 73.6668H89.7195V84.6853H71.9731Z" fill="#D6D7D8"/>
<path d="M69.2077 88.9357L68.8768 88.5608L68.4521 88.9357L68.8768 89.3106L69.2077 88.9357ZM71.9731 84.6853V84.1853H71.6061L71.4961 84.5355L71.9731 84.6853ZM56.7134 88.9349L57.0443 89.3097L57.469 88.9349L57.0443 88.56L56.7134 88.9349ZM66.4682 73.6668L66.3281 74.1468L66.3967 74.1668H66.4682V73.6668ZM89.7195 73.6668H90.2195V73.1668H89.7195V73.6668ZM89.7195 84.6853V85.1853H90.2195V84.6853H89.7195ZM69.5385 89.3106C70.8802 88.1266 71.9004 86.5856 72.4501 84.8352L71.4961 84.5355C71.0021 86.1084 70.0848 87.4948 68.8768 88.5608L69.5385 89.3106ZM72.9045 96.0186C72.9045 93.0486 71.6019 90.3823 69.5386 88.5609L68.8768 89.3106C70.7342 90.9502 71.9045 93.3474 71.9045 96.0186H72.9045ZM62.9601 105.963C68.4522 105.963 72.9045 101.511 72.9045 96.0186H71.9045C71.9045 100.958 67.9 104.963 62.9601 104.963V105.963ZM53.0156 96.0186C53.0156 101.511 57.4679 105.963 62.9601 105.963V104.963C58.0202 104.963 54.0156 100.958 54.0156 96.0186H53.0156ZM56.3826 88.56C54.3186 90.3814 53.0156 93.0481 53.0156 96.0186H54.0156C54.0156 93.347 55.1863 90.9494 57.0443 89.3097L56.3826 88.56ZM53.0166 81.852C53.0166 84.8219 54.3192 87.4883 56.3825 89.3097L57.0443 88.56C55.1869 86.9203 54.0166 84.5231 54.0166 81.852H53.0166ZM62.9611 72.6946C60.2558 72.6946 57.7718 73.5111 55.9561 75.0789C54.1319 76.6539 53.0166 78.9588 53.0166 81.852H54.0166C54.0166 79.2359 55.0155 77.2121 56.6096 75.8358C58.212 74.4522 60.4503 73.6946 62.9611 73.6946V72.6946ZM66.6083 73.1868C65.4729 72.8554 64.2416 72.6946 62.9611 72.6946V73.6946C64.1591 73.6946 65.2949 73.8452 66.3281 74.1468L66.6083 73.1868ZM66.4682 74.1668H89.7195V73.1668H66.4682V74.1668ZM89.2195 73.6668V84.6853H90.2195V73.6668H89.2195ZM89.7195 84.1853H71.9731V85.1853H89.7195V84.1853Z" fill="#77787E" mask="url(#path-18-inside-1)"/>
<defs>
<linearGradient id="paint0_linear" x1="394.306" y1="243.981" x2="-2.2905e-06" y2="3.70174e-06" gradientUnits="userSpaceOnUse">
<stop stop-color="#181B25"/>
<stop offset="1" stop-color="#181B25" stop-opacity="0.88"/>
</linearGradient>
<linearGradient id="paint1_linear" x1="331.481" y1="31.5059" x2="314.959" y2="32.3927" gradientUnits="userSpaceOnUse">
<stop stop-color="#27ECB9"/>
<stop offset="1" stop-color="#26DAAD"/>
</linearGradient>
<linearGradient id="paint2_linear" x1="268.452" y1="57.2987" x2="287.149" y2="58.245" gradientUnits="userSpaceOnUse">
<stop stop-color="#108181"/>
<stop offset="1" stop-color="#0E7373"/>
</linearGradient>
<linearGradient id="paint3_linear" x1="286.223" y1="32.5814" x2="304.038" y2="31.2238" gradientUnits="userSpaceOnUse">
<stop stop-color="#07A3A3"/>
<stop offset="1" stop-color="#0B9897"/>
</linearGradient>
<linearGradient id="paint4_linear" x1="283.651" y1="58.4363" x2="312.755" y2="60.9731" gradientUnits="userSpaceOnUse">
<stop stop-color="#0FC1AB"/>
<stop offset="1" stop-color="#14BEA9"/>
</linearGradient>
</defs>
</svg>
