<svg width="99" height="26" viewBox="0 0 99 26" fill="none" xmlns="http://www.w3.org/2000/svg">
<path d="M42.2698 19.5C42.1262 19.5 42.0087 19.461 41.9173 19.383C41.8259 19.292 41.7802 19.175 41.7802 19.032V6.33752C41.7802 6.19452 41.8259 6.07752 41.9173 5.98652C42.0087 5.89552 42.1262 5.85002 42.2698 5.85002H43.8168C44.0909 5.85002 44.2868 5.97352 44.4043 6.22052L48.1837 13.2405L52.0022 6.22052C52.1328 5.97352 52.3286 5.85002 52.5897 5.85002H54.1171C54.2607 5.85002 54.3782 5.89552 54.4696 5.98652C54.561 6.07752 54.6067 6.19452 54.6067 6.33752V19.032C54.6067 19.175 54.561 19.292 54.4696 19.383C54.3782 19.461 54.2607 19.5 54.1171 19.5H52.4722C52.3417 19.5 52.2307 19.4545 52.1393 19.3635C52.0479 19.2725 52.0022 19.162 52.0022 19.032V10.5885L49.2607 15.795C49.091 16.081 48.869 16.224 48.5949 16.224H47.792C47.5179 16.224 47.2959 16.081 47.1262 15.795L44.3847 10.5885V19.032C44.3847 19.162 44.339 19.2725 44.2476 19.3635C44.1693 19.4545 44.0583 19.5 43.9147 19.5H42.2698Z" fill="white"/>
<path d="M60.3746 19.695C59.7088 19.695 59.0953 19.565 58.5339 19.305C57.9856 19.032 57.5482 18.668 57.2219 18.213C56.9085 17.758 56.7519 17.2575 56.7519 16.7115C56.7519 15.8275 57.1109 15.1125 57.8289 14.5665C58.5469 14.0205 59.5326 13.65 60.7859 13.455L63.4687 13.065V12.6555C63.4687 12.0835 63.3251 11.6545 63.0378 11.3685C62.7506 11.0825 62.2872 10.9395 61.6475 10.9395C61.2167 10.9395 60.8642 11.024 60.59 11.193C60.3289 11.349 60.1201 11.505 59.9634 11.661C59.8067 11.83 59.7023 11.9405 59.6501 11.9925C59.5979 12.1485 59.5 12.2265 59.3564 12.2265H57.8485C57.731 12.2265 57.6266 12.1875 57.5352 12.1095C57.4569 12.0315 57.4177 11.9275 57.4177 11.7975C57.4307 11.4725 57.5874 11.102 57.8877 10.686C58.201 10.27 58.6775 9.91252 59.3172 9.61352C59.9569 9.31452 60.7402 9.16502 61.6671 9.16502C63.2076 9.16502 64.3303 9.50952 65.0353 10.1985C65.7402 10.8875 66.0927 11.791 66.0927 12.909V19.032C66.0927 19.162 66.047 19.2725 65.9556 19.3635C65.8773 19.4545 65.7663 19.5 65.6227 19.5H64.0366C63.906 19.5 63.795 19.4545 63.7036 19.3635C63.6123 19.2725 63.5666 19.162 63.5666 19.032V18.2715C63.2794 18.6875 62.8681 19.032 62.3329 19.305C61.8107 19.565 61.1579 19.695 60.3746 19.695ZM61.0404 17.8425C61.7585 17.8425 62.3459 17.6085 62.8029 17.1405C63.2598 16.6725 63.4882 15.99 63.4882 15.093V14.6835L61.53 14.9955C60.7728 15.1125 60.1984 15.301 59.8067 15.561C59.4282 15.821 59.2389 16.1395 59.2389 16.5165C59.2389 16.9325 59.4151 17.2575 59.7676 17.4915C60.1201 17.7255 60.5444 17.8425 61.0404 17.8425Z" fill="white"/>
<path d="M69.0749 19.5C68.9443 19.5 68.8334 19.4545 68.742 19.3635C68.6506 19.2725 68.6049 19.162 68.6049 19.032V9.84752C68.6049 9.71752 68.6506 9.60702 68.742 9.51602C68.8334 9.41202 68.9443 9.36002 69.0749 9.36002H70.6611C70.8047 9.36002 70.9222 9.40552 71.0136 9.49652C71.1049 9.58752 71.1506 9.70452 71.1506 9.84752V10.647C71.4639 10.231 71.8556 9.91252 72.3256 9.69152C72.8086 9.47052 73.3569 9.36002 73.9705 9.36002H74.7734C74.917 9.36002 75.028 9.40552 75.1063 9.49652C75.1977 9.57452 75.2434 9.68502 75.2434 9.82802V11.232C75.2434 11.362 75.1977 11.4725 75.1063 11.5635C75.028 11.6545 74.917 11.7 74.7734 11.7H73.2459C72.6324 11.7 72.1493 11.8755 71.7969 12.2265C71.4444 12.5775 71.2681 13.0585 71.2681 13.6695V19.032C71.2681 19.162 71.2224 19.2725 71.131 19.3635C71.0397 19.4545 70.9222 19.5 70.7786 19.5H69.0749Z" fill="white"/>
<path d="M80.3738 19.5C80.178 19.5 80.0278 19.461 79.9234 19.383C79.819 19.292 79.7341 19.1685 79.6688 19.0125L76.0069 9.96452L75.9678 9.78902C75.9678 9.67202 76.0069 9.57452 76.0852 9.49652C76.1766 9.40552 76.2811 9.36002 76.3986 9.36002H77.9847C78.2328 9.36002 78.4025 9.48352 78.4939 9.73052L81.0983 16.575L83.7028 9.73052C83.742 9.63952 83.8007 9.55502 83.8791 9.47702C83.9704 9.39902 84.0814 9.36002 84.212 9.36002H85.8177C85.9221 9.36002 86.0135 9.40552 86.0919 9.49652C86.1832 9.57452 86.2289 9.67202 86.2289 9.78902C86.2289 9.86702 86.2224 9.92552 86.2094 9.96452L82.5279 19.0125C82.4626 19.1685 82.3777 19.292 82.2733 19.383C82.1688 19.461 82.0187 19.5 81.8229 19.5H80.3738Z" fill="white"/>
<path d="M88.5048 19.5C88.3742 19.5 88.2633 19.4545 88.1719 19.3635C88.0805 19.2725 88.0348 19.162 88.0348 19.032V6.12302C88.0348 5.98002 88.0805 5.86952 88.1719 5.79152C88.2633 5.70052 88.3742 5.65502 88.5048 5.65502H90.1301C90.2737 5.65502 90.3847 5.70052 90.463 5.79152C90.5544 5.86952 90.6001 5.98002 90.6001 6.12302V19.032C90.6001 19.162 90.5544 19.2725 90.463 19.3635C90.3847 19.4545 90.2737 19.5 90.1301 19.5H88.5048Z" fill="white"/>
<path d="M93.5893 7.68302C93.4588 7.68302 93.3478 7.63752 93.2564 7.54652C93.165 7.45552 93.1194 7.34502 93.1194 7.21502V5.81102C93.1194 5.68102 93.165 5.57052 93.2564 5.47952C93.3478 5.38852 93.4588 5.34302 93.5893 5.34302H95.3713C95.5019 5.34302 95.6128 5.38852 95.7042 5.47952C95.8087 5.57052 95.8609 5.68102 95.8609 5.81102V7.21502C95.8609 7.34502 95.8152 7.45552 95.7238 7.54652C95.6324 7.63752 95.5149 7.68302 95.3713 7.68302H93.5893ZM93.6677 19.5C93.5371 19.5 93.4261 19.4545 93.3348 19.3635C93.2434 19.2725 93.1977 19.162 93.1977 19.032V9.82802C93.1977 9.69802 93.2434 9.58752 93.3348 9.49652C93.4261 9.40552 93.5371 9.36002 93.6677 9.36002H95.293C95.4366 9.36002 95.5476 9.40552 95.6259 9.49652C95.7173 9.57452 95.763 9.68502 95.763 9.82802V19.032C95.763 19.162 95.7173 19.2725 95.6259 19.3635C95.5476 19.4545 95.4366 19.5 95.293 19.5H93.6677Z" fill="white"/>
<rect width="18.1309" height="6.94078" rx="3.47039" transform="matrix(0.424084 0.905623 -0.906988 0.421156 20.5967 3.25)" fill="url(#paint0_linear)"/>
<rect width="18.1306" height="6.94078" rx="3.47039" transform="matrix(0.424084 -0.905623 0.906989 0.421156 0 19.6802)" fill="url(#paint1_linear)"/>
<rect width="18.1309" height="6.94078" rx="3.47039" transform="matrix(0.424084 0.905623 -0.906988 0.421156 11.0558 3.25)" fill="url(#paint2_linear)"/>
<rect width="18.1306" height="6.94078" rx="3.47039" transform="matrix(0.424084 -0.905623 0.906989 0.421156 9.53259 19.6802)" fill="url(#paint3_linear)"/>
<defs>
<linearGradient id="paint0_linear" x1="17.9421" y1="3.21825" x2="7.97307" y2="3.7519" gradientUnits="userSpaceOnUse">
<stop stop-color="#27ECB9"/>
<stop offset="1" stop-color="#26DAAD"/>
</linearGradient>
<linearGradient id="paint1_linear" x1="0.437965" y1="2.33611" x2="11.7197" y2="2.90553" gradientUnits="userSpaceOnUse">
<stop stop-color="#108181"/>
<stop offset="1" stop-color="#0E7373"/>
</linearGradient>
<linearGradient id="paint2_linear" x1="0.144644" y1="3.86894" x2="10.8943" y2="3.05199" gradientUnits="userSpaceOnUse">
<stop stop-color="#07A3A3"/>
<stop offset="1" stop-color="#0B9897"/>
</linearGradient>
<linearGradient id="paint3_linear" x1="0.11008" y1="3.02438" x2="17.6715" y2="4.55099" gradientUnits="userSpaceOnUse">
<stop stop-color="#0FC1AB"/>
<stop offset="1" stop-color="#14BEA9"/>
</linearGradient>
</defs>
</svg>
