<svg width="48" height="48" viewBox="0 0 48 48" fill="none" xmlns="http://www.w3.org/2000/svg">
<path d="M24 48C37.2548 48 48 37.2548 48 24C48 10.7452 37.2548 0 24 0C10.7452 0 0 10.7452 0 24C0 37.2548 10.7452 48 24 48Z" fill="#0052B4"/>
<path d="M23.9999 9.39136L24.777 11.7828H27.2914L25.2571 13.2608L26.0342 15.6523L23.9999 14.1742L21.9656 15.6523L22.7427 13.2608L20.7084 11.7828H23.2228L23.9999 9.39136Z" fill="#FFDA44"/>
<path d="M13.6681 13.6701L15.9087 14.8116L17.6867 13.0337L17.2932 15.5171L19.5337 16.6587L17.0502 17.0521L16.6568 19.5357L15.5152 17.2952L13.0318 17.6887L14.8098 15.9107L13.6681 13.6701Z" fill="#FFDA44"/>
<path d="M9.39117 24.0001L11.7826 23.223V20.7085L13.2605 22.7429L15.6521 21.9658L14.1739 24.0001L15.6521 26.0344L13.2605 25.2574L11.7826 27.2916V24.7772L9.39117 24.0001Z" fill="#FFDA44"/>
<path d="M13.6681 34.3299L14.8097 32.0893L13.0318 30.3113L15.5153 30.7049L16.6567 28.4644L17.0502 30.9479L19.5336 31.3413L17.2934 32.4829L17.6867 34.9663L15.9087 33.1883L13.6681 34.3299Z" fill="#FFDA44"/>
<path d="M23.9999 38.6087L23.2227 36.2173H20.7084L22.7428 34.7393L21.9656 32.348L23.9999 33.8259L26.0342 32.348L25.2571 34.7393L27.2914 36.2173H24.7769L23.9999 38.6087Z" fill="#FFDA44"/>
<path d="M34.3309 34.3299L32.0903 33.1884L30.3123 34.9664L30.7057 32.4828L28.4654 31.3413L30.9488 30.9479L31.3422 28.4644L32.4837 30.7049L34.9671 30.3113L33.1892 32.0895L34.3309 34.3299Z" fill="#FFDA44"/>
<path d="M38.6089 24.0001L36.2174 24.7772V27.2916L34.7395 25.2573L32.3482 26.0344L33.8262 24.0001L32.3482 21.9658L34.7396 22.7429L36.2174 20.7085V23.2231L38.6089 24.0001Z" fill="#FFDA44"/>
<path d="M34.3309 13.6702L33.1893 15.9108L34.9672 17.6888L32.4836 17.2952L31.3422 19.5358L30.9488 17.0522L28.4654 16.6588L30.7057 15.5173L30.3123 13.0339L32.0904 14.8118L34.3309 13.6702Z" fill="#FFDA44"/>
</svg>
