<svg width="48" height="48" viewBox="0 0 48 48" fill="none" xmlns="http://www.w3.org/2000/svg">
<path d="M24 48C37.2548 48 48 37.2548 48 24C48 10.7452 37.2548 0 24 0C10.7452 0 0 10.7452 0 24C0 37.2548 10.7452 48 24 48Z" fill="#F0F0F0"/>
<path d="M4.96162 9.38831C3.0764 11.8411 1.65487 14.6681 0.827148 17.7393H13.3126L4.96162 9.38831Z" fill="#0052B4"/>
<path d="M47.1718 17.7392C46.344 14.6681 44.9224 11.8411 43.0373 9.38831L34.6865 17.7392H47.1718Z" fill="#0052B4"/>
<path d="M0.827148 30.261C1.65496 33.332 3.07649 36.1591 4.96162 38.6118L13.3123 30.261H0.827148Z" fill="#0052B4"/>
<path d="M38.6116 4.96134C36.1588 3.07613 33.3319 1.65459 30.2607 0.826782V13.3121L38.6116 4.96134Z" fill="#0052B4"/>
<path d="M9.38892 43.0387C11.8417 44.9239 14.6687 46.3454 17.7398 47.1732V34.688L9.38892 43.0387Z" fill="#0052B4"/>
<path d="M17.7397 0.826782C14.6686 1.65459 11.8416 3.07613 9.38892 4.96125L17.7397 13.312V0.826782Z" fill="#0052B4"/>
<path d="M30.2608 47.1732C33.3319 46.3454 36.1589 44.9239 38.6116 43.0388L30.2608 34.688V47.1732Z" fill="#0052B4"/>
<path d="M34.6865 30.2611L43.0373 38.612C44.9224 36.1593 46.344 33.3322 47.1718 30.2611H34.6865Z" fill="#0052B4"/>
<path d="M47.7968 20.8696H27.1306H27.1305V0.203156C26.1057 0.06975 25.061 0 24 0C22.9388 0 21.8943 0.06975 20.8696 0.203156V20.8694V20.8695H0.203156C0.06975 21.8943 0 22.939 0 24C0 25.0612 0.06975 26.1057 0.203156 27.1304H20.8694H20.8695V47.7968C21.8943 47.9303 22.9388 48 24 48C25.061 48 26.1057 47.9303 27.1304 47.7968V27.1306V27.1305H47.7968C47.9303 26.1057 48 25.0612 48 24C48 22.939 47.9303 21.8943 47.7968 20.8696Z" fill="#D80027"/>
<path d="M30.2608 30.2611L40.9704 40.9707C41.463 40.4783 41.9329 39.9635 42.3812 39.4299L33.2122 30.261H30.2608V30.2611Z" fill="#D80027"/>
<path d="M17.741 30.261H17.7408L7.03125 40.9705C7.52362 41.4631 8.03841 41.933 8.57203 42.3813L17.741 33.2121V30.261Z" fill="#D80027"/>
<path d="M17.7376 17.7392V17.739L7.02794 7.0293C6.53538 7.52167 6.0655 8.03645 5.61719 8.57008L14.7862 17.7391H17.7376V17.7392Z" fill="#D80027"/>
<path d="M30.2608 17.7392L40.9705 7.02943C40.4781 6.53687 39.9634 6.06699 39.4297 5.61877L30.2608 14.7878V17.7392Z" fill="#D80027"/>
</svg>
