<svg id="delete-bin-2-line" xmlns="http://www.w3.org/2000/svg" width="20" height="20" viewBox="0 0 20 20">
  <path id="Path_735" data-name="Path 735" d="M0,0H20V20H0Z" fill="none"/>
  <path id="Path_736" data-name="Path 736" d="M14,5.2h4V6.8H16.4V17.2a.8.8,0,0,1-.8.8H4.4a.8.8,0,0,1-.8-.8V6.8H2V5.2H6V2.8A.8.8,0,0,1,6.8,2h6.4a.8.8,0,0,1,.8.8Zm.8,1.6H5.2v9.6h9.6Zm-3.669,4.8,1.414,1.414-1.131,1.131L10,12.731,8.586,14.146,7.454,13.014,8.869,11.6,7.454,10.186,8.586,9.054,10,10.469l1.414-1.414,1.131,1.131ZM7.6,3.6V5.2h4.8V3.6Z" fill="#ee7070"/>
</svg>
