<svg xmlns="http://www.w3.org/2000/svg" xmlns:xlink="http://www.w3.org/1999/xlink" width="220.837" height="174.606" viewBox="0 0 220.837 174.606">
  <defs>
    <filter id="Rectangle_223" x="0" y="0" width="220.837" height="174.606" filterUnits="userSpaceOnUse">
      <feOffset dx="1" dy="3" input="SourceAlpha"/>
      <feGaussianBlur stdDeviation="6" result="blur"/>
      <feFlood flood-color="#f1f2fb"/>
      <feComposite operator="in" in2="blur"/>
      <feComposite in="SourceGraphic"/>
    </filter>
  </defs>
  <g id="Group_118" data-name="Group 118" transform="translate(-857.261 -306.331)">
    <g transform="matrix(1, 0, 0, 1, 857.26, 306.33)" filter="url(#Rectangle_223)">
      <rect id="Rectangle_223-2" data-name="Rectangle 223" width="184.837" height="138.606" rx="6" transform="translate(17 15)" fill="#fff"/>
    </g>
    <rect id="Rectangle_472" data-name="Rectangle 472" width="20" height="7.431" transform="translate(886.965 333.505)" fill="#bbbfc7"/>
    <g id="Group_117" data-name="Group 117">
      <rect id="Rectangle_476" data-name="Rectangle 476" width="8" height="7.431" transform="translate(886.965 353.505)" fill="#e6e8ec"/>
      <rect id="Rectangle_480" data-name="Rectangle 480" width="8" height="7.431" transform="translate(1025.965 353.505)" fill="#abf"/>
      <rect id="Rectangle_481" data-name="Rectangle 481" width="8" height="7.431" transform="translate(1037.965 353.505)" fill="#fbb"/>
      <rect id="Rectangle_477" data-name="Rectangle 477" width="24" height="7.431" transform="translate(916.965 353.505)" fill="#e6e8ec"/>
      <rect id="Rectangle_478" data-name="Rectangle 478" width="39" height="7.431" transform="translate(956.965 353.505)" fill="#e6e8ec"/>
      <rect id="Rectangle_479" data-name="Rectangle 479" width="18" height="7.431" transform="translate(1001.965 353.505)" fill="#e6e8ec"/>
    </g>
    <g id="Group_117-2" data-name="Group 117" transform="translate(0 17)">
      <rect id="Rectangle_476-2" data-name="Rectangle 476" width="8" height="7.431" transform="translate(886.965 353.505)" fill="#e6e8ec"/>
      <rect id="Rectangle_480-2" data-name="Rectangle 480" width="8" height="7.431" transform="translate(1025.965 353.505)" fill="#abf"/>
      <rect id="Rectangle_481-2" data-name="Rectangle 481" width="8" height="7.431" transform="translate(1037.965 353.505)" fill="#fbb"/>
      <rect id="Rectangle_477-2" data-name="Rectangle 477" width="32" height="7.431" transform="translate(916.965 353.505)" fill="#e6e8ec"/>
      <rect id="Rectangle_478-2" data-name="Rectangle 478" width="34" height="7.431" transform="translate(956.965 353.505)" fill="#e6e8ec"/>
      <rect id="Rectangle_479-2" data-name="Rectangle 479" width="12" height="7.431" transform="translate(1001.965 353.505)" fill="#e6e8ec"/>
    </g>
    <g id="Group_117-3" data-name="Group 117" transform="translate(0 34)">
      <rect id="Rectangle_476-3" data-name="Rectangle 476" width="8" height="7.431" transform="translate(886.965 353.505)" fill="#e6e8ec"/>
      <rect id="Rectangle_480-3" data-name="Rectangle 480" width="8" height="7.431" transform="translate(1025.965 353.505)" fill="#abf"/>
      <rect id="Rectangle_481-3" data-name="Rectangle 481" width="8" height="7.431" transform="translate(1037.965 353.505)" fill="#fbb"/>
      <rect id="Rectangle_477-3" data-name="Rectangle 477" width="20" height="7.431" transform="translate(916.965 353.505)" fill="#e6e8ec"/>
      <rect id="Rectangle_478-3" data-name="Rectangle 478" width="39" height="7.431" transform="translate(956.965 353.505)" fill="#e6e8ec"/>
      <rect id="Rectangle_479-3" data-name="Rectangle 479" width="12" height="7.431" transform="translate(1001.965 353.505)" fill="#e6e8ec"/>
    </g>
    <g id="Group_117-4" data-name="Group 117" transform="translate(0 51)">
      <rect id="Rectangle_476-4" data-name="Rectangle 476" width="8" height="7.431" transform="translate(886.965 353.505)" fill="#e6e8ec"/>
      <rect id="Rectangle_480-4" data-name="Rectangle 480" width="8" height="7.431" transform="translate(1025.965 353.505)" fill="#abf"/>
      <rect id="Rectangle_481-4" data-name="Rectangle 481" width="8" height="7.431" transform="translate(1037.965 353.505)" fill="#fbb"/>
      <rect id="Rectangle_477-4" data-name="Rectangle 477" width="24" height="7.431" transform="translate(916.965 353.505)" fill="#e6e8ec"/>
      <rect id="Rectangle_478-4" data-name="Rectangle 478" width="30" height="7.431" transform="translate(956.965 353.505)" fill="#e6e8ec"/>
      <rect id="Rectangle_479-4" data-name="Rectangle 479" width="14" height="7.431" transform="translate(1001.965 353.505)" fill="#e6e8ec"/>
    </g>
    <g id="Group_117-5" data-name="Group 117" transform="translate(0 68)">
      <rect id="Rectangle_476-5" data-name="Rectangle 476" width="8" height="7.431" transform="translate(886.965 353.505)" fill="#e6e8ec"/>
      <rect id="Rectangle_480-5" data-name="Rectangle 480" width="8" height="7.431" transform="translate(1025.965 353.505)" fill="#abf"/>
      <rect id="Rectangle_481-5" data-name="Rectangle 481" width="8" height="7.431" transform="translate(1037.965 353.505)" fill="#fbb"/>
      <rect id="Rectangle_477-5" data-name="Rectangle 477" width="32" height="7.431" transform="translate(916.965 353.505)" fill="#e6e8ec"/>
      <rect id="Rectangle_478-5" data-name="Rectangle 478" width="24" height="7.431" transform="translate(956.965 353.505)" fill="#e6e8ec"/>
      <rect id="Rectangle_479-5" data-name="Rectangle 479" width="8" height="7.431" transform="translate(1001.965 353.505)" fill="#e6e8ec"/>
    </g>
    <g id="Group_117-6" data-name="Group 117" transform="translate(0 85)">
      <rect id="Rectangle_476-6" data-name="Rectangle 476" width="8" height="7.431" transform="translate(886.965 353.505)" fill="#e6e8ec"/>
      <rect id="Rectangle_480-6" data-name="Rectangle 480" width="8" height="7.431" transform="translate(1025.965 353.505)" fill="#abf"/>
      <rect id="Rectangle_481-6" data-name="Rectangle 481" width="8" height="7.431" transform="translate(1037.965 353.505)" fill="#fbb"/>
      <rect id="Rectangle_477-6" data-name="Rectangle 477" width="24" height="7.431" transform="translate(916.965 353.505)" fill="#e6e8ec"/>
      <rect id="Rectangle_478-6" data-name="Rectangle 478" width="32" height="7.431" transform="translate(956.965 353.505)" fill="#e6e8ec"/>
      <rect id="Rectangle_479-6" data-name="Rectangle 479" width="18" height="7.431" transform="translate(1001.965 353.505)" fill="#e6e8ec"/>
    </g>
    <rect id="Rectangle_473" data-name="Rectangle 473" width="30" height="7.431" transform="translate(916.965 333.505)" fill="#bbbfc7"/>
    <rect id="Rectangle_474" data-name="Rectangle 474" width="35" height="7.431" transform="translate(956.965 333.505)" fill="#bbbfc7"/>
    <rect id="Rectangle_475" data-name="Rectangle 475" width="25" height="7.431" transform="translate(1001.965 333.505)" fill="#bbbfc7"/>
  </g>
</svg>
